<?xml version="1.0" encoding="UTF-8"?>
<!DOCTYPE svg PUBLIC "-//W3C//DTD SVG 1.1//EN" "http://www.w3.org/Graphics/SVG/1.1/DTD/svg11.dtd">
<!-- Creator: CorelDRAW X8 -->
<svg xmlns="http://www.w3.org/2000/svg" id="love" xml:space="preserve" version="1.1" style="shape-rendering:geometricPrecision; text-rendering:geometricPrecision; image-rendering:optimizeQuality; fill-rule:evenodd; clip-rule:evenodd"
viewBox="0 0 15212 11942"
 xmlns:xlink="http://www.w3.org/1999/xlink">
 <defs>
  <style type="text/css">
   <![CDATA[
    .fil0,.fil1 {
        fill:white;
        transform-origin: center 30%;
        transform: scale(0.5);
    }

    #love:hover .fil0{
        animation: love_anime 1s infinite ;
    }
    #love:hover .fil1{
        animation: love_anime 1s infinite ;
        animation-delay: 0.2s;
    }
    @keyframes love_anime{
        0%,100%{transform: scale(0.45);}
        10%{transform: scale(0.5);}
    }
   ]]>
  </style>
 </defs>
 <g>
  <path class="fil0" d="M6152 11884c77,78 202,78 279,0 580,-580 1214,-1109 1842,-1637 309,-260 617,-519 922,-784 1161,-1008 2394,-2192 2999,-3634 408,-975 488,-1973 273,-3007 -162,-778 -535,-1511 -1128,-2048 -440,-399 -980,-668 -1570,-749 -619,-84 -1226,47 -1773,345 -652,356 -1168,922 -1561,1545l-144 229 -144 -229c-392,-623 -908,-1189 -1561,-1545 -546,-298 -1153,-429 -1772,-345 -590,81 -1130,349 -1570,749 -593,537 -966,1270 -1128,2048 -215,1034 -136,2032 273,3007 605,1442 1838,2626 2999,3634 304,265 613,524 922,784 628,528 1262,1057 1842,1637zm-1590 -1936c-273,-230 -546,-459 -816,-692 -1216,-1051 -2544,-2311 -3088,-3863 -286,-816 -333,-1645 -157,-2491 144,-696 474,-1356 1005,-1838 381,-345 848,-580 1360,-650 535,-73 1061,43 1533,300 772,421 1331,1172 1717,1945 49,96 166,135 263,87 38,-19 69,-50 88,-88 386,-773 946,-1523 1717,-1944 472,-257 998,-373 1533,-300 511,70 979,305 1360,650 531,482 861,1142 1005,1838 176,846 129,1675 -157,2491 -545,1552 -1872,2812 -3088,3863 -270,233 -543,462 -816,692 -545,458 -1096,917 -1612,1408l-118 111 -117 -111c-517,-491 -1067,-950 -1612,-1408z"/>
  <path class="fil1" d="M9046 10713c-221,-185 -442,-371 -660,-559 -984,-850 -2058,-1869 -2498,-3125 -231,-659 -269,-1330 -127,-2014 117,-563 383,-1097 813,-1487 308,-279 686,-469 1100,-525 433,-59 858,34 1240,242 624,341 1077,948 1389,1573 39,78 134,110 212,71 32,-16 56,-41 72,-72 312,-625 764,-1231 1388,-1572 382,-208 808,-301 1240,-242 414,56 792,246 1100,525 430,390 696,924 813,1487 143,684 105,1355 -127,2014 -440,1256 -1514,2275 -2498,3125 -218,188 -439,374 -659,559 -442,371 -887,743 -1305,1139l-94 90 -95 -90c-418,-396 -863,-768 -1304,-1139z"/>
 </g>
</svg>
