<?xml version="1.0" encoding="UTF-8"?>
<!DOCTYPE svg PUBLIC "-//W3C//DTD SVG 1.1//EN" "http://www.w3.org/Graphics/SVG/1.1/DTD/svg11.dtd">
<svg xmlns="http://www.w3.org/2000/svg" xml:space="preserve" version="1.1" style="shape-rendering:geometricPrecision; text-rendering:geometricPrecision; image-rendering:optimizeQuality; fill-rule:evenodd; clip-rule:evenodd"
viewBox="0 0 2948 3098"
 xmlns:xlink="http://www.w3.org/1999/xlink">
 <defs>
  <style type="text/css">
   <![CDATA[
    .str5 {stroke:#120B36;}
    .str4 {stroke:#8B019C;}
    .str3 {stroke:#1FA178;}
    .str2 {stroke:#29ABE0;}
    .str1 {stroke:#ED00ED;}
    .fil0 {
        stroke-width:80;
        fill:none;
        transform-origin: center;
        transform: scale(0.03);
    }
    
    .spiral{
        animation: spiral 2s infinite linear;
        transform-origin: 49% 56%;
    }
    @keyframes spiral{
        0%{transform: rotate(0deg) scale(0.04);}
        100%{transform: rotate(360deg) scale(0.04);}
    }
    .spi1{
         transform: translate(0%,-50%);
    }
    .spi2{
         transform: translate(10%,-0%);
    }
    .spi3{
         transform: translate(-30%,-20%);
    }
    .spi4{
         transform: translate(40%,-30%);
    }
    .spi5{
         transform: translate(-45%,28%);
    }
    .spi6{
         transform: translate(30%,-50%);
    }
    .spi7{
         transform: translate(28%,23%);
    }
    .spi8{
         transform: translate(-30%,-40%);
    }
    .spi9{
         transform: translate(-30%,10%);
    }
    .spi10{
         transform: translate(-10%,35%);
    }

    .triangle{
        animation: triangle 15s infinite linear;
        transform-origin: 50% 52%;
    }
    @keyframes triangle{
        0%{transform: rotate(0deg) scale(0.05)}
        100%{transform: rotate(-360deg) scale(0.05)}
    }
    .tri1{
         transform: translate(50%, -50%);
    }
    .tri2{
         transform: translate(-10%, 30%);
    }
    .tri3{
         transform: translate(-40%, -40%);
    }
    .tri4{
         transform: translate(40%,10%);
    }
    .tri5{
         transform: translate(20%, -35%);
    }
    .tri6{
         transform: translate(-45%, 20%);
    }
    .tri7{
         transform: translate(-15%, -25%);
    }
    .tri8{
         transform: translate(20%,-10%);
    }
    
    .heart{
        animation: heart 2s infinite;
    }
@keyframes heart{
    0%,50%,100%{transform: rotate(0deg) scale(0.03);}
    25%{transform: rotate(45deg) scale(0.05);}
    75%{transform: rotate(-45deg) scale(0.05);}
}
    .he1{
        transform: translate(5%,-25%);
    }
    .he2{
        transform: translate(-15%,10%);
    }
    .he3{
        transform: translate(40%,40%);
    }
    .he4{
        transform: translate(-45%,0%);
    }
    .he5{
        transform: translate(5%,25%);
    }
    .he6{
        transform: translate(35%,-5%);
    }
    .he7{
        transform: translate(-30%,30%);
    }
    .he8{
        transform: translate(-10%,-8%);
    }
    .he1 .heart{
        animation-delay: 0s;
    }
    .he2 .heart{
        animation-delay: 0.5s;
    }
    .he3 .heart{
        animation-delay: 1s;
    }
    .he4 .heart{
        animation-delay: 1.5s;
    }
    .he8 .heart{
        animation-delay: 0s;
    }
    .he7 .heart{
        animation-delay: 0.5s;
    }
    .he6 .heart{
        animation-delay: 1s;
    }
    .he5 .heart{
        animation-delay: 1.5s;
    }
   ]]>
  </style>
 </defs>
 <g>
   <!-- <rect class="recept" x="0" y="0" width="100%" height="100%"/> -->
   <g class="spi1">
    <path class="spiral fil0 str1" d="M1332 1811c-45,169 63,333 241,366 178,33 360,-78 405,-247 91,-338 -125,-665 -482,-731 -356,-65 -719,155 -809,493 -136,507 187,998 722,1097 535,98 1078,-233 1214,-740 182,-675 -249,-1330 -962,-1462 -714,-131 -1439,310 -1620,986"/>
   </g>
   <g class="spi2">
    <path class="spiral fil0 str2" d="M1332 1811c-45,169 63,333 241,366 178,33 360,-78 405,-247 91,-338 -125,-665 -482,-731 -356,-65 -719,155 -809,493 -136,507 187,998 722,1097 535,98 1078,-233 1214,-740 182,-675 -249,-1330 -962,-1462 -714,-131 -1439,310 -1620,986"/>
   </g>
   <g class="spi3">
    <path class="spiral fil0 str3" d="M1332 1811c-45,169 63,333 241,366 178,33 360,-78 405,-247 91,-338 -125,-665 -482,-731 -356,-65 -719,155 -809,493 -136,507 187,998 722,1097 535,98 1078,-233 1214,-740 182,-675 -249,-1330 -962,-1462 -714,-131 -1439,310 -1620,986"/>
   </g>
   <g class="spi4">
    <path class="spiral fil0 str4" d="M1332 1811c-45,169 63,333 241,366 178,33 360,-78 405,-247 91,-338 -125,-665 -482,-731 -356,-65 -719,155 -809,493 -136,507 187,998 722,1097 535,98 1078,-233 1214,-740 182,-675 -249,-1330 -962,-1462 -714,-131 -1439,310 -1620,986"/>
   </g>
   <g class="spi5">
    <path class="spiral fil0 str5" d="M1332 1811c-45,169 63,333 241,366 178,33 360,-78 405,-247 91,-338 -125,-665 -482,-731 -356,-65 -719,155 -809,493 -136,507 187,998 722,1097 535,98 1078,-233 1214,-740 182,-675 -249,-1330 -962,-1462 -714,-131 -1439,310 -1620,986"/>
   </g>
   <g class="spi6">
    <path class="spiral fil0 str5" d="M1332 1811c-45,169 63,333 241,366 178,33 360,-78 405,-247 91,-338 -125,-665 -482,-731 -356,-65 -719,155 -809,493 -136,507 187,998 722,1097 535,98 1078,-233 1214,-740 182,-675 -249,-1330 -962,-1462 -714,-131 -1439,310 -1620,986"/>
   </g>
   <g class="spi7">
    <path class="spiral fil0 str4" d="M1332 1811c-45,169 63,333 241,366 178,33 360,-78 405,-247 91,-338 -125,-665 -482,-731 -356,-65 -719,155 -809,493 -136,507 187,998 722,1097 535,98 1078,-233 1214,-740 182,-675 -249,-1330 -962,-1462 -714,-131 -1439,310 -1620,986"/>
   </g>
   <g class="spi8">
    <path class="spiral fil0 str3" d="M1332 1811c-45,169 63,333 241,366 178,33 360,-78 405,-247 91,-338 -125,-665 -482,-731 -356,-65 -719,155 -809,493 -136,507 187,998 722,1097 535,98 1078,-233 1214,-740 182,-675 -249,-1330 -962,-1462 -714,-131 -1439,310 -1620,986"/>
   </g>
   <g class="spi9">
    <path class="spiral fil0 str2" d="M1332 1811c-45,169 63,333 241,366 178,33 360,-78 405,-247 91,-338 -125,-665 -482,-731 -356,-65 -719,155 -809,493 -136,507 187,998 722,1097 535,98 1078,-233 1214,-740 182,-675 -249,-1330 -962,-1462 -714,-131 -1439,310 -1620,986"/>
   </g>
   <g class="spi10">
    <path class="spiral fil0 str1" d="M1332 1811c-45,169 63,333 241,366 178,33 360,-78 405,-247 91,-338 -125,-665 -482,-731 -356,-65 -719,155 -809,493 -136,507 187,998 722,1097 535,98 1078,-233 1214,-740 182,-675 -249,-1330 -962,-1462 -714,-131 -1439,310 -1620,986"/>
   </g>

   <g class="tri1">
    <polygon class="triangle fil0 str1" points="1474,4 2945,2551 3,2551"/>
   </g>
   <g class="tri2">
    <polygon class="triangle fil0 str2" points="1474,4 2945,2551 3,2551"/>
   </g>
   <g class="tri3">
    <polygon class="triangle fil0 str3" points="1474,4 2945,2551 3,2551"/>
   </g>
   <g class="tri4">
    <polygon class="triangle fil0 str4" points="1474,4 2945,2551 3,2551"/>
   </g>
   <g class="tri5">
    <polygon class="triangle fil0 str3" points="1474,4 2945,2551 3,2551"/>
   </g>
   <g class="tri6">
    <polygon class="triangle fil0 str4" points="1474,4 2945,2551 3,2551"/>
   </g>
   <g class="tri7">
    <polygon class="triangle fil0 str2" points="1474,4 2945,2551 3,2551"/>
   </g>
   <g class="tri8">
    <polygon class="triangle fil0 str1" points="1474,4 2945,2551 3,2551"/>
   </g>

   <g class="he1">
    <path class="heart fil0 str2" d="M1448 3085c14,15 38,15 52,0 107,-107 225,-206 342,-304 57,-48 114,-96 171,-145 215,-187 444,-407 556,-675 76,-181 91,-366 51,-558 -30,-144 -99,-280 -209,-380 -82,-74 -182,-124 -292,-139 -115,-15 -227,9 -329,64 -121,66 -216,171 -289,287l-27 42 -27 -42c-73,-116 -168,-221 -290,-287 -101,-55 -214,-79 -328,-64 -110,15 -210,65 -292,139 -110,100 -179,236 -209,380 -40,192 -25,377 51,558 112,268 341,488 556,675 57,49 114,97 171,145 117,98 234,197 342,304z"/>
   </g>
   <g class="he2">
    <path class="heart fil0 str3" d="M1448 3085c14,15 38,15 52,0 107,-107 225,-206 342,-304 57,-48 114,-96 171,-145 215,-187 444,-407 556,-675 76,-181 91,-366 51,-558 -30,-144 -99,-280 -209,-380 -82,-74 -182,-124 -292,-139 -115,-15 -227,9 -329,64 -121,66 -216,171 -289,287l-27 42 -27 -42c-73,-116 -168,-221 -290,-287 -101,-55 -214,-79 -328,-64 -110,15 -210,65 -292,139 -110,100 -179,236 -209,380 -40,192 -25,377 51,558 112,268 341,488 556,675 57,49 114,97 171,145 117,98 234,197 342,304z"/>
   </g>
   <g class="he3">
    <path class="heart fil0 str4" d="M1448 3085c14,15 38,15 52,0 107,-107 225,-206 342,-304 57,-48 114,-96 171,-145 215,-187 444,-407 556,-675 76,-181 91,-366 51,-558 -30,-144 -99,-280 -209,-380 -82,-74 -182,-124 -292,-139 -115,-15 -227,9 -329,64 -121,66 -216,171 -289,287l-27 42 -27 -42c-73,-116 -168,-221 -290,-287 -101,-55 -214,-79 -328,-64 -110,15 -210,65 -292,139 -110,100 -179,236 -209,380 -40,192 -25,377 51,558 112,268 341,488 556,675 57,49 114,97 171,145 117,98 234,197 342,304z"/>
   </g>
   <g class="he4">
    <path class="heart fil0 str5" d="M1448 3085c14,15 38,15 52,0 107,-107 225,-206 342,-304 57,-48 114,-96 171,-145 215,-187 444,-407 556,-675 76,-181 91,-366 51,-558 -30,-144 -99,-280 -209,-380 -82,-74 -182,-124 -292,-139 -115,-15 -227,9 -329,64 -121,66 -216,171 -289,287l-27 42 -27 -42c-73,-116 -168,-221 -290,-287 -101,-55 -214,-79 -328,-64 -110,15 -210,65 -292,139 -110,100 -179,236 -209,380 -40,192 -25,377 51,558 112,268 341,488 556,675 57,49 114,97 171,145 117,98 234,197 342,304z"/>
   </g>
   <g class="he5">
    <path class="heart fil0 str1" d="M1448 3085c14,15 38,15 52,0 107,-107 225,-206 342,-304 57,-48 114,-96 171,-145 215,-187 444,-407 556,-675 76,-181 91,-366 51,-558 -30,-144 -99,-280 -209,-380 -82,-74 -182,-124 -292,-139 -115,-15 -227,9 -329,64 -121,66 -216,171 -289,287l-27 42 -27 -42c-73,-116 -168,-221 -290,-287 -101,-55 -214,-79 -328,-64 -110,15 -210,65 -292,139 -110,100 -179,236 -209,380 -40,192 -25,377 51,558 112,268 341,488 556,675 57,49 114,97 171,145 117,98 234,197 342,304z"/>
   </g>
   <g class="he6">
    <path class="heart fil0 str5" d="M1448 3085c14,15 38,15 52,0 107,-107 225,-206 342,-304 57,-48 114,-96 171,-145 215,-187 444,-407 556,-675 76,-181 91,-366 51,-558 -30,-144 -99,-280 -209,-380 -82,-74 -182,-124 -292,-139 -115,-15 -227,9 -329,64 -121,66 -216,171 -289,287l-27 42 -27 -42c-73,-116 -168,-221 -290,-287 -101,-55 -214,-79 -328,-64 -110,15 -210,65 -292,139 -110,100 -179,236 -209,380 -40,192 -25,377 51,558 112,268 341,488 556,675 57,49 114,97 171,145 117,98 234,197 342,304z"/>
   </g>
   <g class="he7">
    <path class="heart fil0 str2" d="M1448 3085c14,15 38,15 52,0 107,-107 225,-206 342,-304 57,-48 114,-96 171,-145 215,-187 444,-407 556,-675 76,-181 91,-366 51,-558 -30,-144 -99,-280 -209,-380 -82,-74 -182,-124 -292,-139 -115,-15 -227,9 -329,64 -121,66 -216,171 -289,287l-27 42 -27 -42c-73,-116 -168,-221 -290,-287 -101,-55 -214,-79 -328,-64 -110,15 -210,65 -292,139 -110,100 -179,236 -209,380 -40,192 -25,377 51,558 112,268 341,488 556,675 57,49 114,97 171,145 117,98 234,197 342,304z"/>
   </g>
   <g class="he8">
    <path class="heart fil0 str3" d="M1448 3085c14,15 38,15 52,0 107,-107 225,-206 342,-304 57,-48 114,-96 171,-145 215,-187 444,-407 556,-675 76,-181 91,-366 51,-558 -30,-144 -99,-280 -209,-380 -82,-74 -182,-124 -292,-139 -115,-15 -227,9 -329,64 -121,66 -216,171 -289,287l-27 42 -27 -42c-73,-116 -168,-221 -290,-287 -101,-55 -214,-79 -328,-64 -110,15 -210,65 -292,139 -110,100 -179,236 -209,380 -40,192 -25,377 51,558 112,268 341,488 556,675 57,49 114,97 171,145 117,98 234,197 342,304z"/>
   </g>
  
 </g>
</svg>
