<?xml version="1.0" encoding="UTF-8"?>
<!DOCTYPE svg PUBLIC "-//W3C//DTD SVG 1.1//EN" "http://www.w3.org/Graphics/SVG/1.1/DTD/svg11.dtd">
<!-- Creator: CorelDRAW X8 -->
<svg xmlns="http://www.w3.org/2000/svg" xml:space="preserve" width="12.6042in" height="3.98346in" version="1.1" style="shape-rendering:geometricPrecision; text-rendering:geometricPrecision; image-rendering:optimizeQuality; fill-rule:evenodd; clip-rule:evenodd"
viewBox="0 0 4929 1558"
 xmlns:xlink="http://www.w3.org/1999/xlink">
 <defs>
  <style type="text/css">
   <![CDATA[
    .fil1 {fill:white;}
    .fil2 {fill:black;fill-opacity:0.2;}
    .fil3 {fill:url(#id0);}
    .fil0 {fill:url(#id1);}
    .fnt3 {font-weight:bold;font-size:97.77px;font-family:'Century Gothic'}
    .fnt2 {font-weight:bold;font-size:136.063px;font-family:'Century Gothic'}
    .fnt0 {
        font-weight:bold;font-size:198.345px;font-family:'Century Gothic';
        animation: fade_text 2s;
    }
    .fnt1 {
        font-weight:bold;font-size:89.4895px;font-family:'Century Gothic';
        animation: floatdown_text 2s;
    }
    .fnt2,.fnt3 {
        animation: floatleft_text 2s;
    }
    .num3{
        animation: fade2_text 3s;
    }
    .tag{
        animation: wiperight_text 2s;
    }
    @keyframes fade_text{
      0%{opacity: 0;}
      100%{opacity: 1;}
    }
    @keyframes fade2_text{
      0%,50%{opacity: 0;}
      100%{opacity: 1;}
    }
    @keyframes floatdown_text{
      0%,50%{transform: translateY(-5%); opacity: 0;}
      100%{transform: translateY(0%); opacity: 1;}
    }
    @keyframes floatleft_text{
      0%,50%{transform: translateX(-5%); opacity: 0;}
      100%{transform: translateX(0%); opacity: 1;}
    }
    @keyframes wiperight_text{
      0%{transform: translateX(20%);}
      100%{transform: translateX(0%);}
    }
   ]]>
  </style>
  <radialGradient id="id0" gradientUnits="userSpaceOnUse" gradientTransform="matrix(3.79334 3.48339 -2.84 4.65271 -11308 -14549)" cx="4111.41" cy="62.1632" r="486.799" fx="4111.41" fy="62.1632">
   <stop offset="0" style="stop-opacity:1; stop-color:#9E009E"/>
   <stop offset="1" style="stop-opacity:1; stop-color:#06068F"/>
  </radialGradient>
  <radialGradient id="id1" gradientUnits="userSpaceOnUse" gradientTransform="matrix(2.05776 0.572256 -0.473309 1.31063 -1564 -846)" cx="1478.77" cy="0" r="2464.62" fx="1478.77" fy="0">
   <stop offset="0" style="stop-opacity:1; stop-color:#51BDA5"/>
   <stop offset="1" style="stop-opacity:1; stop-color:#06068F"/>
  </radialGradient>
 </defs>
 <g id="Layer_x0020_1">
  <metadata id="CorelCorpID_0Corel-Layer"/>
  <path class="fil0" d="M0 1343l0 -1343 4929 0c0,448 0,895 0,1343 -1643,0 -3286,0 -4929,0z">
    <animate id="path" attributeName="d" from="M0 1343l0 -1343 4929 0c0,448 0,895 0,1343 -1643,0 -3286,0 -4929,0z" to="M0 1343l0 -1343 4929 0c0,448 0,895 0,1343 -1643,287 -3286,286 -4929,0z" dur="0.5s" fill="freeze"/>
  </path>
  <text x="440" y="521"  class="fil1 fnt0">Psychic Chat, </text>
  <text x="440" y="762"  class="fil1 fnt0">Tarot, Astrology &amp; More</text>
  <text x="448" y="947"  class="fil1 fnt1">Find your way to love and happiness</text>
  <g class="tag">
    <path class="fil1" d="M4929 196l-552 0c-263,0 -478,215 -478,477l0 0c0,262 215,477 478,477l552 0 0 -954z"/>
    <path class="fil2" d="M4929 196l-552 0c-263,0 -478,215 -478,477 0,262 215,477 478,477l552 0 0 22 -552 0c-138,0 -262,-56 -353,-147 -90,-90 -146,-215 -146,-352 0,-137 56,-262 146,-352 91,-91 215,-147 353,-147l552 0 0 22z"/>
    <path class="fil3" d="M4929 249l-549 0c-117,0 -223,48 -300,124 -77,77 -124,183 -124,300 0,117 47,223 124,300 77,77 183,124 300,124l549 0 0 -848z"/>
  </g>
  <path class="fil1 num3" d="M4126 826c3,0 7,3 14,9 19,19 44,28 74,28 27,0 50,-11 70,-32 20,-22 29,-47 29,-76 0,-23 -5,-41 -16,-56 -10,-14 -24,-21 -42,-21 -6,0 -15,1 -28,3 -2,1 -5,1 -7,1 -5,1 -8,-2 -8,-9 0,-4 5,-7 14,-12 19,-8 35,-21 49,-40 14,-19 21,-36 21,-52 0,-19 -6,-34 -17,-46 -12,-12 -27,-18 -44,-18 -19,0 -37,6 -54,20l-16 14 -7 5 -4 2c-4,0 -6,-2 -5,-7 0,-8 7,-19 22,-33 28,-26 58,-39 91,-39 25,0 47,8 65,23 17,15 26,33 26,55 0,13 -4,25 -12,38 -9,12 -23,27 -42,44 -2,1 -3,2 -3,3 0,3 3,5 10,6 23,2 42,11 56,28 13,16 20,38 20,64 0,44 -15,81 -46,112 -31,31 -69,47 -113,47 -17,0 -34,-4 -52,-11 -17,-7 -31,-15 -42,-26 -7,-8 -11,-13 -11,-17 -1,-5 2,-7 8,-7z"/>
  <text x="4459" y="668"  class="fil1 fnt2">Free</text>
  <text x="4454" y="787"  class="fil1 fnt3">Minutes</text>
 </g>
</svg>
