<?xml version="1.0" encoding="UTF-8"?>
<!DOCTYPE svg PUBLIC "-//W3C//DTD SVG 1.1//EN" "http://www.w3.org/Graphics/SVG/1.1/DTD/svg11.dtd">
<!-- Creator: CorelDRAW X8 -->
<svg xmlns="http://www.w3.org/2000/svg" id="horoscope" xml:space="preserve" version="1.1" style="shape-rendering:geometricPrecision; text-rendering:geometricPrecision; image-rendering:optimizeQuality; fill-rule:evenodd; clip-rule:evenodd"
viewBox="0 0 107426 102972"
 xmlns:xlink="http://www.w3.org/1999/xlink">
 <defs>
  <style type="text/css">
   <![CDATA[
    .fil0 {
        fill:white;
        transform-origin: center 30%;
        transform: scale(0.5) translate(0,0);
        transition: all 0.3s;
    }
    #horoscope:hover .fil0{
        transform: scale(1.4) translate(30%,-45%);
        animation: horos_anime 10s infinite linear;
        animation-delay: 0.3s;
        transform-origin: center;
    }
    @keyframes horos_anime{
        0%,100%{transform: scale(1.4) translate(30%,-45%) rotate(0deg); opacity: 0.2;}
        10%{transform: scale(1.4) translate(30%,-45%) rotate(45deg); opacity: 1;}
        20%{transform: scale(1.4) translate(30%,-45%) rotate(90deg); opacity: 0.2;}
        30%{transform: scale(1.4) translate(30%,-45%) rotate(135deg); opacity: 1;}
        40%{transform: scale(1.4) translate(30%,-45%) rotate(180deg); opacity: 0.2;}
        50%{transform: scale(1.4) translate(30%,-45%) rotate(225deg); opacity: 1;}
        60%{transform: scale(1.4) translate(30%,-45%) rotate(270deg); opacity: 0.2;}
        70%{transform: scale(1.4) translate(30%,-45%) rotate(315deg); opacity: 1;}
        80%{transform: scale(1.4) translate(30%,-45%) rotate(360deg); opacity: 0.5;}
    }
   ]]>
  </style>
 </defs>
 <g>
  <path class="fil0" d="M105186 46448c0,-29 -5,-56 -15,-79 -9,-23 -24,-45 -43,-64l-1 -2c-18,-18 -40,-33 -65,-43 -23,-9 -49,-15 -79,-15 -29,0 -56,6 -79,15 -24,10 -46,25 -64,43 0,1 -1,2 -2,2 -18,18 -33,40 -43,64 -9,23 -14,50 -14,79 0,29 5,56 14,79 10,24 25,46 43,64l2 1c19,19 41,34 65,44 23,9 49,15 78,15 29,0 56,-6 79,-15 24,-10 46,-25 65,-44l1 -1c19,-18 34,-41 43,-64 10,-23 15,-50 15,-79zm-49674 -16222l19260 19260c133,-77 276,-140 426,-186l1 0c193,-59 396,-91 606,-91 279,0 546,56 790,157 255,106 483,259 673,449 190,190 344,419 449,673 101,244 157,512 157,791 0,279 -56,546 -157,791 -105,253 -259,481 -449,671l0 1c-190,190 -418,344 -673,449 -244,101 -511,157 -790,157 -210,0 -413,-31 -606,-91l-1 0c-150,-45 -293,-108 -426,-185l-19260 19260c77,133 140,276 186,426 59,193 91,397 91,606 0,279 -56,547 -157,791 -106,254 -259,482 -450,672l0 1c-190,190 -418,343 -672,449 -245,101 -512,157 -791,157 -279,0 -546,-56 -791,-157 -253,-105 -481,-259 -672,-449l0 -1c-191,-190 -344,-418 -449,-672 -102,-244 -158,-512 -158,-791 0,-209 32,-413 92,-606 45,-150 108,-293 185,-426l-19260 -19260c-133,77 -276,139 -426,185 -193,60 -397,91 -606,91 -279,0 -547,-56 -791,-157 -254,-105 -482,-259 -672,-449l-1 -1c-190,-190 -344,-418 -449,-671 -101,-245 -157,-512 -157,-791 0,-279 56,-547 157,-791 106,-254 259,-483 449,-673l1 0c190,-190 418,-344 672,-449 244,-101 512,-157 791,-157 209,0 413,32 606,91 150,46 293,109 426,186l19260 -19260c-77,-134 -140,-276 -185,-426l0 -1c-60,-193 -92,-396 -92,-606 0,-279 56,-546 158,-790 105,-255 259,-483 449,-673l0 0c191,-190 419,-344 672,-449 245,-101 512,-157 791,-157 279,0 546,56 791,157 254,105 482,259 672,449 190,190 344,418 450,673 101,244 157,511 157,790 0,210 -32,413 -91,606l0 1c-46,150 -109,292 -186,426zm-22086 22086l19260 19259c134,-77 277,-139 426,-185l1 0c193,-59 397,-91 606,-91 209,0 413,32 606,91 150,46 293,108 427,185l19260 -19259c-78,-134 -140,-277 -186,-426l0 -1c-59,-193 -91,-397 -91,-606 0,-209 32,-413 91,-606 46,-150 109,-293 186,-427l-19260 -19260c-134,77 -277,140 -427,186 -193,59 -397,91 -606,91 -209,0 -413,-32 -606,-91l-1 0c-149,-46 -292,-109 -426,-186l-19260 19260c78,134 140,277 186,427 59,193 91,397 91,606 0,209 -32,413 -91,606l0 1c-46,149 -108,292 -186,426zm-1089 -1736c-92,-93 -202,-167 -322,-217 -117,-48 -246,-75 -381,-75 -136,0 -264,27 -381,75l0 0c-121,50 -230,124 -323,217 -92,92 -166,201 -216,322 -48,116 -75,245 -75,381 0,135 27,264 75,380l0 1c50,120 124,230 216,322 93,92 202,167 323,216l0 0c117,49 245,75 381,75 135,0 264,-26 381,-75 120,-49 230,-124 322,-216 92,-92 166,-202 216,-322l0 -1c48,-116 75,-245 75,-380 0,-136 -27,-265 -75,-381 -50,-121 -124,-230 -216,-322zm22085 22085c-92,-92 -201,-166 -322,-216 -116,-48 -245,-75 -381,-75 -135,0 -264,27 -380,75l-1 0c-120,50 -230,124 -322,216 -92,92 -167,202 -216,322 -49,117 -75,245 -75,381 0,136 26,264 75,381l0 0c49,121 123,230 216,323 92,92 202,166 322,216l1 0c116,48 245,75 380,75 136,0 265,-27 381,-75 121,-50 230,-124 322,-216 93,-93 167,-202 217,-323l0 0c48,-117 75,-245 75,-381 0,-136 -27,-264 -75,-381 -50,-120 -124,-230 -217,-322zm22086 -22085c-92,-93 -202,-167 -322,-217 -117,-48 -246,-75 -381,-75 -136,0 -264,27 -381,75l0 0c-121,50 -230,124 -323,217 -92,92 -166,201 -216,322 -48,116 -75,245 -75,381 0,135 27,264 75,380l0 1c50,120 124,230 216,322 93,92 202,167 323,216l0 0c117,49 245,75 381,75 135,0 264,-26 381,-75 120,-49 230,-124 322,-216 92,-92 166,-202 216,-322l0 -1c48,-116 75,-245 75,-380 0,-136 -27,-265 -75,-381 -50,-121 -124,-230 -216,-322zm-22086 -22086c-92,-92 -201,-166 -322,-216 -116,-48 -245,-75 -381,-75 -135,0 -264,27 -380,75l-1 0c-120,50 -230,124 -322,216 -92,92 -167,202 -216,322 -49,117 -75,246 -75,381 0,136 26,264 75,381l0 0c49,121 123,230 216,323 92,92 202,166 322,216l1 0c116,48 245,75 380,75 136,0 265,-27 381,-75 121,-50 230,-124 322,-216 93,-93 167,-202 217,-323l0 0c48,-117 75,-245 75,-381 0,-135 -27,-264 -75,-381 -50,-120 -124,-230 -217,-322zm-16523 -26622c0,-29 -6,-55 -15,-78 -10,-24 -26,-46 -45,-66 -19,-19 -42,-34 -65,-44 -23,-10 -50,-15 -78,-15 -30,0 -56,5 -79,15 -19,7 -36,18 -52,31l-13 13c-19,20 -35,42 -44,66 -10,23 -15,49 -15,78 0,29 5,55 15,78 10,24 25,47 43,66l1 0c19,19 41,34 65,44 23,10 50,15 79,15 28,0 55,-5 78,-15 23,-10 46,-25 65,-44 19,-19 35,-41 45,-66 9,-23 15,-49 15,-78zm-5085 0c0,-29 -5,-55 -15,-78 -10,-24 -25,-46 -44,-66 -19,-19 -41,-34 -66,-44 -23,-10 -49,-15 -78,-15 -29,0 -56,5 -79,15 -18,7 -36,18 -52,31l-13 13c-19,20 -34,42 -44,66 -10,23 -15,49 -15,78 0,29 5,55 15,78 10,25 25,47 44,66 20,19 42,34 66,44 23,10 49,15 78,15 29,0 55,-5 78,-15 25,-10 47,-25 66,-44 19,-20 34,-42 44,-66 10,-23 15,-49 15,-78zm554 -758c62,62 117,132 163,210 22,36 42,75 59,114l3126 0c18,-39 38,-78 60,-114 46,-78 101,-148 162,-210l1 0c99,-98 217,-178 348,-232 127,-52 265,-81 409,-81 144,0 282,29 409,81 132,55 250,134 348,232 61,62 116,132 162,210 22,36 42,75 60,114l3127 0c17,-39 37,-77 59,-114 46,-77 100,-147 162,-209 99,-98 217,-178 348,-233 127,-52 265,-81 409,-81 144,0 282,29 409,81 132,55 250,134 348,232 62,62 117,132 163,210 22,36 41,74 59,114l3128 0c17,-39 37,-77 59,-114 46,-77 101,-147 162,-209 100,-98 218,-178 348,-233 127,-52 265,-81 409,-81 144,0 283,29 410,81 132,55 250,134 348,232 98,99 178,217 232,349 53,127 82,265 82,409 0,144 -29,282 -82,409 -54,132 -134,250 -232,348l-51 47c94,325 176,643 252,952 86,349 164,685 238,1009 82,359 161,702 247,1037 55,217 111,422 171,614 179,-167 363,-307 552,-413 272,-154 553,-239 842,-239 412,0 759,87 1040,230 319,163 551,400 695,669l17 29c52,102 92,211 119,323 27,112 41,227 41,343 1,116 -12,230 -38,341 -26,110 -65,218 -118,324 -136,272 -359,512 -666,677 -270,146 -605,233 -1001,233 -447,0 -813,-108 -1119,-306 -229,-149 -422,-346 -587,-586 -345,535 -684,1181 -1012,1869 -382,799 -743,1642 -1083,2433l-97 227c84,92 153,199 202,317 53,127 82,265 82,410 0,144 -29,282 -82,409 -54,132 -134,250 -232,348l-1 0c-99,99 -216,178 -347,232 -127,53 -265,82 -410,82 -144,0 -282,-29 -409,-82l0 0c-131,-54 -249,-133 -347,-232l-1 0c-67,-67 -126,-144 -174,-229 -24,-42 -45,-85 -63,-130l-3076 0c-18,39 -37,77 -59,114 -46,77 -101,148 -162,209l-1 0c-99,98 -217,178 -348,232 -126,53 -264,82 -408,82 -139,0 -273,-27 -397,-77l-1 0c-126,-50 -241,-125 -338,-217l-22 -20c-98,-98 -178,-216 -232,-348 -53,-127 -82,-265 -82,-409 0,-144 29,-282 82,-409 54,-133 134,-251 232,-349 98,-98 216,-177 348,-232 127,-52 265,-81 409,-81 145,0 283,29 409,81 132,55 250,135 349,233l0 1c62,62 116,132 162,208 22,37 41,75 59,113l3108 0c16,-33 34,-65 54,-97 43,-70 94,-133 151,-190 98,-98 216,-178 348,-232 124,-52 260,-81 402,-82l95 -221c369,-860 762,-1775 1177,-2625 402,-823 827,-1592 1278,-2205 -113,-299 -212,-627 -305,-978 -102,-387 -197,-802 -298,-1237l-1 -6c-137,-599 -285,-1241 -470,-1889l-54 -8 -37 -6 -1444 2048c36,62 67,128 90,197 37,109 57,225 57,345 0,144 -29,283 -81,410 -55,131 -134,249 -233,347 -98,99 -216,178 -348,233 -126,52 -265,81 -409,81 -54,0 -110,-4 -168,-14l-33 -5 -1388 1967c38,63 69,129 94,199 38,111 59,229 59,351 0,143 -29,282 -81,409 -55,132 -135,250 -233,348 -98,98 -216,178 -348,232 -127,53 -265,82 -409,82 -144,0 -282,-29 -409,-82 -131,-54 -249,-134 -348,-234 -99,-98 -178,-216 -232,-347 -53,-126 -82,-264 -82,-408 0,-121 21,-239 59,-350 25,-71 56,-138 94,-200l-1414 -2005 -37 7c-58,10 -116,15 -173,15 -144,0 -282,-29 -408,-82l-1 0c-130,-54 -248,-133 -347,-232 -99,-99 -179,-217 -234,-348 -52,-127 -81,-265 -81,-409 0,-121 21,-239 59,-351 25,-71 56,-138 93,-200l-1413 -2004 -37 7c-58,9 -117,14 -173,14 -144,0 -283,-29 -409,-81l-1 0c-131,-54 -249,-134 -347,-233l-1 0c-92,-92 -168,-201 -222,-323l-3126 0c-17,39 -37,77 -59,114 -46,78 -101,148 -163,209l0 0c-99,99 -217,179 -347,233l-1 0c-127,52 -265,81 -409,81 -144,0 -282,-29 -409,-81l-1 0c-131,-55 -249,-134 -347,-233 -99,-98 -178,-216 -233,-347 -52,-127 -81,-266 -81,-410 0,-144 29,-283 81,-410 55,-132 135,-250 233,-348l0 0c100,-98 218,-178 348,-232 127,-52 265,-81 409,-81 144,0 283,29 410,81 131,55 249,134 347,232zm8063 12019c0,-29 -5,-56 -15,-79 -10,-24 -25,-46 -44,-66 -19,-19 -41,-34 -65,-43 -23,-10 -49,-15 -79,-15 -28,0 -55,5 -78,15 -24,10 -46,25 -65,44 -19,19 -35,42 -45,65 -9,24 -14,50 -14,79 0,29 5,55 14,78 10,24 26,46 45,65l7 9c18,16 39,29 61,37 22,9 48,14 75,14 30,0 56,-6 79,-15l1 0c18,-7 35,-18 51,-31l13 -14c19,-19 35,-41 45,-66 7,-16 12,-34 14,-51l0 -26zm5049 36c0,-29 -5,-56 -15,-79 -10,-23 -25,-46 -44,-65 -19,-19 -42,-35 -65,-44 -24,-10 -50,-15 -79,-15 -28,0 -55,5 -78,15 -24,10 -47,25 -66,44 -19,19 -34,42 -44,65 -9,23 -15,50 -15,79 0,28 6,55 15,78 10,24 25,47 44,65 20,19 42,34 67,45 23,9 49,14 77,14 29,0 55,-5 79,-14 23,-10 46,-26 65,-45 19,-18 34,-41 44,-65 10,-23 15,-50 15,-78zm-6040 -7692c0,-29 -5,-56 -14,-79 -10,-24 -25,-47 -45,-66 -19,-19 -41,-34 -64,-44 -23,-9 -50,-14 -79,-14 -29,0 -55,5 -78,15 -24,9 -46,25 -66,44 -19,19 -34,41 -44,65 -10,23 -15,50 -15,79 0,29 5,56 14,79 11,24 25,46 44,64l0 0c20,19 42,35 66,44 23,10 50,15 79,15 29,0 56,-5 79,-14 17,-8 34,-17 48,-29l16 -16c20,-19 35,-42 45,-65 9,-23 14,-50 14,-78zm716 -551c11,19 22,38 32,58 10,19 20,38 28,58l3108 0c12,-24 24,-47 37,-70l1 0c11,-19 23,-38 35,-56l-1407 -1994 -37 6c-58,10 -116,15 -173,15 -57,0 -115,-5 -173,-15l-37 -6 -1414 2004zm61 984c-9,20 -18,40 -28,59 -11,20 -21,39 -33,58l1414 2004 37 -7c58,-9 116,-14 173,-14 57,0 115,5 173,14l37 7 1383 -1960c-16,-27 -31,-54 -45,-81 -13,-26 -25,-53 -36,-81l-3075 1zm-1189 -1484l37 -6c58,-10 116,-15 173,-15 57,0 115,5 173,15l37 7 1414 -2005c-12,-19 -23,-38 -33,-57 -10,-19 -19,-39 -28,-59l-3126 0c-9,20 -18,40 -28,59 -10,19 -21,39 -32,57l1413 2004zm5462 1086c0,-29 -6,-55 -15,-78 -10,-24 -25,-46 -45,-66 -19,-19 -41,-34 -65,-44 -23,-10 -50,-15 -78,-15 -29,0 -55,5 -78,15 -24,10 -46,25 -66,44 -19,20 -34,42 -44,66 -10,23 -15,49 -15,78 0,29 5,55 15,78 10,24 25,46 44,65 20,20 42,35 66,45 23,10 49,15 78,15 28,0 55,-5 78,-15 24,-10 46,-25 65,-45 20,-19 35,-41 45,-65 9,-23 15,-49 15,-78zm-359 -1059l14 -2c49,-7 97,-10 142,-10 59,0 119,5 179,15l41 8 1440 -2042c-11,-19 -22,-38 -32,-57 -10,-19 -19,-39 -28,-59l-3128 0c-9,20 -18,39 -28,58l0 1c-10,20 -21,39 -32,58l1432 2030zm2878 -2437c19,-20 35,-42 44,-66 10,-23 15,-49 15,-78 0,-29 -5,-55 -15,-79 -9,-23 -25,-46 -44,-65l0 -1c-18,-18 -40,-33 -65,-43 -23,-10 -50,-15 -79,-15 -29,0 -55,5 -78,15 -25,10 -47,24 -65,43l0 0c-19,20 -34,42 -44,66 -10,23 -15,50 -15,79 0,28 5,53 14,75 8,22 21,43 37,61l8 7c20,20 42,35 65,45l1 0c23,9 49,15 77,15 28,0 54,-5 76,-14 22,-8 43,-21 61,-37l7 -8zm-5085 0c19,-20 34,-42 44,-66 9,-23 15,-49 15,-78 0,-29 -6,-55 -15,-79 -10,-23 -25,-46 -44,-65l0 -1c-19,-18 -41,-33 -66,-43 -23,-10 -49,-15 -78,-15 -29,0 -56,5 -79,15 -24,10 -46,24 -64,43l0 0c-20,20 -35,42 -45,66 -9,23 -15,50 -15,79 0,28 5,53 14,75 9,23 21,44 37,61l9 7c19,20 41,35 65,45l0 0c24,9 50,15 78,15 28,0 53,-5 76,-14 22,-8 42,-21 60,-37l8 -8zm59 7065c0,-30 -5,-57 -15,-79 -10,-25 -25,-47 -43,-65 -19,-19 -41,-34 -66,-44 -23,-10 -50,-15 -79,-15 -29,0 -56,5 -79,15 -17,7 -34,16 -48,28l-16 16c-20,20 -35,42 -45,65 -9,24 -15,50 -15,79 0,29 6,55 15,79 10,24 25,46 45,65 18,19 41,34 64,44 23,9 50,14 79,14 29,0 55,-5 78,-14 25,-10 47,-25 66,-44l0 -1c19,-19 34,-41 44,-65 9,-23 15,-50 15,-78zm6840 -1931c127,238 272,428 443,561 189,146 416,226 697,226 233,0 423,-44 570,-118 154,-77 262,-187 324,-311l-1 0c22,-43 38,-88 49,-134 11,-47 17,-95 16,-141l0 0c0,-46 -6,-93 -17,-140 -11,-45 -29,-91 -52,-136l-10 -21c-68,-123 -184,-233 -349,-311 -160,-75 -366,-120 -619,-120 -177,0 -357,65 -539,184 -169,110 -341,267 -512,461zm-39101 60364c0,-25 -4,-49 -13,-70 -8,-20 -22,-40 -39,-58 -18,-17 -38,-31 -58,-39 -21,-9 -45,-13 -70,-13 -26,0 -50,4 -70,13 -22,9 -42,22 -58,38 -17,17 -31,38 -40,60 -8,20 -13,44 -13,69 0,26 5,50 13,70 9,22 22,42 39,58l1 1c16,17 36,30 58,39 20,8 44,13 70,13 25,0 49,-5 70,-13 20,-9 40,-23 58,-40l8 -7c14,-16 25,-34 32,-54 8,-19 12,-42 12,-67zm-2454 -3479c0,-26 -5,-49 -13,-70 -9,-22 -22,-41 -38,-58l-2 -1c-16,-16 -36,-29 -58,-38 -20,-9 -43,-13 -69,-13 -26,0 -50,4 -70,13 -22,9 -42,22 -58,38l-1 2c-17,16 -30,35 -39,57 -8,21 -13,44 -13,70 0,26 5,50 13,70 9,22 22,42 39,58l1 1c16,16 36,30 58,39 20,8 44,13 70,13 26,0 49,-5 69,-13 22,-9 42,-23 59,-39l0 -1c17,-16 30,-36 39,-58 9,-20 13,-44 13,-70zm724 -530c9,16 18,32 26,48l24 48 2981 0c11,-20 21,-40 33,-59l-1 -1c9,-15 19,-31 29,-46l-1346 -1909 -30 5c-57,9 -112,14 -166,14 -54,0 -109,-5 -166,-14l-30 -5 -1354 1919zm50 964l-24 49 -26 47 1354 1919 30 -5c57,-9 112,-14 166,-14 54,0 109,5 166,14l30 5 1324 -1877c-14,-22 -26,-46 -38,-70 -12,-23 -22,-45 -32,-69l-2950 1zm-758 596l-31 5c-56,9 -112,14 -165,14 -141,0 -277,-29 -401,-80 -127,-53 -243,-131 -339,-227l-2 -1c-96,-96 -174,-212 -227,-341 -52,-124 -80,-259 -80,-400 0,-118 20,-233 56,-339 23,-67 53,-131 89,-191l-1353 -1919 -31 5c-57,9 -112,14 -166,14 -141,0 -276,-28 -401,-80 -129,-54 -245,-131 -341,-227 -96,-96 -174,-212 -227,-342 -52,-124 -80,-259 -80,-400 0,-117 19,-231 55,-337 23,-67 52,-130 87,-190l-1901 -2694c-13,-17 -27,-34 -42,-51 -16,-18 -34,-37 -55,-57l0 -1c-94,-94 -195,-160 -300,-203 -111,-45 -226,-64 -341,-59 -117,4 -237,31 -355,78 -125,49 -246,119 -358,206 -27,21 -53,42 -77,63l0 1c-27,23 -51,45 -71,64l-16 18c-112,111 -197,240 -254,378 -59,143 -89,297 -89,451 0,151 29,302 86,443 55,135 136,262 242,372 9,8 21,18 31,32 16,15 33,30 50,45l24 -25c96,-96 212,-174 341,-228 124,-51 260,-80 401,-80 141,0 276,29 400,80 130,54 246,132 342,228 96,96 174,211 227,341 52,124 80,260 80,400 0,141 -28,277 -80,401 -53,130 -131,245 -227,341 -96,96 -212,174 -342,228 -124,51 -259,80 -400,80 -141,0 -277,-29 -401,-80 -129,-54 -245,-132 -341,-228 -91,-91 -166,-199 -218,-318 -38,-86 -65,-177 -78,-273 -59,-35 -117,-74 -174,-115 -81,-60 -159,-127 -232,-201l1 -1 -7 -4 -15 -16c-188,-194 -331,-416 -427,-652 -101,-246 -151,-508 -151,-770 0,-265 52,-530 156,-781 97,-235 241,-456 430,-649 11,-14 24,-25 33,-33 35,-34 71,-67 108,-100 39,-34 79,-66 118,-97 181,-139 379,-252 586,-332 202,-78 414,-124 627,-132 233,-9 467,27 692,118 188,75 369,188 537,344l4 0 52 52c27,27 57,59 91,98 30,35 60,71 89,109l1910 2706 32 -5c57,-10 114,-15 169,-15 141,0 277,29 401,80 129,54 245,132 341,228l0 1c60,60 114,128 157,200l0 1c21,34 39,69 56,106l2998 0c17,-37 35,-73 56,-107 45,-74 98,-142 157,-201l53 -52 5 0c84,-73 180,-132 283,-175 124,-52 260,-80 401,-80 141,0 277,28 401,80 129,53 245,131 340,227 60,59 112,127 157,202 21,33 40,69 56,106l3000 0c17,-37 36,-73 56,-107 44,-72 97,-140 158,-200 95,-97 211,-174 340,-228 124,-52 260,-80 401,-80 49,0 98,4 148,11l18 3 1905 -2701c28,-36 58,-72 88,-107 34,-39 65,-72 93,-100l1 0c182,-182 382,-313 591,-397 225,-90 459,-126 693,-117 213,8 424,54 626,132 207,80 406,193 586,332 39,31 79,63 118,97 38,33 74,67 109,101 11,9 25,21 38,38 186,191 328,410 425,643 103,251 155,516 155,781 0,262 -50,524 -151,770 -96,236 -239,458 -427,652l-21 22c-68,68 -139,130 -213,185 -48,37 -98,71 -150,104 -12,95 -36,187 -71,273 -50,120 -121,229 -208,321l-20 23c-96,96 -212,174 -341,227 -124,52 -260,80 -401,80 -141,0 -277,-28 -401,-79 -130,-54 -245,-132 -341,-228l-52 -52 0 -6c-73,-84 -132,-180 -175,-283 -52,-124 -80,-260 -80,-401 0,-140 28,-276 80,-400l0 -1c53,-128 131,-244 227,-340 96,-96 211,-174 341,-227 124,-52 260,-80 401,-80 136,0 267,26 388,75 123,49 235,121 330,211 10,9 20,17 29,27l32 -30c10,-12 20,-21 28,-28 107,-110 187,-237 242,-372 57,-141 86,-292 86,-443 0,-154 -30,-308 -89,-451 -57,-138 -141,-267 -253,-379l-14 -14c-24,-24 -49,-46 -73,-67 -29,-25 -55,-47 -77,-64 -113,-87 -234,-157 -359,-206 -118,-47 -238,-74 -355,-78 -115,-5 -230,14 -342,59 -105,43 -206,110 -301,204 -18,18 -35,36 -51,54l1 0c-18,21 -33,39 -45,53l-1880 2666c39,63 72,130 98,200 40,112 63,232 63,356 0,141 -29,277 -80,401 -54,129 -132,245 -228,340 -96,96 -212,174 -340,227 -124,52 -260,81 -401,81 -54,0 -109,-5 -166,-14l-30 -6 -1384 1963c34,60 63,123 85,188 35,106 55,218 55,334 0,141 -29,276 -80,400 -54,128 -132,244 -229,341 -97,96 -213,174 -340,227 -124,52 -260,80 -401,80 -54,0 -108,-4 -160,-12l0 -1 -26 -4 -1329 1883c36,60 65,124 88,191 37,107 57,221 57,339 0,136 -27,267 -75,388 -50,124 -122,236 -212,331l-21 23c-95,96 -211,174 -340,227 -124,52 -260,80 -401,80 -141,0 -277,-28 -401,-80 -127,-53 -243,-130 -339,-227 -1,0 -2,-1 -2,-2 -96,-96 -174,-212 -227,-339 -52,-124 -80,-260 -80,-401 0,-118 20,-232 56,-339 23,-67 53,-131 88,-191l-1353 -1919zm-392 -2060l30 -5c57,-9 112,-14 166,-14 53,0 109,5 165,14l31 5 1354 -1919 -26 -48 -1 0 -24 -48 -2998 0c-7,17 -15,33 -23,49l-27 48 1353 1918zm5250 1065c0,-27 -4,-50 -13,-71 -8,-21 -22,-41 -39,-57l-1 -2c-16,-16 -35,-29 -57,-38 -21,-9 -45,-14 -71,-14 -25,0 -49,5 -69,13 -22,10 -42,23 -59,40l-8 7c-14,17 -25,35 -33,54 -7,20 -11,43 -11,68 0,26 4,49 13,70 8,21 22,41 38,57 17,17 37,30 59,40 20,8 44,13 70,13 26,0 50,-5 71,-13 22,-10 42,-23 59,-40 16,-16 29,-36 38,-57 9,-21 13,-44 13,-70zm-324 -1039l7 -1c48,-7 94,-10 136,-10 56,0 114,5 171,15l36 6 1379 -1955 -27 -48 -23 -48 -3001 0 -24 48 -26 48 1372 1945zm-7003 -2475c0,-26 -5,-50 -13,-70 -9,-21 -23,-41 -40,-58l0 -1c-17,-16 -36,-30 -58,-39 -21,-8 -44,-13 -70,-13 -26,0 -49,5 -70,13 -21,9 -41,22 -58,40 -17,17 -31,37 -40,58 -8,20 -13,44 -13,70 0,25 5,49 13,70 9,21 23,40 40,58 17,17 37,31 58,39 21,9 44,14 70,14 26,0 49,-5 70,-14 22,-9 41,-22 58,-39l0 0c17,-18 31,-37 40,-58 8,-21 13,-45 13,-70zm-3591 -725c0,-25 -5,-49 -13,-69 -9,-21 -23,-41 -40,-59 -17,-17 -37,-30 -58,-39 -21,-9 -45,-13 -70,-13 -26,0 -49,4 -70,13 -21,9 -41,22 -58,39 -18,18 -31,38 -40,59 -8,20 -13,44 -13,69 0,26 5,50 13,70 9,21 23,41 40,58 17,18 37,31 58,40 21,9 44,13 70,13 25,0 49,-4 70,-13 21,-9 41,-22 58,-40 17,-17 31,-37 40,-58 8,-20 13,-44 13,-70zm16998 0c0,-25 -4,-49 -13,-69 -9,-22 -22,-42 -39,-59l-7 -7c-16,-14 -35,-26 -54,-33 -20,-8 -42,-12 -67,-12 -26,0 -49,5 -69,13 -22,9 -42,23 -59,40 -17,17 -31,37 -40,58 -8,20 -13,44 -13,69 0,26 5,50 13,71 9,21 23,41 39,58 17,16 37,30 59,39 21,8 44,13 70,13 25,0 49,-5 70,-13 20,-9 40,-22 58,-40l8 -7c14,-16 25,-34 33,-53 7,-20 11,-43 11,-68zm-3591 725c0,-26 -4,-50 -13,-71 -9,-21 -22,-41 -38,-57 -1,0 -2,-1 -2,-2 -16,-16 -35,-29 -57,-38 -20,-8 -44,-13 -70,-13 -26,0 -49,5 -70,14 -21,8 -41,22 -58,39 -17,17 -31,37 -39,58 -9,21 -14,44 -14,70 0,26 5,49 13,69 9,22 23,42 39,59l1 0c16,17 36,30 58,39 20,8 44,13 70,13 25,0 49,-5 69,-13 21,-9 41,-22 58,-40 18,-17 31,-37 40,-58 8,-20 13,-44 13,-69zm-4909 0c0,-26 -4,-49 -13,-70 -9,-22 -22,-42 -39,-58 -18,-17 -38,-31 -58,-40 -21,-8 -45,-13 -70,-13 -26,0 -50,5 -70,13 -22,9 -42,22 -58,39 -17,17 -31,37 -40,59 -8,21 -13,44 -13,70 0,26 5,49 13,70l0 0c9,21 22,41 39,58l1 1c16,16 36,30 57,38l1 0c20,9 44,13 70,13 25,0 49,-4 70,-13 20,-9 40,-22 58,-39l8 -8c14,-16 25,-34 32,-53 8,-20 12,-42 12,-67zm11595 27978c0,-26 -5,-50 -14,-71 -8,-21 -22,-40 -39,-58l-11 -12c-14,-12 -31,-22 -50,-29 -19,-7 -42,-11 -67,-11 -26,0 -50,4 -71,13 -22,9 -42,23 -59,40 -16,16 -29,36 -38,57 -9,21 -13,44 -13,70 0,26 4,50 13,70 9,22 22,42 38,58 17,17 37,30 59,40 21,8 45,13 71,13 26,0 50,-5 70,-13 21,-9 41,-22 58,-40l8 -6c14,-17 26,-35 34,-55 5,-14 9,-28 11,-42l0 -24zm-5151 -11976c0,-26 -5,-50 -13,-70 -9,-21 -22,-41 -40,-58 -17,-18 -37,-31 -58,-40 -20,-8 -44,-13 -69,-13 -26,0 -50,5 -70,13 -21,9 -41,22 -58,40 -17,16 -31,36 -40,58 -8,20 -13,44 -13,70 0,25 5,49 13,69l0 1c9,21 22,41 38,58l2 0c16,17 36,30 58,39 20,8 44,13 70,13 25,0 49,-5 69,-13 21,-9 41,-22 58,-40 18,-17 31,-37 40,-58 8,-20 13,-44 13,-69zm561 -742c97,96 174,212 228,340l0 1c51,124 80,260 80,401 0,140 -29,276 -80,400l0 1c-54,128 -131,244 -228,340 -48,49 -104,94 -165,134 -18,12 -36,23 -54,34 86,434 231,846 429,1228 222,430 509,821 848,1160l0 0c332,331 713,613 1130,833 394,206 820,359 1270,446 15,-34 33,-67 53,-99l-1 0c45,-74 98,-142 158,-202l1 0c96,-96 212,-174 340,-227 124,-52 259,-80 400,-80 141,0 277,28 401,80 128,53 244,131 341,229 60,60 113,127 156,199l0 1c16,26 30,52 43,79 415,-90 810,-235 1176,-428 417,-219 797,-501 1128,-832 339,-339 627,-730 848,-1159 198,-382 344,-795 429,-1229 -18,-10 -36,-21 -53,-33l-1 0c-59,-39 -114,-84 -164,-134l-53 -53 0 -5c-73,-84 -132,-179 -175,-283 -52,-124 -80,-259 -80,-400 0,-142 28,-277 80,-402 53,-129 131,-244 227,-340 190,-190 452,-307 742,-307 141,0 276,28 400,79 130,54 246,132 341,228 97,96 175,212 228,340l0 1c51,124 80,260 80,401 0,136 -27,267 -75,388 -50,124 -123,237 -215,333l-18 20c-70,70 -150,131 -237,178 -51,28 -104,52 -159,71 -98,539 -274,1051 -515,1524 -265,518 -609,989 -1016,1396l-1 0c-202,202 -421,389 -654,559 -53,39 -107,77 -161,114l912 0c17,-37 36,-72 56,-106 44,-73 97,-141 157,-200 97,-98 212,-176 340,-229 124,-52 260,-80 401,-80 141,0 277,28 401,80 128,53 244,131 341,229 96,96 173,211 226,339 32,78 55,160 68,245l13 2 0 154c0,141 -29,276 -80,400 -53,128 -131,243 -227,340 0,1 -1,2 -2,2 -97,96 -213,174 -340,227 -124,52 -259,80 -400,80 -54,0 -109,-5 -166,-14l-30 -5 -1384 1962c34,59 63,122 85,188 36,106 55,218 55,334 0,141 -29,276 -80,400 -54,130 -132,246 -227,342 -96,96 -212,174 -342,227 -124,52 -259,80 -400,80 -54,0 -108,-4 -161,-12l-27 -5 -1327 1882c35,60 65,124 88,191 36,107 56,221 56,339l0 97 -6 4c-10,101 -34,197 -70,288 -50,125 -123,238 -213,333l-13 14 -5 6c-96,96 -212,174 -340,227 -124,52 -260,80 -401,80 -141,0 -277,-28 -401,-80 -128,-53 -244,-131 -340,-227 -98,-97 -176,-213 -230,-341 -51,-124 -80,-260 -80,-401 0,-118 20,-232 57,-339 23,-67 53,-131 89,-191l-1354 -1919 -31 5c-56,9 -112,14 -165,14 -141,0 -277,-28 -401,-80 -128,-53 -244,-131 -340,-227l-1 -2c-96,-96 -174,-212 -227,-339 -52,-124 -80,-260 -80,-401 0,-118 20,-232 56,-339 23,-67 53,-131 89,-191l-1353 -1919 -31 6c-57,8 -112,13 -166,13 -141,0 -276,-28 -401,-80l0 0c-128,-53 -244,-131 -340,-227l-1 0c-96,-96 -174,-212 -227,-341l0 0c-52,-125 -80,-260 -80,-401 0,-141 28,-276 80,-401l0 0c53,-129 131,-245 227,-341l1 0c96,-96 212,-174 340,-227 125,-52 260,-80 401,-80 141,0 276,28 401,80 129,53 245,131 341,227 60,60 113,128 157,201l0 1c21,34 39,69 56,106l804 0c-54,-37 -108,-75 -161,-114 -235,-171 -454,-358 -655,-559 -406,-406 -750,-877 -1016,-1396 -241,-473 -417,-985 -515,-1525 -55,-19 -108,-42 -158,-70 -88,-48 -168,-108 -237,-178l-1 -1c-97,-97 -174,-212 -227,-340 -52,-124 -80,-259 -80,-400 0,-142 28,-277 80,-402 53,-129 131,-244 227,-340 96,-96 211,-174 341,-227 124,-52 259,-80 401,-80 141,0 277,28 401,79 129,54 245,132 340,228zm9634 742c0,-26 -4,-50 -13,-70 -9,-21 -22,-41 -39,-58 -18,-18 -38,-31 -59,-40 -20,-8 -44,-13 -69,-13 -26,0 -49,5 -69,13 -22,9 -42,23 -59,40 -17,16 -31,36 -40,58 -8,20 -13,44 -13,70 0,26 5,49 13,70 9,21 22,41 39,58 17,17 37,30 59,39 21,8 44,13 70,13 25,0 49,-5 69,-13 21,-9 41,-22 59,-40l8 -7c14,-16 25,-34 32,-53 8,-20 12,-43 12,-67zm-4271 5451c-7,18 -16,35 -25,52l-25 44 1372 1945 9 -1c47,-6 93,-9 135,-9 56,0 113,5 171,14l35 6 1379 -1956 -26 -47c-8,-15 -16,-31 -24,-48l-3001 0zm-758 596l-30 5c-57,9 -112,14 -166,14 -54,0 -109,-5 -166,-14l-30 -5 -1354 1920 26 47 0 0 24 48 2981 0c10,-20 21,-40 32,-60l29 -47 -1346 -1908zm-1100 -500l-20 -34c-10,-18 -19,-37 -28,-56l-37 -6 -2964 0 -23 49c-9,16 -18,32 -27,48l1353 1919 30 -6c57,-9 112,-13 166,-13 53,0 109,4 165,13l31 6 1354 -1920zm1032 -402c17,-17 31,-37 39,-58 9,-21 14,-44 14,-70l0 -20c-2,-18 -6,-34 -13,-50 -9,-22 -23,-42 -40,-59l0 -1c-16,-16 -36,-29 -57,-38 -21,-8 -45,-13 -71,-13 -26,0 -50,5 -71,13 -22,9 -42,23 -59,40 -16,17 -30,37 -38,58 -9,20 -13,44 -13,70 0,26 4,50 13,70 9,22 22,41 38,58 17,16 37,30 59,39 21,9 45,14 71,14 25,0 48,-5 67,-12 19,-7 36,-17 50,-29l11 -12zm-2402 3351c0,-26 -4,-49 -13,-70 -9,-21 -22,-41 -38,-58l-2 0c-16,-17 -36,-30 -58,-39 -20,-8 -44,-13 -69,-13 -26,0 -50,5 -70,13 -22,9 -42,22 -58,38l-1 2c-17,16 -30,36 -39,58 -8,20 -13,43 -13,69 0,26 5,50 13,70 9,22 22,42 39,58l1 1c16,17 36,30 58,39 20,8 44,13 70,13 25,0 49,-5 69,-13 22,-9 42,-22 59,-39l0 -1c17,-16 30,-36 39,-58 8,-20 13,-44 13,-70zm774 434l-24 49 -26 47 1354 1919 30 -5c57,-9 112,-14 166,-14 54,0 109,5 166,14l30 5 1324 -1876c-15,-23 -28,-47 -40,-70l1 -1c-11,-22 -22,-45 -31,-69l-2950 1zm4101 -399c0,-26 -5,-49 -14,-70 -9,-22 -22,-42 -39,-58l0 0c-18,-17 -38,-31 -59,-40 -20,-8 -44,-13 -69,-13 -26,0 -50,5 -70,13 -22,9 -42,23 -58,39l-1 1c-17,16 -30,36 -39,58 -8,21 -13,44 -13,70 0,26 5,49 13,70 9,22 22,41 39,58l1 1c16,16 36,30 58,39 20,8 44,13 70,13 25,0 49,-5 69,-13 21,-9 41,-23 59,-40l0 0c17,-17 30,-36 39,-58 9,-21 14,-44 14,-70zm-7328 -3514c0,-26 -5,-49 -13,-70 -9,-21 -23,-41 -40,-58 -17,-17 -37,-31 -58,-40 -21,-8 -44,-13 -70,-13 -26,0 -49,5 -70,13 -22,9 -41,23 -58,39l0 1c-17,17 -31,37 -40,58 -8,21 -13,44 -13,70 0,26 5,49 13,70 9,22 23,41 39,58l1 1c17,16 36,30 58,39 21,8 44,13 70,13 26,0 49,-5 70,-13 21,-9 41,-23 58,-40l1 0c16,-17 30,-36 39,-58 8,-21 13,-44 13,-70zm9765 128c17,-17 30,-37 38,-57l0 -1c9,-20 13,-44 13,-70l0 -20c-1,-18 -6,-34 -12,-50 -9,-22 -23,-43 -40,-59 -17,-17 -37,-30 -58,-39 -20,-8 -44,-13 -70,-13 -26,0 -50,5 -70,13 -21,9 -40,22 -57,39 -17,16 -31,36 -40,58 -8,21 -13,45 -13,71 0,26 5,50 13,71 9,21 23,41 40,58l0 0c16,17 35,30 57,39 20,8 44,13 70,13 26,0 50,-5 70,-13 22,-9 42,-22 58,-38l1 -2zm20478 16508c0,-25 -5,-49 -13,-70 -9,-21 -22,-41 -39,-58l-1 -1c-16,-16 -36,-30 -58,-38 -20,-9 -44,-14 -69,-14 -26,0 -50,5 -70,13 -22,9 -41,22 -57,38 -17,17 -31,37 -40,60 -8,20 -13,44 -13,70 0,26 5,50 13,71 9,22 23,42 39,59 17,16 36,29 58,38 20,9 44,13 70,13 27,0 51,-4 71,-13 21,-8 40,-21 57,-38 17,-17 30,-37 40,-60 6,-15 10,-32 12,-50l0 -20zm-5307 -8550c0,-26 -4,-50 -13,-70 -9,-22 -22,-41 -39,-58l0 -1c-17,-16 -37,-30 -58,-39 -21,-8 -44,-13 -70,-13 -26,0 -50,5 -70,13 -22,9 -42,22 -58,39 -17,17 -31,37 -40,59 -8,20 -13,44 -13,70 0,26 5,49 13,69 9,22 22,42 39,59l1 0c16,17 36,30 58,39 20,9 44,13 70,13 26,0 49,-4 70,-13 21,-9 40,-22 58,-40l8 -7c14,-16 25,-34 33,-53 7,-20 11,-43 11,-67zm562 -742c59,59 112,128 157,203 21,34 40,70 56,106 457,0 1958,68 2295,-1l23 2 1080 -1c16,-36 35,-72 55,-106 44,-74 97,-142 158,-202 97,-97 212,-176 340,-229 124,-51 260,-80 401,-80 141,0 276,29 401,80 128,53 243,132 340,229 96,96 174,212 227,340 30,73 52,150 65,230l16 1 0 170c0,140 -29,276 -80,400 -54,130 -132,245 -228,341 -96,96 -211,174 -340,228 -124,51 -260,80 -401,80 -141,0 -277,-29 -401,-81 -128,-53 -243,-131 -340,-228 -60,-61 -113,-128 -157,-200 -20,-33 -38,-68 -55,-104l-672 0 1 2884c33,15 65,31 96,50 69,40 133,88 191,143l23 20c95,96 173,212 227,341 51,124 80,260 80,401 0,136 -27,267 -75,388 -49,123 -122,235 -212,330l-20 24c-60,59 -128,112 -203,157 -34,21 -70,39 -107,56l-1 2884 672 0c17,-36 35,-71 55,-105 44,-72 97,-139 157,-199 97,-97 212,-176 340,-229 124,-51 260,-80 401,-80 141,0 277,28 401,80 129,54 244,131 340,227 96,96 174,212 228,342 51,124 80,259 80,400l0 108 -8 4c-11,101 -36,198 -73,289 -53,128 -131,244 -227,340l0 0c-96,97 -212,175 -340,229 -124,51 -260,80 -401,80 -141,0 -277,-29 -401,-81 -128,-53 -243,-131 -340,-229 -61,-60 -114,-128 -158,-202 -20,-34 -39,-69 -55,-106 -237,0 -919,-36 -1103,1l-24 -1 -2271 0c-17,37 -35,73 -56,107 -45,75 -98,143 -157,203 -96,95 -212,173 -341,227 -124,52 -260,80 -401,80 -136,0 -267,-27 -388,-75 -124,-49 -236,-122 -331,-212l-23 -20c-88,-89 -161,-193 -213,-310 -457,0 -1959,-67 -2296,1l-24 -1 -1075 0c-17,37 -36,73 -57,107 -44,75 -97,143 -158,203 -96,97 -212,174 -340,228 -124,51 -259,80 -400,80 -141,0 -277,-29 -401,-80 -128,-53 -244,-131 -340,-228 -98,-97 -176,-213 -229,-341 -52,-124 -81,-260 -81,-401 0,-141 29,-277 81,-401 53,-128 132,-243 229,-341 97,-96 212,-174 340,-227 124,-52 259,-80 400,-80 141,0 276,28 400,80 128,53 243,131 340,227 1,0 2,1 2,2 59,59 111,126 156,200 20,33 39,68 55,104l669 0 1 -2884c-37,-17 -73,-35 -107,-56 -75,-45 -143,-98 -202,-157 -96,-97 -174,-212 -227,-341l0 -1c-52,-124 -80,-259 -80,-400 0,-141 28,-276 79,-400 53,-128 131,-243 227,-340l5 -4c60,-60 127,-112 198,-155 34,-21 70,-39 107,-56l-1 -2884 -669 0c-16,35 -35,70 -55,104l0 0c-43,71 -94,137 -153,197l-5 4c-97,97 -212,175 -340,228 -124,51 -259,80 -400,80 -141,0 -276,-29 -400,-80 -128,-53 -243,-131 -340,-228 -98,-97 -176,-213 -229,-341 -52,-124 -81,-259 -81,-400 0,-142 29,-277 80,-401 54,-128 132,-244 230,-341 96,-97 212,-175 340,-228 124,-52 259,-80 400,-80 141,0 276,28 401,80l0 0c129,53 245,131 341,227l21 24c55,58 103,123 143,192 18,30 34,62 49,94 236,0 916,37 1100,-1l23 2 2273 -1c16,-36 35,-72 55,-106 45,-75 99,-143 158,-203l53 -53 5 0c84,-72 180,-131 284,-174 124,-52 259,-80 400,-80 141,0 277,28 401,80 129,53 245,131 341,227zm211 1178l-15 31 -16 31 1896 2495 0 -2557 -1865 0zm-719 586l-49 10 0 0c-60,11 -122,17 -185,17 -63,0 -125,-6 -185,-17l0 0 -49 -10 -2095 2755 17 32 15 32 4593 0 15 -32 17 -32 -2094 -2755zm-1156 -524l-16 -31 -15 -31 -1866 0 1 2556 1896 -2494zm-2149 3777c0,-26 -4,-50 -13,-71 -9,-22 -22,-42 -39,-59 -16,-16 -36,-29 -57,-38 -21,-8 -44,-13 -70,-13 -27,0 -51,5 -71,13 -22,9 -41,22 -57,38 0,1 -1,2 -2,2 -16,16 -29,35 -38,56 -8,22 -13,46 -13,72 0,25 5,49 13,70 9,21 23,40 40,58 17,17 37,31 58,39 21,9 44,14 70,14 26,0 49,-5 69,-13 21,-9 41,-22 58,-39 17,-17 30,-37 39,-59 9,-20 13,-44 13,-70zm774 434l-15 32 -17 32 2095 2755 49 -10 0 -1c60,-10 122,-16 185,-16 63,0 125,6 185,16l0 1 49 10 2094 -2755 -32 -64 -4593 0zm-521 848l-1 2557 1865 0 15 -32 1 0 16 -31 -1896 -2494zm6249 -1282c0,-26 -4,-49 -13,-70 -8,-21 -22,-41 -39,-58l-7 -8c-16,-14 -35,-25 -54,-33 -20,-7 -42,-12 -67,-12 -26,0 -49,5 -70,14 -21,8 -41,22 -58,39 -17,17 -31,37 -39,58 -9,21 -14,44 -14,70 0,25 5,49 14,70 8,21 22,40 39,58 17,17 37,31 58,39 21,9 44,13 70,13 25,0 49,-4 70,-13 21,-8 40,-22 58,-39l8 -7c14,-16 25,-35 33,-54 7,-20 11,-42 11,-67zm-613 1282l-1896 2494 16 32 15 31 1865 0 0 -2557zm-7994 -5430c16,-16 29,-36 38,-57 8,-21 13,-44 13,-70l0 -20c-2,-17 -5,-33 -11,-47 -7,-19 -17,-36 -30,-50l-12 -12c-17,-17 -37,-30 -59,-39 -20,-9 -44,-14 -68,-14 -27,0 -51,5 -72,14 -21,8 -41,22 -58,39l-1 0c-16,17 -29,36 -38,58 -9,21 -13,44 -13,71 0,26 4,49 13,70 9,21 22,41 38,57 17,17 37,31 60,40 20,9 44,13 70,13 26,0 50,-4 70,-13 22,-9 42,-22 58,-38 0,-1 1,-2 2,-2zm10611 1c17,-18 30,-38 39,-59 8,-20 13,-44 13,-69l0 -20c-2,-18 -6,-35 -12,-50 -10,-23 -23,-43 -40,-60 -16,-17 -36,-30 -58,-39 -20,-8 -44,-13 -70,-13 -26,0 -50,5 -70,13 -22,9 -41,22 -58,39 -16,16 -30,37 -39,59 -8,20 -13,44 -13,71 0,26 5,49 13,70 9,22 23,42 40,59 16,16 35,29 57,38 20,9 44,13 70,13 25,0 49,-4 69,-13 22,-9 42,-22 59,-39zm-5255 8422c0,-26 -4,-50 -13,-70 -9,-22 -22,-42 -38,-58 -17,-17 -38,-31 -60,-40 -20,-8 -43,-13 -69,-13 -26,0 -50,5 -70,13 -22,9 -42,23 -58,39 -17,17 -31,37 -40,59 -8,21 -13,44 -13,70 0,25 5,49 13,69 9,22 23,42 40,59l7 8c16,14 34,25 54,33 19,7 42,12 67,12 26,0 49,-5 70,-14 21,-9 41,-22 58,-38l0 -1c17,-17 30,-37 39,-58 9,-21 13,-44 13,-70zm-5305 0c0,-26 -5,-50 -13,-70 -9,-22 -22,-41 -38,-58 -1,0 -2,0 -2,-1 -16,-16 -36,-30 -58,-39 -20,-8 -44,-13 -70,-13 -26,0 -50,5 -70,14 -23,9 -43,22 -60,39 -16,16 -29,36 -38,58 -9,20 -13,44 -13,70 0,26 4,50 13,71 9,21 22,41 38,57 17,17 37,31 59,40 21,8 45,13 71,13 26,0 50,-4 70,-13 22,-9 42,-22 58,-38l1 -1c17,-17 30,-38 40,-60 6,-15 10,-32 12,-49l0 -20zm22052 -7499l-2847 2847c15,40 28,81 38,122 8,30 14,61 19,92l15 0 0 170c0,90 -12,178 -33,262l0 1c-10,41 -24,82 -39,122l2797 2797c40,-16 81,-29 122,-39 84,-22 172,-33 262,-33 91,0 179,11 264,33 42,10 83,24 123,39l2845 -2845c-11,-33 -20,-67 -28,-102 -18,-78 -27,-156 -27,-235 0,-78 9,-157 27,-234 8,-35 17,-69 28,-103l-2895 -2894c-33,11 -67,20 -102,28l-1 0c-77,17 -155,26 -234,26 -78,0 -156,-9 -233,-26 -34,-8 -68,-17 -101,-28zm14551 3231c0,-90 11,-177 33,-262 10,-42 23,-83 39,-123l-2797 -2797c-40,16 -81,29 -122,40l-1 0c-84,21 -172,32 -262,32 -90,0 -178,-11 -263,-33l0 0c-42,-10 -83,-23 -123,-39l-2845 2845c11,33 20,67 28,102 17,77 27,156 27,235 0,78 -10,157 -27,234 -8,35 -17,70 -28,103l2894 2895c34,-11 68,-21 103,-29 77,-17 156,-26 234,-26 79,0 157,9 234,26 34,8 68,17 101,28l2847 -2847c-15,-39 -28,-80 -39,-122 -10,-41 -18,-83 -23,-126l-10 -3 0 -133zm524 -1160c-74,-233 -170,-456 -284,-666 -175,-320 -396,-613 -653,-871 -258,-257 -551,-478 -871,-652 -210,-115 -433,-211 -665,-285l2473 2474zm941 164c51,20 100,44 146,71 80,46 153,103 218,168 98,98 177,216 232,347 53,127 82,265 82,410 0,144 -29,282 -82,409 -55,131 -134,249 -232,347 -65,65 -138,121 -218,168 -47,28 -96,52 -146,72l-7 33c-13,55 -23,98 -31,129 -125,924 -398,1777 -789,2554 -418,830 -969,1572 -1617,2220 -492,493 -1042,931 -1632,1313 -607,392 -1255,722 -1928,988 -662,262 -1349,462 -2044,596 -695,135 -1396,204 -2088,204 -959,0 -1902,-133 -2784,-406 -807,-251 -1563,-619 -2233,-1112 -52,25 -107,46 -164,62 -96,28 -196,43 -297,43 -144,0 -282,-29 -409,-81 -133,-55 -251,-135 -349,-233l-20 -22c-91,-97 -165,-211 -216,-339 -33,-82 -56,-170 -68,-262l-10 -3 0 -131c0,-145 29,-283 82,-410 55,-131 135,-249 234,-348 98,-98 216,-177 347,-232 127,-53 265,-82 409,-82 144,0 282,29 408,82 131,54 249,134 347,232l4 4c98,99 177,216 231,347 52,126 81,264 81,406 0,77 -9,153 -24,227 -6,26 -13,52 -21,78 586,422 1247,738 1953,954 787,241 1634,357 2499,357 639,0 1287,-63 1926,-187 640,-124 1274,-308 1887,-551 621,-245 1217,-549 1774,-908 538,-348 1041,-749 1491,-1200 340,-339 648,-705 919,-1096 89,-127 173,-257 253,-389 -155,109 -317,209 -485,299 -369,196 -766,346 -1183,438 -20,62 -45,122 -76,180 -50,94 -113,180 -187,254 -100,99 -218,179 -348,234 -127,52 -266,81 -410,81 -144,0 -282,-29 -409,-81 -132,-55 -251,-134 -349,-232 -74,-74 -137,-160 -188,-256 -30,-57 -55,-117 -75,-180 -417,-93 -814,-242 -1182,-438 -411,-220 -784,-497 -1108,-821 -324,-324 -601,-697 -820,-1107 -197,-368 -346,-765 -439,-1183 -62,-19 -122,-45 -180,-75 -94,-51 -180,-114 -254,-189 -99,-98 -178,-215 -233,-347 -35,-86 -60,-178 -72,-274l-10 -3 0 -133c0,-144 29,-283 82,-409 54,-131 134,-249 234,-348 74,-75 159,-138 254,-188 57,-31 117,-56 179,-76 93,-417 242,-814 439,-1182 219,-410 496,-783 820,-1107 326,-326 702,-605 1115,-824l0 -1c372,-198 775,-348 1200,-440 21,-50 44,-99 72,-146 47,-80 103,-153 168,-218 99,-98 217,-178 347,-232 127,-52 265,-81 409,-81 144,0 282,29 409,81 130,54 248,134 347,232 1,0 3,3 3,4 65,65 121,138 167,216 26,45 50,94 70,144 425,92 828,242 1200,440 412,219 788,498 1115,825 326,326 605,702 825,1114 198,372 347,775 439,1200zm-940 2156l-2476 2475c229,-73 449,-167 657,-280 325,-176 621,-398 881,-658 238,-238 444,-505 611,-796 133,-232 244,-480 327,-741zm401 -1304c-18,19 -33,41 -43,65 -9,23 -15,50 -15,79l0 21c2,20 7,39 15,57 10,24 25,47 45,66l13 13c15,13 33,24 51,32l0 0c23,9 50,14 79,14 29,0 56,-5 79,-14 25,-10 47,-25 65,-44 19,-18 34,-41 44,-66 10,-23 15,-50 15,-79 0,-29 -5,-55 -15,-78 -9,-24 -25,-46 -44,-65 -19,-20 -42,-35 -65,-45 -23,-9 -50,-15 -78,-15 -29,0 -56,6 -80,15 -24,10 -47,26 -66,44zm-15221 6549c-18,18 -33,40 -43,65 -9,23 -14,49 -14,78l0 22c2,19 6,37 12,54 10,23 24,45 41,64l6 5c37,36 87,59 144,59 29,0 55,-5 79,-15 24,-10 46,-25 64,-43 19,-19 34,-41 45,-66 9,-24 15,-50 15,-80 0,-29 -6,-55 -15,-78 -10,-25 -25,-47 -43,-65l-3 -3c-18,-18 -40,-32 -63,-41 -23,-10 -50,-15 -79,-15 -29,0 -56,5 -79,15 -25,10 -48,25 -67,44zm7552 -7568l2469 -2470c-231,74 -453,170 -662,284 -320,174 -613,395 -871,653 -424,424 -749,948 -936,1533zm-1 2324c73,228 167,447 279,655 177,325 399,622 658,881 259,259 556,482 881,658 208,113 427,207 655,279l-2473 -2473zm-759 -1305c-18,19 -33,41 -43,65 -10,23 -15,50 -15,79l0 26c3,17 8,35 14,52 11,24 26,47 46,66l13 13c15,13 33,24 51,32 23,9 49,14 79,14 29,0 56,-5 79,-14 25,-11 47,-25 65,-44 19,-18 34,-41 44,-66 10,-23 15,-50 15,-79 0,-29 -5,-55 -15,-78 -10,-24 -25,-46 -44,-65 -19,-20 -42,-35 -65,-45 -23,-9 -50,-15 -78,-15 -30,0 -56,6 -80,15 -25,10 -47,26 -66,44zm4248 -4181c-19,18 -33,40 -43,65 -10,23 -15,49 -15,79l0 21c2,20 6,39 14,57 10,25 25,47 44,66l1 1c19,19 41,34 65,43 23,10 50,15 79,15 29,0 56,-5 79,-15 24,-10 47,-25 65,-43 19,-19 34,-41 44,-66 10,-23 15,-50 15,-79 0,-30 -5,-56 -15,-79 -10,-24 -25,-46 -43,-65l-1 -1c-19,-19 -41,-33 -65,-43 -23,-10 -50,-15 -79,-15 -29,0 -56,5 -79,15 -25,10 -47,25 -66,44zm0 8429c-19,18 -33,41 -43,65 -10,23 -15,50 -15,79l0 20c2,20 7,40 14,57 11,25 26,48 45,67 20,19 42,34 66,44 23,10 49,15 78,15 29,0 56,-5 79,-15 24,-10 47,-25 65,-43 19,-19 34,-41 44,-66 10,-23 15,-50 15,-79 0,-29 -5,-56 -15,-79 -10,-24 -25,-46 -43,-65l-1 -1c-19,-18 -41,-33 -65,-43 -23,-10 -50,-15 -79,-15 -29,0 -56,5 -79,15 -25,10 -47,26 -66,44zm-15536 -5100l7 -33c12,-53 22,-96 30,-127 125,-924 398,-1777 789,-2554 418,-830 969,-1573 1617,-2221 492,-493 1042,-931 1632,-1313 607,-392 1256,-723 1928,-989 662,-261 1349,-461 2044,-596 695,-134 1397,-203 2088,-203 959,0 1902,132 2785,406 807,250 1563,618 2232,1111 53,-24 107,-45 164,-62 96,-28 196,-43 298,-43 144,0 282,29 409,82 132,54 251,134 349,232l21 23c91,97 165,212 215,339 29,72 50,147 63,225l15 1 0 170c0,144 -30,282 -82,409 -55,131 -135,249 -234,348 -98,98 -216,178 -347,232 -127,53 -265,82 -409,82 -144,0 -282,-29 -409,-82 -131,-54 -249,-134 -347,-232l-1 -1c-99,-98 -178,-216 -233,-347 -52,-127 -81,-265 -81,-409 0,-77 8,-153 24,-227 6,-26 13,-52 20,-78 -585,-422 -1246,-738 -1952,-954 -788,-240 -1634,-357 -2500,-357 -639,0 -1286,64 -1926,188 -640,123 -1274,308 -1887,550 -620,246 -1217,550 -1774,909 -538,348 -1041,749 -1491,1200 -340,339 -648,705 -919,1095 -88,127 -172,257 -252,389 155,-109 317,-209 485,-298 368,-197 766,-346 1183,-439 20,-62 45,-122 75,-180 51,-94 114,-179 188,-254 99,-99 218,-179 348,-233 127,-53 265,-82 409,-82 144,0 283,29 410,81 132,55 250,135 348,233 75,74 139,160 189,255 31,57 56,117 76,180 416,93 813,242 1181,439 411,219 783,496 1107,820 324,324 601,697 821,1107 196,368 345,765 438,1182 64,20 124,45 181,75 94,51 180,115 255,189 98,98 177,216 232,348 31,76 54,157 67,240l15 0 0 170c0,144 -29,283 -82,409 -54,131 -134,249 -234,349 -74,74 -160,137 -254,187l0 1c-57,30 -117,56 -180,75 -92,417 -241,814 -438,1182 -219,411 -497,783 -821,1107 -327,327 -702,606 -1114,825l0 0c-374,199 -777,348 -1201,440 -20,51 -44,99 -71,146 -47,80 -104,153 -169,218 -98,98 -215,177 -347,232 -126,53 -265,82 -409,82 -144,0 -282,-29 -408,-82 -131,-54 -248,-134 -347,-232 -1,0 -2,-1 -2,-2 -64,-64 -120,-137 -167,-216 -27,-47 -51,-95 -71,-146 -425,-92 -828,-241 -1201,-440 -412,-219 -787,-498 -1114,-824 -327,-327 -606,-703 -825,-1115 -198,-372 -348,-776 -440,-1201 -50,-20 -98,-43 -145,-70 -81,-48 -154,-104 -217,-168l-1 -1c-99,-99 -178,-217 -232,-347 -53,-127 -82,-265 -82,-409 0,-144 29,-282 82,-409 54,-131 134,-249 232,-347 65,-65 138,-121 218,-168 46,-28 95,-52 146,-72zm941 2157c74,232 169,455 284,665 175,320 395,613 653,871 258,257 551,478 870,652 211,115 433,211 666,285l-2473 -2473zm-1 -2320l2476 -2476c-229,73 -449,167 -657,280 -325,176 -622,399 -881,658 -238,238 -444,506 -611,796 -134,232 -244,481 -327,742zm-401 1303c18,-19 33,-41 43,-65 9,-23 14,-50 14,-79l0 -21c-1,-19 -6,-37 -12,-54 -9,-22 -22,-43 -37,-60l-10 -9c-19,-19 -42,-34 -65,-44 -24,-10 -50,-15 -79,-15 -29,0 -56,5 -79,15 -24,10 -46,24 -64,43 -19,19 -34,41 -45,66 -9,23 -14,50 -14,79 0,29 5,56 14,79 10,24 25,46 44,65l0 1c19,18 41,33 66,43 23,10 49,15 78,15 29,0 56,-5 79,-15 25,-10 48,-25 67,-44zm15220 -6549c19,-18 33,-40 44,-64 9,-23 14,-50 14,-79l0 -21c-2,-19 -6,-38 -12,-54 -9,-22 -22,-43 -38,-61l-9 -8c-20,-19 -42,-35 -66,-45 -23,-9 -49,-14 -78,-14 -29,0 -56,5 -79,14 -24,10 -46,25 -65,43 -18,19 -34,42 -44,67 -9,23 -15,50 -15,79 0,29 6,55 15,78 10,25 25,47 43,66l1 0c19,19 41,34 65,44 23,9 50,14 79,14 29,0 56,-5 79,-14 25,-11 48,-26 66,-45zm-7551 7568l-2469 2470c231,-74 452,-169 662,-284 320,-174 613,-395 870,-653 260,-259 482,-555 658,-880 112,-207 206,-425 279,-653zm0 -2325c-73,-228 -166,-447 -279,-654 -176,-325 -398,-621 -658,-881 -259,-259 -556,-481 -880,-658 -208,-112 -427,-206 -654,-279l2471 2472zm760 1306c18,-19 33,-41 43,-65 9,-23 15,-50 15,-79l0 -20c-2,-21 -7,-40 -15,-57 -10,-25 -25,-48 -44,-67l-1 0c-19,-19 -41,-34 -65,-44 -23,-10 -50,-15 -79,-15 -29,0 -56,5 -79,15 -24,10 -46,24 -64,43 -19,19 -34,41 -44,66 -10,23 -15,50 -15,79 0,29 5,56 14,79 10,24 25,46 44,65l1 1c19,18 41,33 65,43 22,10 49,15 78,15 29,0 56,-6 79,-15 25,-10 48,-26 67,-44zm-4248 4181c18,-18 33,-40 43,-65 10,-23 15,-49 15,-78l0 -22c-2,-19 -6,-37 -13,-53 -9,-23 -21,-43 -37,-61l-10 -8c-19,-20 -41,-35 -65,-45 -23,-9 -50,-15 -78,-15 -30,0 -56,6 -79,15 -25,10 -47,25 -65,43 -19,19 -34,42 -44,66 -10,24 -15,50 -15,80 0,29 5,55 15,78 10,25 25,47 43,65l1 1c18,18 40,33 65,43 23,10 50,15 78,15 30,0 56,-5 80,-15 25,-10 47,-25 66,-44zm0 -8429c18,-18 33,-40 43,-65 10,-23 15,-49 15,-78 0,-29 -5,-56 -15,-79 -10,-24 -25,-46 -45,-65 -19,-20 -41,-35 -65,-45 -23,-10 -50,-15 -79,-15 -29,0 -55,5 -78,15 -24,10 -46,25 -65,44 -19,18 -34,40 -44,65 -10,23 -15,50 -15,80 0,29 5,55 15,78 10,25 24,47 43,65 1,0 1,0 1,1 18,19 40,33 65,43 23,10 49,15 78,15 30,0 56,-5 80,-15 25,-10 47,-25 66,-44zm23980 -11591c0,-26 -5,-50 -14,-70 -9,-22 -22,-42 -38,-59l-1 0c-17,-17 -37,-30 -58,-39 -21,-9 -44,-13 -70,-13 -26,0 -49,4 -70,13 -21,9 -41,22 -57,38 -17,17 -30,37 -39,59 -9,20 -14,44 -14,70 0,27 5,51 14,71 9,22 22,43 39,59 16,16 35,30 57,38 20,9 44,13 70,13 27,0 51,-4 71,-13 21,-8 41,-21 57,-38 17,-17 31,-37 40,-59l0 -1c6,-15 11,-32 13,-50l0 -19zm-5089 5088c0,-25 -5,-49 -13,-70 -9,-21 -23,-41 -40,-58 -17,-17 -37,-31 -58,-39 -21,-9 -44,-14 -70,-14 -26,0 -49,5 -70,13 -21,9 -41,22 -57,39 -17,16 -30,36 -39,59 -9,20 -13,44 -13,70 0,26 4,50 13,71 9,22 22,42 39,59 16,16 36,29 57,38 21,9 44,13 70,13 27,0 51,-4 71,-13 21,-8 40,-21 57,-38 18,-17 31,-37 40,-59l0 -1c7,-15 11,-32 13,-50l0 -20zm661 -625c51,68 94,144 127,224l0 0c52,125 80,260 80,401l0 110 -8 4c-10,101 -35,197 -72,287 -34,81 -77,156 -128,225 75,55 159,109 251,162 157,90 338,177 541,258 184,73 386,142 604,204 142,41 290,78 444,113 -20,-181 -35,-363 -47,-547 -17,-270 -25,-543 -25,-815 0,-273 8,-546 25,-815 12,-185 27,-367 47,-548 -154,35 -302,72 -444,113 -218,62 -420,131 -604,204 -203,81 -384,168 -541,258l0 1c-92,52 -176,106 -250,161zm-1215 1605c-51,-19 -100,-42 -145,-69 -81,-46 -156,-104 -223,-171 -96,-96 -174,-212 -227,-340 -51,-124 -80,-259 -80,-400 0,-141 29,-276 80,-400 53,-128 131,-243 227,-340 67,-67 142,-125 223,-171 46,-26 94,-49 145,-69 97,-545 273,-1062 516,-1538 266,-522 613,-996 1022,-1405 410,-410 885,-757 1407,-1023 475,-243 992,-419 1538,-516 19,-50 42,-98 69,-144 46,-82 104,-157 169,-223 97,-97 213,-175 341,-229 124,-51 259,-80 400,-80 141,0 277,29 401,80 129,54 245,132 341,228 65,65 122,140 169,223 27,46 50,95 69,145 546,97 1063,274 1539,516 521,266 996,613 1406,1023 151,151 293,311 425,478 -53,-207 -110,-389 -170,-552 -131,-360 -274,-636 -406,-891 -151,-291 -290,-557 -392,-884 -103,-329 -168,-710 -168,-1223 0,-480 128,-883 338,-1207 237,-363 577,-624 959,-779 135,-55 277,-97 422,-125 143,-28 292,-42 442,-42 149,-1 298,13 442,40 145,28 286,69 420,124 377,153 710,412 941,775 205,323 328,728 328,1214 0,1107 -266,3121 -549,5264l-1 13c-316,2394 -654,4950 -654,6533 0,375 71,681 188,919 126,258 306,438 508,542 70,35 143,63 219,81 74,18 151,27 231,27 79,0 157,-9 231,-27 75,-18 149,-45 218,-81 136,-70 263,-175 369,-315 80,-104 148,-227 201,-369l-9 -7c-45,-32 -88,-69 -128,-109 -96,-97 -174,-212 -227,-341 -52,-124 -80,-259 -80,-400 0,-141 28,-276 80,-400 53,-128 130,-243 227,-340 97,-97 213,-175 340,-229 124,-51 260,-80 401,-80 141,0 276,29 400,80l1 0c129,53 244,131 340,227l0 1c97,96 174,212 228,340 51,124 80,260 80,401l0 110 -8 4c-11,101 -36,197 -73,287 -53,129 -130,244 -226,340l0 1c-80,80 -174,147 -278,199 -65,32 -134,58 -207,76 -87,281 -213,523 -367,726 -189,249 -419,439 -670,568 -133,68 -271,119 -411,153 -144,35 -289,53 -432,53 -143,0 -288,-18 -432,-53 -141,-34 -278,-85 -411,-153 -350,-180 -659,-476 -872,-887 -187,-360 -299,-809 -299,-1344 0,-1035 140,-2471 325,-4009 -47,40 -98,75 -151,106 -45,26 -94,49 -145,68 -97,546 -274,1063 -516,1539 -266,522 -613,996 -1022,1406 -410,410 -885,756 -1407,1022 -476,243 -993,419 -1539,516 -19,50 -42,98 -68,145 -47,81 -104,156 -169,221 -97,98 -213,176 -341,229 -124,52 -259,80 -401,80 -141,0 -276,-28 -400,-80 -128,-53 -244,-131 -341,-229 -66,-65 -123,-140 -169,-222 -26,-45 -49,-94 -68,-144 -546,-97 -1063,-273 -1539,-516 -522,-266 -997,-612 -1407,-1022 -409,-410 -756,-884 -1022,-1406 -243,-476 -419,-993 -516,-1539zm11400 -1596c53,-406 107,-813 160,-1215l0 -6c278,-2105 540,-4084 540,-5158 0,-301 -72,-547 -191,-738 -130,-211 -320,-359 -536,-447 -84,-35 -171,-60 -260,-77 -92,-18 -184,-27 -276,-26 -90,0 -182,9 -275,27 -90,18 -178,44 -263,79 -224,90 -421,242 -557,454 -123,192 -197,434 -197,728 0,822 209,1225 461,1710 202,391 429,827 617,1512 181,658 325,1540 372,2823 35,16 70,35 103,55l1 0c71,44 136,95 194,153 39,39 75,81 107,126zm3313 5351c0,-25 -4,-49 -13,-69 -9,-22 -22,-42 -39,-59 -18,-17 -38,-31 -59,-39 -20,-9 -44,-14 -69,-14 -26,0 -50,5 -70,13 -22,9 -41,23 -57,39 -17,17 -30,37 -40,59 -8,20 -13,44 -13,70 0,27 5,50 13,71 9,22 23,42 40,59 16,16 35,29 57,38 20,9 44,13 70,13 25,0 50,-4 71,-13 22,-9 41,-22 57,-38 17,-17 31,-37 40,-60 6,-14 10,-30 12,-45l0 -25zm-3981 -4735c0,-25 -5,-49 -14,-70 -9,-21 -22,-41 -39,-58 -17,-17 -37,-31 -58,-39 -21,-9 -44,-14 -70,-14 -26,0 -49,5 -70,13 -21,9 -41,22 -57,39 -17,16 -30,36 -39,59 -9,20 -14,44 -14,70 0,26 5,50 14,71 9,22 22,42 39,59 16,16 36,29 57,38 21,9 44,13 70,13 26,0 50,-5 71,-13l1 0c20,-8 39,-21 56,-38 17,-17 31,-37 40,-60 7,-15 11,-32 13,-50l0 -20zm-1021 626c-51,-69 -95,-145 -128,-226 -52,-124 -80,-259 -80,-400 0,-141 28,-276 80,-400 33,-80 76,-156 128,-225 -75,-55 -159,-109 -251,-162 -157,-90 -339,-176 -542,-258 -184,-73 -385,-142 -603,-204 -142,-40 -290,-78 -444,-113 20,181 35,363 47,548 17,270 25,542 25,815 0,272 -8,544 -25,814 -12,185 -27,367 -47,548 154,-35 302,-72 444,-113 218,-62 419,-131 603,-204 204,-82 385,-168 542,-258 92,-53 176,-107 251,-162zm-4068 4463c0,-26 -5,-49 -14,-70 -8,-21 -22,-41 -39,-58 -18,-17 -37,-31 -58,-40 -21,-8 -44,-13 -70,-13 -26,0 -49,5 -70,13 -21,9 -41,22 -57,38 -17,17 -30,37 -39,59 -9,21 -14,45 -14,71 0,26 5,50 14,71 9,22 22,42 39,59 16,16 35,29 57,38 20,8 44,13 70,13 27,0 51,-5 71,-13 21,-8 40,-22 57,-39 17,-16 31,-37 40,-59 7,-15 11,-32 13,-50l0 -20zm445 -842c55,-74 109,-157 161,-249l1 0c90,-157 177,-339 258,-541 73,-184 142,-386 204,-604 41,-142 78,-290 113,-444 -181,20 -363,35 -547,47 -270,17 -543,25 -816,25 -273,0 -545,-8 -815,-25 -184,-12 -366,-27 -547,-46 35,153 73,301 113,443 62,218 131,420 204,603 82,203 168,385 258,542 53,92 107,175 162,250 69,-51 144,-95 225,-128 124,-52 259,-80 400,-80 141,0 276,28 400,80l1 0c81,33 157,76 225,127zm-1251 -8495c-55,75 -109,159 -162,251 -90,157 -176,339 -258,542 -73,184 -142,385 -204,603 -40,142 -78,290 -113,444 181,-20 363,-35 547,-47 270,-17 542,-25 815,-25 273,0 545,8 815,25 185,12 367,27 548,47 -35,-154 -72,-302 -113,-444 -62,-217 -131,-419 -204,-603 -82,-204 -168,-385 -258,-542 -53,-92 -107,-176 -162,-251 -69,52 -145,95 -225,129 -124,51 -259,80 -401,80 -141,0 -276,-29 -400,-80 -81,-34 -156,-77 -225,-129zm2144 2730c-219,-28 -445,-50 -677,-66 -270,-18 -552,-28 -842,-28 -290,0 -571,10 -841,28 -232,16 -458,38 -677,66 -28,219 -50,445 -66,677 -18,270 -28,551 -28,842 0,290 10,571 28,841 16,232 38,458 66,677 219,28 445,50 677,66 270,18 551,28 841,28 291,0 572,-10 842,-28 233,-16 458,-38 677,-66 28,-219 50,-445 66,-677 18,-270 28,-551 28,-841 0,-291 -10,-572 -28,-842 -16,-232 -38,-458 -66,-677zm-3057 -2904c-258,89 -505,200 -739,331 -379,211 -726,475 -1033,781 -306,307 -570,654 -781,1033 -131,234 -242,481 -331,738l60 -34c178,-99 374,-191 584,-276 234,-93 491,-179 766,-255 237,-65 483,-122 738,-171 48,-255 106,-502 171,-737 76,-276 161,-532 254,-766 85,-210 177,-405 276,-583l35 -61zm3813 2148c255,48 501,105 737,170l1 0c274,76 531,161 766,255 210,85 405,177 583,276l61 35c-89,-258 -200,-505 -331,-739 -211,-379 -475,-726 -781,-1033 -307,-306 -654,-570 -1033,-781 -235,-131 -481,-242 -739,-331l35 60c99,178 191,374 276,584 94,235 179,492 254,765l0 1c65,236 123,483 171,738zm0 4550c-48,254 -106,501 -171,737l0 1c-75,274 -160,530 -254,765 -85,210 -177,406 -276,584l-35 60c258,-89 504,-200 739,-331 379,-211 726,-475 1033,-781 306,-307 570,-654 781,-1033 131,-234 242,-481 331,-738l-61 34c-178,99 -373,192 -583,276 -234,93 -490,179 -766,254 -235,65 -482,123 -738,172zm-3813 2147l-35 -61c-99,-178 -191,-373 -276,-583 -93,-234 -178,-490 -254,-766 -65,-235 -123,-482 -171,-737 -255,-49 -501,-106 -738,-171 -275,-76 -532,-162 -766,-255 -210,-85 -406,-177 -584,-276l-60 -34c89,257 201,504 331,738 211,379 475,726 781,1033 307,306 654,570 1033,781 235,131 481,242 739,331zm-25974 -74180c0,-29 -6,-55 -15,-78l0 -1c-10,-23 -25,-45 -45,-65l-8 -9c-18,-16 -38,-28 -60,-37 -22,-8 -47,-13 -75,-13 -29,0 -56,5 -79,15 -17,7 -34,16 -48,28l-16 16c-37,37 -60,88 -60,144 0,29 5,56 15,78 10,25 25,47 43,65 1,0 2,1 2,2 18,18 40,33 64,43 23,9 50,14 79,14 29,0 56,-5 79,-14 24,-10 46,-25 64,-43 0,-1 1,-2 2,-2 18,-18 33,-40 43,-65 9,-23 15,-49 15,-78zm1910 -5080c0,-29 -5,-55 -15,-78 -10,-25 -25,-47 -43,-65l-1 -1c-18,-19 -40,-33 -65,-43 -23,-10 -49,-15 -78,-15 -29,0 -55,5 -78,15 -24,9 -46,25 -66,44 -19,19 -34,42 -44,65 -9,23 -15,50 -15,78 0,29 5,56 15,79 10,24 25,46 43,64 1,0 1,1 1,2 19,18 41,33 65,43 23,9 50,15 79,15 28,0 55,-6 78,-15 24,-10 46,-25 65,-44l0 -1c19,-19 34,-41 44,-65 10,-23 15,-49 15,-78zm555 -755c98,98 178,216 232,347 52,126 81,264 81,408 0,139 -27,272 -76,396 -33,84 -77,163 -130,235l1034 1791 14361 -8291 -7 -53 -3 -42 -2632 -705c-17,17 -34,32 -51,48 -48,42 -99,79 -153,112l-18 11c-125,72 -260,117 -395,134 -141,19 -283,9 -417,-27 -134,-36 -262,-98 -374,-185 -109,-83 -203,-188 -276,-314l-5 -9c-69,-124 -112,-256 -129,-390 -18,-140 -8,-280 27,-413 36,-134 99,-262 185,-374 83,-109 188,-203 313,-275 126,-72 260,-117 396,-135 141,-18 282,-9 416,27 134,36 262,98 375,185 108,83 203,188 275,313l1 4c56,97 95,199 117,302 13,57 21,115 25,172l2631 705c16,-17 33,-33 51,-48 47,-42 97,-79 150,-111l29 -17 32 -16c120,-63 246,-101 373,-116 135,-16 271,-5 399,29 135,37 262,99 375,186 109,84 203,189 275,313l4 8c70,124 114,257 131,392 18,139 8,280 -27,412 -36,134 -99,262 -185,375 -83,108 -188,202 -314,275l-23 13c-44,24 -91,45 -140,63l-40 14 -693 2585 36 42c33,41 65,88 94,138l-1 1 4 3 8 14c68,125 110,256 126,386 17,137 6,275 -29,406l0 1c-35,134 -98,262 -184,374 -83,108 -188,203 -314,275l-28 15c-122,67 -252,107 -383,122 -135,16 -272,6 -401,-29 -135,-36 -262,-98 -374,-184 -109,-83 -203,-188 -275,-313 -1,-3 -7,-14 -9,-16 -69,-124 -112,-257 -128,-389 -17,-138 -7,-277 28,-409 36,-134 99,-262 185,-374 83,-109 188,-203 313,-275l22 -12c103,-57 213,-95 325,-115 61,-11 122,-17 183,-17l622 -2322 -59 -37 -14388 8306 857 1484c38,-5 77,-7 114,-7 145,0 283,29 410,82 130,54 248,134 347,233 99,99 178,217 233,348 52,126 81,264 81,408 0,139 -27,273 -77,397 -51,127 -126,243 -219,341l-13 13 -5 7c-98,98 -216,177 -348,232 -127,52 -265,81 -409,81 -143,0 -280,-28 -407,-81 -130,-54 -248,-133 -347,-231 -1,0 -3,-2 -3,-3 -99,-99 -178,-217 -232,-347 -53,-127 -82,-265 -82,-409 0,-138 27,-272 77,-395 33,-84 77,-163 130,-235l-857 -1484 -2423 1399c2,28 3,53 3,77 0,142 -29,280 -81,406 -54,131 -133,249 -231,348l-4 4c-99,98 -216,177 -346,231 -127,53 -265,82 -409,82 -143,0 -280,-29 -407,-81 -131,-54 -248,-134 -347,-232l-4 -4c-98,-98 -178,-216 -232,-346 -52,-126 -81,-265 -81,-408 0,-145 29,-283 81,-410 55,-132 135,-250 233,-348l0 0c100,-98 218,-178 348,-232 127,-52 265,-81 409,-81 139,0 273,27 397,76 95,39 184,91 264,154l2398 -1384 -1034 -1790c-39,4 -77,6 -114,6 -143,0 -281,-29 -407,-81 -131,-54 -248,-133 -347,-231 -1,0 -3,-2 -3,-3 -99,-99 -178,-217 -233,-347 -52,-127 -81,-265 -81,-409 0,-144 29,-282 81,-409 55,-131 134,-249 233,-347l0 -1c97,-98 215,-177 347,-232 127,-53 265,-82 410,-82 144,0 282,29 408,82 131,54 248,134 347,232 1,0 2,1 2,2zm2747 6473c0,-29 -5,-55 -15,-78 -7,-18 -17,-34 -28,-49l-16 -16c-20,-19 -42,-35 -66,-44 -23,-10 -49,-15 -78,-15 -29,0 -56,5 -79,14 -23,10 -45,24 -62,42l-4 3c-18,18 -33,40 -43,65 -9,23 -15,49 -15,78 0,30 6,56 15,79 10,25 25,47 43,65 1,0 2,0 2,1 18,19 40,33 64,43 23,10 50,15 79,15 28,0 55,-5 78,-15l0 0c24,-10 46,-25 66,-44l12 -12c14,-16 25,-35 33,-56 9,-22 14,-48 14,-76zm9533 -13245c-14,-23 -32,-43 -53,-59 -21,-17 -46,-28 -71,-35l-1 0c-26,-7 -53,-9 -79,-6 -26,3 -52,12 -75,26 -23,13 -43,31 -59,51 -16,22 -28,46 -35,72 -7,27 -10,55 -6,81 3,25 11,50 24,73 14,24 32,44 53,60 22,17 46,29 72,35 27,8 54,10 81,6 24,-3 49,-11 73,-25l7 -3c22,-14 41,-32 55,-51 15,-21 26,-44 33,-69 7,-27 10,-55 6,-81 -3,-26 -11,-51 -25,-75zm3289 5700c-12,-16 -25,-30 -40,-42 -22,-16 -46,-28 -72,-35 -25,-6 -51,-8 -77,-5 -24,2 -48,9 -69,20l-9 5c-23,14 -43,32 -59,52 -16,21 -28,46 -35,72 -7,25 -9,52 -5,78 3,25 10,50 23,73l6 10c13,21 30,40 50,55 20,15 44,27 69,34 25,6 51,8 77,6 22,-3 43,-8 63,-18l18 -10c23,-14 42,-31 58,-52 16,-21 27,-45 34,-69l0 -1c6,-25 8,-51 5,-77 -3,-24 -10,-47 -21,-68l-16 -28zm1188 -4143c7,-26 9,-53 6,-79 -4,-25 -12,-51 -26,-74l0 -1c-13,-24 -32,-44 -53,-60 -20,-16 -45,-28 -70,-35 -25,-7 -51,-9 -77,-6 -22,2 -45,8 -67,19l-12 7c-23,13 -43,31 -59,52 -16,21 -28,46 -35,71l0 1c-6,24 -9,50 -6,76 2,22 9,45 19,66l7 13c13,23 31,43 52,59 21,16 46,28 72,35 25,6 52,9 78,6 23,-3 47,-10 69,-21l7 -5c24,-14 44,-32 60,-52 16,-21 28,-46 35,-72zm27018 53226c0,-28 -5,-55 -15,-78 -9,-24 -25,-46 -44,-65 -19,-20 -41,-35 -65,-45 -24,-9 -50,-15 -79,-15 -28,0 -55,6 -78,15 -24,10 -46,25 -65,45 -20,19 -35,41 -45,65 -9,23 -15,50 -15,78 0,29 6,55 15,79 10,24 25,46 44,65 20,19 42,34 66,44 23,10 50,15 78,15 29,0 55,-5 79,-15 23,-10 46,-25 65,-44 19,-19 35,-42 44,-65 10,-24 15,-50 15,-79zm2605 13130c0,-29 -5,-55 -15,-79 -10,-23 -25,-45 -44,-65 -20,-19 -42,-34 -66,-44 -23,-10 -49,-15 -78,-15 -29,0 -55,5 -78,15 -24,10 -46,25 -66,44 -19,20 -34,42 -44,65 -10,24 -15,50 -15,79 0,28 5,55 15,78 10,24 25,46 44,65 20,20 42,35 66,45 23,9 49,15 78,15 29,0 55,-6 78,-15 24,-10 46,-25 66,-45 19,-19 34,-41 44,-65 10,-23 15,-50 15,-78zm554 -758c98,98 178,216 232,348 53,127 82,266 82,410 0,144 -29,283 -81,409 -55,132 -135,250 -233,348 -97,98 -216,178 -347,232 -127,53 -266,82 -410,82 -144,0 -283,-29 -410,-81 -132,-55 -250,-135 -347,-233 -99,-98 -178,-216 -233,-348 -52,-126 -81,-265 -81,-409 0,-144 29,-283 81,-410 55,-131 134,-249 233,-348 62,-62 133,-117 209,-162 37,-22 75,-42 114,-59l0 -2442c-144,93 -284,182 -420,266 -182,113 -358,220 -522,318 5,39 7,78 7,116 0,144 -29,282 -82,409 -54,132 -134,250 -232,348 -98,98 -216,178 -348,232 -127,53 -265,82 -410,82 -144,0 -282,-29 -409,-82 -132,-54 -250,-134 -348,-232 -98,-98 -178,-216 -232,-348 -53,-127 -82,-265 -82,-409 0,-145 29,-283 82,-410 54,-132 134,-250 232,-348 98,-98 216,-177 348,-232 127,-53 265,-82 409,-82 139,0 272,27 396,77 84,33 163,77 234,129 200,-119 415,-249 635,-388 238,-149 489,-312 742,-483l0 -5143c-39,-18 -77,-38 -114,-60 -76,-45 -147,-100 -209,-163 -98,-98 -178,-216 -232,-347 -53,-127 -82,-265 -82,-409 0,-81 10,-162 28,-240 8,-36 18,-72 30,-107l-1205 -1204c-40,16 -82,29 -124,40 -84,21 -173,33 -263,33 -89,0 -178,-12 -262,-33 -42,-11 -83,-24 -123,-39l-1208 1207c12,35 22,70 30,105 5,22 9,45 13,68l15 0 0 170c0,144 -29,282 -82,409 -44,106 -105,204 -180,290l0 6 -52 53c-65,64 -140,122 -224,170 -41,24 -83,44 -126,62l0 3003c39,17 77,37 113,59 54,32 105,69 152,110l6 0 53 52c97,98 176,216 231,348 36,87 61,181 73,279l9 4 0 126c0,144 -29,282 -81,409l0 1c-54,130 -134,248 -232,347 -100,99 -218,179 -348,233 -127,53 -265,82 -410,82 -144,0 -282,-29 -409,-81 -131,-55 -249,-135 -348,-234 -99,-99 -178,-217 -232,-347 -53,-127 -82,-265 -82,-409 0,-145 29,-283 82,-410 54,-130 134,-249 234,-348 62,-62 131,-116 208,-162 36,-21 74,-41 112,-59l0 -3027c-34,-17 -68,-35 -100,-55 -71,-44 -136,-96 -194,-154 -99,-99 -179,-217 -234,-348 -52,-126 -82,-265 -82,-409 0,-81 10,-162 28,-241 9,-36 19,-73 32,-108l-1203 -1202c-41,16 -82,29 -124,40 -84,21 -172,33 -262,33 -91,0 -180,-12 -264,-33 -42,-11 -83,-24 -124,-40l-1204 1204c12,35 22,70 31,107 18,78 27,158 27,240 0,144 -29,283 -81,409 -55,132 -135,250 -233,348l-52 53 -6 0c-47,40 -98,77 -152,109 -36,22 -74,42 -113,59l0 3015c39,17 77,37 114,59 78,46 148,101 209,162 165,165 276,384 305,630l9 4 0 124c0,144 -29,283 -82,410 -54,130 -134,248 -233,348 -99,98 -217,178 -347,232l-1 0c-127,52 -265,81 -409,81 -143,0 -282,-29 -408,-81 -131,-55 -249,-134 -347,-233 -100,-98 -179,-216 -234,-347 -52,-127 -81,-265 -81,-409 0,-145 29,-283 81,-410 55,-131 134,-248 232,-347 63,-62 133,-118 210,-163 37,-22 75,-42 114,-60l0 -3014c-39,-18 -78,-37 -114,-59 -78,-47 -148,-101 -210,-163 -97,-98 -177,-216 -232,-348 -52,-126 -81,-265 -81,-409 0,-81 9,-162 27,-240 8,-36 19,-72 31,-107l-1205 -1204c-40,15 -82,29 -124,40 -85,21 -173,32 -263,32 -144,0 -282,-29 -408,-81 -132,-55 -250,-134 -348,-232l-1 -2c-62,-62 -116,-132 -162,-208 -22,-37 -42,-75 -59,-114l-1989 0c-18,40 -37,78 -59,115 -47,77 -101,147 -163,209l-52 52 -5 0c-86,74 -184,135 -291,180 -127,52 -265,81 -409,81 -139,0 -273,-27 -396,-76 -127,-51 -242,-125 -339,-218l-22 -19c-98,-99 -178,-217 -232,-348 -53,-127 -82,-265 -82,-410 0,-143 29,-280 81,-407 54,-130 133,-248 231,-347 0,-1 2,-3 4,-3 98,-99 216,-178 347,-232 126,-53 264,-82 408,-82 144,0 283,29 410,82 130,54 248,134 347,233 62,62 117,133 162,209 22,36 42,74 59,113l1990 0c17,-39 37,-77 59,-113 46,-76 100,-146 162,-209 99,-99 217,-179 348,-233 127,-53 265,-82 409,-82 144,0 283,29 410,81 132,55 250,135 348,233 98,98 178,216 233,348 52,127 81,266 81,410 0,90 -11,178 -33,263 -10,41 -24,83 -40,123l1181 1180c44,-20 91,-36 139,-49 92,-26 188,-40 286,-40 97,0 193,14 286,40 47,13 94,29 138,48l1181 -1180c-15,-41 -28,-82 -39,-123 -21,-85 -33,-173 -33,-263 0,-144 29,-282 82,-409 54,-131 134,-249 234,-348 98,-98 216,-178 347,-232 127,-53 265,-82 409,-82 143,0 282,29 408,82 107,44 204,105 290,180l6 0 53 52c97,98 176,216 231,348 34,82 58,169 70,260l12 2 0 147c0,91 -11,179 -33,263 -10,42 -24,83 -39,124l1180 1179c45,-19 91,-35 138,-48 92,-26 188,-40 285,-40 98,0 194,14 286,40 48,13 94,30 139,49l1182 -1181c-16,-40 -29,-81 -39,-123 -22,-85 -33,-173 -33,-263 0,-144 29,-283 82,-409 54,-132 134,-250 232,-348 98,-98 216,-178 348,-232 126,-53 265,-82 409,-82 145,0 283,29 410,82 131,54 250,134 348,232 98,98 178,216 232,348l0 0c53,127 82,265 82,409 0,90 -12,178 -33,263 -11,42 -24,83 -39,123l1181 1181c44,-19 91,-36 138,-49 93,-25 188,-39 286,-39 144,0 282,29 409,81 132,55 250,134 348,232l20 23c92,97 166,211 217,338 50,123 77,257 77,397 0,143 -29,282 -82,409 -54,131 -133,249 -232,347 -62,63 -133,118 -209,164 -37,22 -75,41 -114,59l0 809c62,-35 128,-67 197,-93 183,-70 389,-107 620,-107 272,0 510,52 714,147 221,103 402,254 546,443 142,186 244,406 311,649 71,253 103,531 103,819 0,447 -275,929 -705,1410 -410,459 -967,922 -1557,1353 -43,32 -94,69 -152,110l-77 55 0 3027c39,17 77,37 114,59 78,46 148,101 209,162zm-2995 -1963c0,-29 -5,-56 -15,-79 -9,-23 -25,-46 -44,-65 -19,-19 -42,-35 -65,-44 -24,-10 -50,-15 -79,-15 -28,0 -55,5 -78,15 -24,9 -46,25 -65,44 -20,19 -35,42 -45,65 -9,23 -15,50 -15,79 0,28 6,55 15,78 10,23 25,46 45,65 19,19 41,35 65,45 23,9 50,15 78,15 29,0 55,-6 79,-15 23,-10 46,-26 65,-45 19,-19 35,-42 44,-65 10,-23 15,-50 15,-78zm-14527 -10409c0,-29 -5,-55 -15,-78 -7,-19 -18,-36 -32,-52l-13 -13c-19,-19 -41,-35 -65,-44l0 0c-24,-10 -50,-15 -78,-15 -29,0 -56,5 -79,14 -23,10 -45,25 -64,44l-2 1c-18,18 -33,40 -43,65 -9,23 -15,49 -15,78 0,29 6,55 15,78 10,24 25,46 45,66l8 10c17,15 37,27 60,36 22,8 47,13 75,13 29,0 56,-5 79,-15 24,-10 46,-25 65,-43 19,-20 34,-42 44,-67 9,-23 15,-49 15,-78zm16908 2696c19,-19 34,-42 45,-67 9,-23 14,-50 14,-79 0,-28 -4,-54 -13,-76 -8,-22 -21,-42 -37,-60l-9 -8c-19,-19 -41,-34 -65,-44 -23,-9 -49,-15 -78,-15 -27,0 -52,5 -75,14l0 0c-22,8 -41,19 -57,33l-12 13c-18,18 -33,40 -44,65 -9,23 -14,49 -14,78 0,29 5,56 14,79 11,25 26,47 45,66 18,19 40,33 64,43 23,10 50,15 79,15 29,0 56,-5 79,-14 24,-11 46,-25 64,-43zm-5210 -2c18,-18 33,-41 43,-65 10,-23 15,-50 15,-79l0 -21c-2,-20 -7,-39 -14,-57l0 -1c-10,-25 -26,-47 -45,-67 -18,-18 -40,-32 -64,-42 -23,-10 -50,-15 -79,-15 -29,0 -56,5 -79,15 -25,10 -47,24 -65,43 -19,19 -34,41 -44,66 -10,23 -15,50 -15,79 0,29 5,56 14,79 10,23 25,45 44,64 19,20 41,35 66,45 23,9 50,15 79,15 28,0 55,-6 78,-15 25,-10 47,-25 66,-44zm-2602 -2549c19,-19 34,-42 44,-66 10,-23 15,-50 15,-79l0 -25c-2,-18 -7,-35 -14,-51 -11,-25 -26,-48 -45,-67l0 -1c-19,-18 -41,-33 -65,-43l0 0c-24,-10 -50,-15 -78,-15 -30,0 -56,5 -80,15 -24,10 -47,25 -66,44 -18,18 -33,40 -43,65 -9,23 -14,49 -14,78 0,29 5,56 14,79 10,25 25,47 44,66l0 0c19,19 41,33 66,43 23,10 49,15 79,15 29,0 55,-5 78,-14 25,-11 47,-25 65,-43l0 -1zm-2545 2405c0,-29 -5,-55 -15,-79 -10,-23 -25,-45 -44,-65l-8 -8c-18,-16 -39,-29 -60,-38l-1 0c-23,-8 -48,-13 -75,-13 -29,0 -55,5 -78,15 -24,10 -46,25 -66,44 -19,20 -34,42 -44,65 -10,24 -15,50 -15,79 0,28 5,55 15,78 10,24 25,46 44,65 20,20 42,35 66,45 23,9 49,15 78,15 29,0 55,-6 79,-15 24,-10 46,-25 65,-43 19,-20 34,-43 44,-67 10,-23 15,-50 15,-78zm-2662 -2406c18,-18 33,-40 43,-65 9,-23 15,-49 15,-78 0,-29 -6,-56 -15,-79 -10,-24 -25,-46 -45,-66 -19,-19 -41,-34 -65,-44 -23,-10 -50,-15 -79,-15 -29,0 -55,5 -78,15 -25,10 -47,25 -65,43 -19,19 -34,41 -44,66 -10,24 -15,50 -15,80 0,28 5,55 15,78 10,25 25,47 43,65l1 1c18,18 40,33 65,43 23,10 49,15 78,15 30,0 56,-5 80,-15 25,-10 47,-25 66,-44zm7782 7523c19,-19 34,-41 44,-66 10,-23 15,-50 15,-79l0 -26c-2,-18 -7,-35 -14,-52 -10,-24 -26,-47 -45,-66l0 -1c-19,-18 -41,-33 -65,-43l0 0c-23,-10 -50,-15 -78,-15 -29,0 -56,5 -80,15 -24,10 -46,25 -65,44l-1 0c-18,18 -33,40 -43,65 -9,23 -14,49 -14,79 0,29 5,56 14,79 10,24 25,46 45,66 19,19 41,34 64,43 23,10 50,15 79,15 30,0 56,-5 79,-15 25,-10 47,-25 65,-43zm-5178 -1c18,-19 33,-41 43,-65 10,-23 15,-49 15,-78l0 -22c-2,-20 -7,-39 -14,-56 -11,-25 -26,-47 -46,-67l0 0c-18,-19 -40,-34 -65,-44 -23,-10 -49,-15 -78,-15 -29,0 -56,5 -79,15 -25,10 -47,25 -65,43 -19,19 -34,41 -44,66 -10,23 -15,50 -15,80 0,28 5,54 15,77 10,24 25,46 44,66l13 13c16,13 33,24 52,31 23,10 49,15 78,15 30,0 56,-5 80,-15 25,-10 47,-25 66,-44zm10717 -1470c0,20 -2,42 -5,63l-6 31 0 1761c410,-312 787,-632 1077,-937 333,-350 546,-670 546,-918 0,-207 -20,-399 -63,-565 -38,-148 -95,-277 -172,-377 -60,-79 -136,-142 -231,-184 -92,-41 -205,-64 -340,-64 -135,0 -248,23 -340,64 -95,42 -171,105 -231,184 -77,100 -134,229 -172,377 -43,166 -63,358 -63,565zm-86713 -17695c0,-11 -2,-21 -5,-30 -4,-8 -9,-16 -17,-23 -7,-8 -15,-14 -24,-17l-1 0c-8,-4 -18,-5 -29,-5 -11,0 -22,1 -30,5l0 0c-8,3 -16,8 -23,15 -7,7 -12,15 -16,25l-1 1c-3,8 -5,18 -5,29 0,11 2,22 6,30l-1 1c3,8 9,16 16,23l1 1c7,7 15,12 23,16l0 -1c9,4 19,6 30,6 11,0 21,-2 29,-6l1 0c9,-3 17,-9 25,-16l4 -5c5,-6 9,-13 12,-21 3,-8 5,-17 5,-28zm-5060 -5097c0,-11 -2,-21 -5,-29l0 0c-4,-8 -9,-17 -17,-24 -7,-8 -16,-14 -24,-17 -8,-3 -18,-5 -29,-5 -11,0 -21,2 -29,5l-1 0c-8,3 -16,9 -24,17l-1 0c-6,7 -12,15 -16,24l0 0c-3,8 -5,18 -5,29 0,11 2,21 5,29l0 1c4,9 10,17 16,24l1 0c8,7 16,13 24,16l1 0c8,4 18,6 29,6 11,0 21,-2 29,-6 8,-3 17,-9 24,-16 8,-8 13,-16 17,-24 3,-8 5,-18 5,-30zm592 -667c48,48 92,104 131,164 14,23 27,46 39,69l3174 0 -2271 -2271c-25,8 -50,15 -76,21l-1 0c-68,16 -138,24 -208,24l-179 0 0 -18 -30 -7c-196,278 -362,577 -494,894 -128,309 -225,634 -284,972l42 26 1 0c57,37 110,79 156,126zm170 1101c-12,24 -25,47 -39,69 -39,61 -83,116 -131,165 -46,46 -98,88 -156,125l-43 26c59,338 156,663 284,972 132,316 298,616 493,893l34 -7c59,-11 117,-17 176,-17 70,0 140,9 208,24 26,6 52,13 77,21l2270 -2271 -3173 0zm-1243 418c-32,-15 -62,-32 -91,-50 -64,-39 -121,-85 -171,-134 -48,-49 -92,-104 -131,-165 -14,-22 -27,-45 -39,-69l-3422 0c-12,24 -25,47 -39,69 -39,61 -83,116 -131,165 -57,57 -122,107 -192,148 -35,20 -72,38 -110,54 -69,435 -188,852 -351,1246 -167,404 -381,783 -634,1132 15,37 28,76 39,116 20,78 31,158 31,240 0,127 -26,248 -72,360 -48,117 -118,221 -204,307 -87,87 -191,157 -307,205l0 0c-112,46 -234,72 -361,72 -81,0 -162,-11 -240,-31 -40,-11 -78,-24 -116,-39 -348,252 -728,466 -1132,633 -394,164 -811,283 -1246,352 -14,33 -30,66 -48,97 -38,66 -82,127 -133,181l-21 23c-87,87 -191,157 -307,205l0 0c-112,46 -234,72 -361,72 -126,0 -248,-26 -360,-72 -114,-48 -218,-118 -305,-205 -1,0 -2,0 -2,-1 -87,-87 -157,-191 -205,-306 -46,-111 -71,-233 -71,-360 0,-127 25,-248 71,-360l0 -1c48,-116 119,-220 205,-306l53 -53 6 0c33,-28 69,-54 106,-78 23,-14 45,-27 69,-39l0 -3422c-24,-12 -47,-25 -69,-40 -61,-38 -117,-82 -165,-130 -86,-87 -156,-191 -204,-307 -47,-112 -72,-234 -72,-361 0,-127 25,-249 72,-361 48,-116 118,-220 204,-306l53 -53 6 0c33,-28 69,-54 106,-78 22,-14 45,-27 69,-39l0 -3422c-24,-12 -46,-26 -69,-40 -59,-37 -114,-81 -163,-130 -1,0 -2,-1 -2,-2 -87,-87 -157,-191 -205,-306 -46,-111 -71,-233 -71,-360 0,-127 25,-249 72,-361 48,-116 118,-220 204,-306l53 -53 6 0c74,-63 158,-114 248,-152 112,-46 234,-72 360,-72 127,0 249,26 361,72l0 0c116,48 220,118 307,205 57,57 107,121 148,192 20,34 38,71 54,109 435,69 852,188 1246,351 404,168 784,382 1132,634 37,-15 76,-28 116,-38 78,-21 158,-32 240,-32 127,0 249,26 361,72 116,48 220,118 307,204 86,88 156,192 204,308 46,111 72,233 72,360 0,82 -11,162 -31,240 -11,40 -24,78 -39,116 253,349 467,728 634,1132 163,394 282,811 351,1246 38,16 75,34 110,55 70,41 135,91 192,148 48,48 92,104 131,164 14,23 27,46 39,69l3422 0c12,-23 25,-46 39,-69 39,-61 83,-116 131,-164 75,-75 164,-138 262,-185 67,-438 187,-860 351,-1258 168,-406 383,-788 637,-1138 -16,-38 -29,-76 -39,-116 -21,-78 -32,-159 -32,-240 0,-127 26,-249 72,-361 49,-116 118,-220 205,-307l24 -21c85,-80 186,-144 296,-188 109,-43 226,-67 347,-67 82,0 162,11 240,32 40,10 79,23 116,39 348,-253 728,-467 1132,-634 393,-164 811,-283 1245,-351 16,-39 34,-75 55,-110 41,-71 91,-135 148,-192l52 -53 7 0c74,-63 157,-114 248,-152 112,-46 234,-72 360,-72 127,0 249,26 361,72 117,49 221,119 307,205 86,86 156,190 204,307 47,112 72,234 72,360 0,121 -24,238 -67,347 -44,112 -109,213 -190,299l-14 15 -5 7c-49,48 -104,92 -165,130 -22,14 -45,28 -68,40l0 3421c24,13 47,26 69,40 60,39 115,83 164,131 87,88 157,192 205,307 47,111 72,233 72,360 0,127 -25,249 -72,361 -48,115 -118,219 -206,307 -49,49 -104,93 -164,130 -22,14 -45,27 -68,40l0 3421c24,12 47,25 69,40 61,38 116,82 165,131 86,86 156,190 204,306l0 1c47,112 72,233 72,360 0,121 -23,238 -67,347 -44,111 -108,212 -188,297l-21 23c-87,87 -191,157 -307,205l0 0c-112,46 -234,72 -361,72 -126,0 -248,-26 -360,-72 -115,-48 -218,-118 -305,-205 -1,0 -2,0 -2,-1 -56,-57 -106,-121 -147,-191 -21,-35 -39,-71 -55,-109 -434,-69 -852,-188 -1246,-351 -405,-168 -785,-381 -1133,-634 -38,15 -76,28 -116,39 -78,20 -158,31 -240,31l-179 0 0 -18c-64,-12 -124,-31 -182,-55 -116,-48 -220,-118 -306,-205 -87,-87 -157,-191 -205,-306 -46,-112 -72,-234 -72,-360 0,-82 11,-162 32,-240 10,-40 23,-78 39,-116 -254,-350 -469,-731 -637,-1138 -164,-398 -284,-820 -351,-1258zm5540 -5949c0,-11 -2,-20 -5,-29l0 0c-4,-8 -10,-17 -17,-24 -14,-14 -33,-22 -54,-22 -12,0 -22,2 -30,5 -9,4 -17,9 -24,16 -7,7 -12,15 -16,24l0 1c-3,8 -5,18 -5,29 0,11 2,22 6,31l-1 0c3,7 9,15 16,23l1 0c7,8 15,14 23,17l0 -1c9,4 19,6 30,6 11,0 21,-2 29,-6l1 0c8,-3 16,-9 24,-16l5 -5c5,-6 9,-13 12,-21 3,-7 5,-17 5,-28zm-509 838c-24,-12 -46,-26 -69,-40 -61,-38 -116,-82 -164,-130l-1 -1c-40,-41 -78,-86 -112,-136l-19 -29c-343,59 -673,156 -985,285l-1 0c-318,132 -620,299 -900,497l8 34c11,58 16,117 16,175 0,70 -8,140 -23,208 -6,26 -13,52 -21,77l2271 2271 0 -3211zm0 5307l-2271 2271c8,25 15,51 21,77 15,68 23,138 23,208 0,58 -5,117 -16,175l-8 34c280,198 582,365 901,497 312,130 642,226 985,285l20 -29c34,-50 71,-96 112,-136l53 -53 6 0c33,-28 68,-55 105,-78l1 0c22,-14 45,-27 68,-39l0 -3212zm379 -1101c-7,7 -12,15 -16,22 -3,10 -5,20 -5,31 0,11 2,20 5,28 2,8 6,15 11,20l6 6c7,7 16,13 25,16 8,4 18,6 29,6 12,0 23,-2 31,-5 9,-4 17,-10 24,-16 6,-7 11,-15 15,-24l1 0c3,-8 5,-18 5,-31 0,-12 -2,-22 -5,-30l-1 0c-3,-9 -9,-17 -15,-23 -7,-8 -15,-13 -25,-17 -8,-3 -18,-5 -30,-5 -12,0 -22,2 -31,5 -9,4 -17,10 -24,17zm-3603 -3605c-7,7 -12,15 -16,24 -3,8 -5,18 -5,30 0,12 2,22 5,30l0 1c3,8 9,16 17,24l0 0c6,7 15,12 24,16 5,2 10,4 16,5l13 0c12,0 22,-2 30,-5 9,-4 17,-9 23,-16 7,-7 13,-15 17,-24l0 -1c3,-8 5,-18 5,-30 0,-11 -2,-20 -5,-28 -3,-8 -7,-15 -12,-21l-5 -4c-7,-8 -16,-14 -24,-17l0 0c-9,-4 -18,-5 -29,-5 -11,0 -21,1 -29,4 -7,3 -13,7 -19,11l-6 6zm0 7208c-7,7 -12,15 -16,24 -3,8 -5,18 -5,30 0,11 2,22 6,31l-1 1c3,7 9,15 17,23l0 1c6,6 15,12 23,16l1 0c5,2 10,3 16,4l13 0c12,0 23,-2 30,-5 9,-3 16,-9 23,-16 7,-7 13,-15 17,-24l0 -1c3,-8 5,-18 5,-30 0,-11 -2,-21 -5,-29 -4,-9 -10,-17 -16,-24l-1 0c-13,-14 -32,-22 -53,-22 -12,0 -22,2 -30,5 -9,4 -17,9 -24,16zm-11520 -8647c0,-11 -2,-20 -5,-29l0 0c-4,-8 -9,-17 -17,-24 -8,-8 -16,-14 -24,-17l-1 0c-8,-3 -18,-5 -29,-5 -11,0 -21,2 -29,5 -10,4 -18,9 -25,16 -7,7 -12,15 -16,24l0 1c-3,8 -5,18 -5,29 0,11 2,22 6,31l-1 0c3,8 9,16 17,23l1 3c7,5 14,10 22,13l0 1c8,3 18,5 30,5 12,0 22,-2 30,-6 8,-3 16,-9 24,-16l5 -5c5,-6 9,-13 12,-20l0 -1c3,-8 5,-17 5,-28zm723 502l-11 17c-29,44 -62,86 -99,125l-21 24c-48,48 -104,92 -164,130 -23,14 -46,28 -69,40l0 3211 2270 -2271c-8,-25 -15,-51 -21,-77 -15,-68 -24,-138 -24,-208 0,-59 6,-117 17,-176l7 -34c-280,-197 -581,-364 -899,-496 -313,-129 -643,-226 -986,-285zm4374 4595c0,-11 -2,-21 -5,-29l0 0c-4,-8 -9,-17 -17,-24 -8,-8 -16,-14 -24,-17 -8,-3 -18,-5 -30,-5 -11,0 -22,2 -30,5 -8,3 -16,8 -22,14l-1 1c-8,8 -13,17 -17,25l0 1c-3,8 -5,18 -5,29 0,11 2,21 5,29l0 1c4,8 9,16 17,24 8,7 16,13 24,16l1 0c8,4 17,6 28,6 12,0 22,-2 30,-6 8,-3 16,-9 24,-16 8,-8 13,-16 17,-24 3,-8 5,-18 5,-30zm-577 799l-30 -19c-50,-34 -95,-72 -136,-112 -48,-49 -92,-104 -131,-165 -14,-22 -27,-45 -39,-69l-3211 0 2270 2271c26,-8 51,-15 77,-21 69,-16 138,-24 208,-24 59,0 118,6 176,17l34 7c197,-279 364,-581 496,-900 130,-313 226,-643 286,-985zm-336 -1233c12,-23 25,-46 39,-69 39,-61 83,-116 131,-164l53 -53 6 0c25,-21 51,-41 78,-59l29 -19c-59,-343 -156,-674 -286,-986 -131,-319 -299,-620 -496,-900l-34 7c-58,11 -117,17 -176,17 -70,0 -139,-8 -208,-24 -26,-6 -51,-13 -77,-21l-2270 2271 3211 0zm-4184 434c0,-11 -2,-21 -5,-29l0 0c-4,-8 -9,-17 -17,-24 -8,-8 -16,-14 -24,-17 -8,-3 -18,-5 -30,-5 -11,0 -22,2 -30,5 -9,4 -17,9 -24,16 -7,7 -12,15 -16,24l0 1c-3,8 -5,18 -5,29 0,12 2,22 5,30 4,8 9,16 17,24 7,7 15,13 24,16l1 0c8,4 18,6 28,6 12,0 22,-2 30,-6 8,-3 16,-9 24,-16 8,-8 13,-16 17,-24 3,-8 5,-18 5,-30zm359 1048l0 3211c23,13 46,26 69,40 60,38 116,82 164,131 40,40 78,86 112,136l19 29c343,-59 672,-155 985,-285l1 0c318,-132 619,-299 899,-496l-7 -34c-11,-59 -17,-118 -17,-176 0,-70 8,-140 24,-209 6,-26 13,-51 21,-77l-2270 -2270zm3245 -4652c0,-11 -2,-21 -6,-29l0 -1c-3,-8 -9,-16 -16,-24 -8,-7 -16,-13 -24,-16 -8,-4 -18,-6 -30,-6 -11,0 -21,2 -29,6l0 0c-9,3 -17,9 -24,16 -8,8 -14,16 -17,24l0 1c-3,8 -5,18 -5,29 0,11 2,21 5,30l0 0c3,8 8,16 16,23l0 1c8,7 15,12 24,16l0 0c8,4 18,5 30,5 12,0 22,-2 30,-5 8,-3 16,-9 24,-17l5 -4c5,-6 9,-13 12,-21 3,-8 5,-17 5,-28zm0 7208c0,-11 -2,-21 -6,-30 -3,-8 -9,-16 -16,-24 -8,-7 -16,-13 -24,-16 -8,-4 -18,-6 -30,-6 -12,0 -22,2 -30,6l0 0c-9,3 -16,8 -23,15 -7,7 -12,15 -16,25l-1 1c-3,8 -5,17 -5,29 0,11 2,21 5,29l0 1c3,8 9,16 17,23 13,14 32,22 53,22 11,0 21,-1 29,-5l1 0c8,-3 16,-9 24,-17 7,-7 13,-15 16,-23l0 -1c4,-8 6,-18 6,-29zm-3604 1493c0,-11 -2,-21 -5,-30 -4,-8 -9,-16 -17,-23 -8,-8 -16,-14 -24,-17 -8,-4 -18,-5 -30,-5 -11,0 -21,1 -29,5l-1 0c-8,3 -16,8 -23,15 -7,7 -12,15 -16,25l-1 1c-3,8 -5,18 -5,29 0,11 2,22 6,30l-1 1c3,7 9,16 17,23l1 3c7,6 14,10 22,14l0 -1c9,4 19,6 30,6 11,0 21,-2 29,-6l1 0c8,-3 16,-9 24,-16l5 -5c5,-6 9,-13 12,-21 3,-8 5,-17 5,-28zm12176 -24696c0,-28 -5,-55 -15,-78 -10,-23 -25,-46 -44,-65 -20,-19 -42,-35 -66,-45 -23,-9 -49,-14 -78,-14 -29,0 -55,5 -78,14 -24,10 -46,26 -66,45 -19,19 -34,42 -44,65 -10,23 -15,50 -15,78 0,29 5,56 15,79 10,23 25,46 44,65 20,19 42,35 66,45 23,9 49,14 78,14 29,0 55,-5 78,-14 24,-10 46,-26 66,-45 19,-19 34,-42 44,-65 10,-23 15,-50 15,-79zm-3604 3604c0,-28 -5,-55 -15,-78 -10,-23 -25,-46 -44,-65 -20,-19 -42,-35 -66,-45 -23,-9 -49,-15 -78,-15 -29,0 -55,6 -78,15 -24,10 -46,26 -65,45 -20,19 -35,42 -45,65 -10,23 -15,50 -15,78 0,29 5,56 15,79 10,23 25,46 45,65 19,19 41,35 65,44 23,10 49,15 78,15 29,0 55,-5 78,-15 24,-9 46,-25 66,-44 19,-19 34,-42 44,-65 10,-23 15,-50 15,-79zm797 -385c15,40 28,81 39,123 21,85 32,173 32,262 0,145 -29,283 -81,410 -55,132 -134,250 -232,348 -98,98 -216,177 -348,232 -127,53 -266,82 -410,82 -144,0 -283,-29 -410,-82 -131,-55 -250,-134 -347,-232 -99,-98 -178,-216 -233,-348 -52,-127 -81,-265 -81,-410 0,-144 29,-282 81,-409 55,-132 134,-250 233,-348 98,-98 216,-178 347,-232 127,-53 266,-82 410,-82 90,0 178,11 263,33 42,10 83,24 123,39l2219 -2219c-16,-40 -29,-81 -39,-123 -22,-85 -33,-173 -33,-263 0,-144 29,-282 81,-409 55,-132 134,-250 233,-348 98,-98 216,-178 347,-232 127,-53 266,-82 410,-82 144,0 283,29 410,82 131,54 249,134 348,232 97,98 177,216 232,348 52,127 81,265 81,409 0,90 -11,178 -32,263 -11,42 -24,83 -40,123l2184 2183c40,-15 81,-28 123,-39 85,-21 173,-32 263,-32 101,0 199,14 293,41 49,14 97,31 143,52l2124 -2125c-20,-47 -38,-94 -51,-143l0 -1c-27,-93 -41,-192 -41,-292 0,-144 29,-283 81,-409 55,-133 134,-251 232,-349l23 -20c97,-92 212,-166 338,-217 124,-49 258,-76 397,-76 144,0 283,29 409,81 132,55 250,134 348,232 98,99 178,217 232,348 53,127 82,265 82,410 0,69 -7,138 -20,205 -6,28 -12,56 -20,83l2320 2319c36,-13 73,-24 110,-33 79,-18 161,-28 245,-28 83,0 165,9 244,28 38,9 74,20 110,32l2207 -2207c-12,-36 -23,-73 -32,-110 -18,-79 -28,-162 -28,-245 0,-144 29,-282 81,-409l0 -1c55,-131 134,-249 233,-347 98,-99 216,-178 347,-233 127,-52 266,-81 410,-81 144,0 283,29 410,81 132,55 250,135 348,233l0 0c98,99 178,217 232,347 52,127 81,266 81,410 0,72 -7,145 -22,217 -6,30 -14,60 -23,90l2225 2225c40,-16 81,-29 122,-40 85,-21 173,-33 263,-33 145,0 283,30 410,82 131,55 249,134 348,234 98,98 177,216 231,347 35,85 60,177 72,272l10 3 0 133c0,144 -29,282 -81,409l0 1c-54,130 -134,248 -232,347 -99,99 -218,179 -348,233 -127,53 -265,82 -410,82 -144,0 -282,-29 -409,-82 -130,-54 -248,-134 -348,-234 -98,-98 -178,-216 -232,-346 -52,-127 -81,-265 -81,-409 0,-90 11,-178 32,-262 11,-42 24,-84 39,-123l-2178 -2178c-49,23 -100,43 -152,58 -98,30 -201,45 -307,45 -96,0 -190,-13 -280,-37 -46,-12 -91,-28 -135,-47l-2170 2171c18,44 34,89 46,134l0 1c25,91 38,185 38,280 0,143 -29,280 -81,407 -54,130 -133,248 -231,347 0,1 -3,3 -4,3 -99,99 -216,178 -347,232 -126,53 -264,82 -408,82 -143,0 -281,-29 -407,-81 -130,-54 -248,-133 -346,-231l-5 -4c-98,-99 -178,-216 -232,-347 -52,-126 -81,-265 -81,-408 0,-96 13,-190 38,-281 13,-47 28,-92 47,-135l-2244 -2243c-51,26 -104,47 -159,64 -101,32 -207,49 -317,49 -77,0 -155,-9 -232,-26l0 1c-34,-8 -68,-17 -101,-28l-2189 2189c11,33 20,66 28,101 17,76 26,154 26,231 0,144 -29,283 -82,410 -54,131 -134,249 -232,347 -98,99 -216,178 -348,233 -126,52 -265,81 -409,81 -145,0 -283,-29 -410,-81 -132,-55 -250,-134 -348,-233 -98,-97 -177,-216 -232,-348 -53,-126 -82,-265 -82,-409 0,-90 12,-178 33,-263 11,-42 24,-83 39,-123l-2183 -2183c-40,15 -81,28 -123,39 -85,21 -173,33 -263,33 -90,0 -178,-12 -262,-33 -42,-11 -84,-24 -123,-39l-2219 2219zm20770 531c19,-19 34,-41 44,-66 10,-23 15,-50 15,-79l0 -21c-2,-21 -7,-40 -14,-58 -11,-25 -26,-48 -45,-67 -18,-18 -40,-33 -65,-43 -22,-9 -49,-14 -78,-14 -30,0 -56,5 -79,14 -25,10 -47,25 -65,43l0 1c-19,19 -34,42 -44,66 -10,23 -15,50 -15,79 0,29 5,56 15,79 10,24 25,46 44,65l0 1c18,18 40,33 65,43 23,9 49,15 78,15 30,0 56,-6 79,-15l1 0c23,-9 45,-24 64,-43zm-3577 -3676c0,-29 -5,-55 -15,-78 -10,-24 -25,-46 -44,-66 -19,-19 -41,-34 -66,-44 -23,-10 -49,-15 -78,-15 -29,0 -55,5 -78,15 -24,10 -46,25 -66,44 -19,20 -34,42 -44,66 -10,23 -15,49 -15,78 0,29 5,55 15,78 10,24 25,46 44,66 20,19 42,34 66,44 23,10 49,15 78,15 29,0 56,-5 79,-15 24,-10 46,-25 65,-43 19,-19 34,-42 44,-67 10,-23 15,-49 15,-78zm-3573 3573c0,-30 -5,-56 -14,-79 -10,-24 -25,-46 -44,-65l-1 -1c-18,-18 -40,-33 -65,-43 -22,-10 -49,-15 -78,-15 -29,0 -56,5 -79,15 -24,10 -47,25 -65,43 0,1 0,1 -1,1 -18,18 -33,40 -43,65 -10,23 -15,49 -15,79 0,29 5,55 15,78 10,25 25,47 43,65 1,0 1,1 1,2 18,18 41,33 65,43 23,9 50,14 79,14 29,0 56,-5 78,-14 25,-10 47,-25 65,-43l1 -2c19,-19 34,-41 44,-65 9,-23 14,-49 14,-78zm-3765 -3473c20,-19 35,-41 45,-65 9,-23 15,-50 15,-79 0,-29 -6,-55 -15,-78 -10,-24 -25,-46 -45,-66 -19,-19 -41,-34 -65,-44l-1 0c-23,-10 -49,-15 -77,-15 -28,0 -53,5 -76,13 -22,9 -42,22 -61,38l-7 8c-19,19 -34,42 -44,65 -10,23 -15,50 -15,79 0,28 5,55 15,78 10,24 25,46 44,65 20,20 42,35 66,45 23,9 49,15 78,15 29,0 56,-6 79,-15 23,-10 45,-25 64,-44zm-3479 3395c0,-29 -6,-56 -15,-79l0 -1c-9,-23 -25,-44 -44,-64l-1 -1c-19,-19 -41,-34 -65,-43 -23,-10 -49,-15 -78,-15 -29,0 -55,5 -79,15 -24,10 -46,25 -65,44 -19,19 -34,42 -44,66 -10,23 -15,50 -15,78 0,28 5,55 14,78 11,24 26,46 45,66 19,19 41,34 65,44 24,10 50,15 79,15 28,0 55,-5 78,-15 24,-10 46,-25 65,-44 20,-20 35,-42 45,-66 9,-23 15,-49 15,-78zm-7173 -4212c0,-29 -5,-55 -15,-79 -10,-24 -25,-46 -44,-65l0 -1c-19,-18 -41,-33 -66,-43 -23,-10 -49,-15 -78,-15 -29,0 -55,5 -78,15 -25,10 -47,25 -66,44l-8 7c-16,19 -29,39 -37,61l0 1c-9,22 -14,47 -14,75 0,28 6,55 15,78 10,24 25,46 45,65 19,20 41,35 65,45 23,9 49,15 78,15 29,0 55,-6 78,-15 24,-10 46,-25 66,-45 19,-19 34,-41 44,-65 10,-23 15,-50 15,-78zm797 -386c15,40 28,81 39,123 21,85 32,173 32,263 0,144 -29,283 -81,409 -55,132 -134,250 -232,348 -99,98 -217,178 -348,232 -127,53 -266,82 -410,82 -144,0 -283,-29 -410,-82 -131,-54 -249,-134 -347,-232 -99,-98 -178,-216 -233,-348 -52,-126 -81,-265 -81,-409 0,-139 27,-273 77,-397 50,-127 124,-241 217,-339l20 -22c98,-98 216,-178 347,-232 127,-53 266,-82 410,-82 90,0 178,12 263,33 42,11 83,24 123,39l2219 -2219c-16,-40 -29,-81 -39,-123 -22,-84 -33,-172 -33,-262 0,-145 29,-283 81,-410 55,-131 134,-249 233,-348 98,-98 216,-177 347,-232 127,-53 266,-82 410,-82 144,0 283,29 410,82 131,55 249,134 348,232 97,98 177,216 232,348 52,127 81,265 81,410 0,90 -11,178 -32,262 -11,42 -24,83 -40,123l2184 2184c40,-16 81,-29 123,-39 85,-22 173,-33 263,-33 101,0 199,14 293,41 49,14 97,31 143,52l2125 -2125c-21,-46 -38,-94 -52,-143 -27,-93 -41,-192 -41,-293 0,-144 29,-282 81,-409 55,-132 134,-250 232,-348l23 -21c97,-92 212,-166 338,-216 124,-50 258,-77 397,-77 144,0 282,29 409,82l1 0c131,54 249,134 347,232 98,99 178,217 232,348 53,127 82,265 82,409 0,70 -7,139 -20,206 -6,28 -12,55 -20,82l2320 2319c36,-13 73,-24 110,-33 80,-18 161,-28 245,-28 83,0 165,10 244,28 37,9 74,20 110,33l2207 -2208c-12,-35 -23,-72 -32,-110 -18,-79 -28,-161 -28,-245 0,-144 29,-282 81,-409 55,-132 135,-250 233,-348l0 0c99,-99 217,-178 347,-232l1 0c127,-53 265,-82 409,-82 139,0 273,27 397,77 126,50 241,125 338,217l23 21c98,98 178,216 232,347l0 0c52,127 81,265 81,409 0,72 -7,145 -22,217 -6,30 -14,60 -23,90l2225 2225c40,-16 81,-29 123,-39 84,-22 172,-33 262,-33 145,0 283,29 410,81 131,55 249,135 348,234 98,98 177,216 231,347 36,87 61,181 73,279l9 3 0 127c0,143 -29,282 -81,408 -55,132 -134,250 -232,348 -99,99 -218,179 -348,234 -127,52 -265,81 -410,81 -144,0 -282,-29 -409,-81 -130,-55 -248,-135 -348,-234 -98,-99 -178,-217 -232,-347 -52,-127 -81,-265 -81,-409 0,-90 11,-178 32,-262 11,-42 24,-83 39,-123l-2178 -2178c-49,23 -100,43 -152,59 -98,29 -201,45 -307,45 -96,0 -190,-13 -280,-38 -46,-12 -91,-28 -135,-46l-2170 2170c18,44 34,89 46,135l0 0c25,91 38,185 38,280 0,143 -29,280 -81,407 -54,130 -133,248 -231,347 0,1 -3,3 -4,3 -99,99 -216,178 -347,232 -126,53 -264,82 -408,82 -143,0 -281,-29 -407,-81 -131,-54 -248,-133 -347,-231 -1,0 -4,-2 -4,-4 -98,-98 -178,-216 -232,-346 -52,-127 -81,-265 -81,-409 0,-95 13,-189 38,-281l-1 0c13,-46 29,-91 48,-135l-2243 -2242c-51,25 -105,47 -160,64 -101,31 -208,48 -317,48 -77,0 -155,-9 -232,-26 -34,-7 -68,-16 -100,-27l-2189 2189c10,33 20,66 27,100 17,77 26,155 26,232 0,139 -27,273 -77,397 -50,125 -124,240 -216,337l-21 24c-98,97 -216,177 -348,232 -126,53 -265,82 -409,82 -145,0 -283,-29 -410,-82 -132,-55 -250,-134 -348,-232 -98,-98 -177,-216 -232,-348 -53,-127 -82,-266 -82,-410 0,-90 12,-178 33,-262 11,-43 24,-84 39,-124l-2183 -2183c-40,16 -81,29 -123,39 -85,22 -173,33 -263,33 -90,0 -178,-11 -262,-33 -42,-10 -84,-23 -123,-39l-2219 2219zm20770 531c19,-18 34,-41 44,-66 10,-23 15,-50 15,-79l0 -21c-2,-20 -7,-40 -14,-57 -11,-26 -26,-49 -45,-67 -18,-19 -40,-33 -64,-43 -23,-10 -50,-15 -79,-15 -30,0 -56,5 -79,14 -25,11 -47,26 -65,44l0 0c-19,20 -34,42 -44,66 -10,23 -15,50 -15,79 0,29 5,56 15,79 10,24 25,46 44,66l0 0c18,18 40,33 65,43 23,10 49,15 78,15 30,0 56,-5 79,-15 24,-9 46,-24 65,-43zm-3577 -3676c0,-28 -5,-55 -15,-78 -10,-24 -25,-46 -44,-65l-7 -8c-18,-16 -39,-29 -62,-38 -22,-9 -47,-14 -75,-14 -29,0 -55,6 -78,15 -24,10 -46,25 -66,45 -19,19 -34,41 -44,65 -10,23 -15,50 -15,78 0,29 5,55 15,79 10,23 25,46 44,65 20,19 42,35 66,44 23,10 49,15 78,15 29,0 55,-5 78,-15 25,-10 47,-25 66,-44 19,-19 34,-42 44,-65 10,-24 15,-50 15,-79zm-3573 3573c0,-29 -5,-56 -14,-79 -10,-24 -25,-46 -44,-64l-1 -2c-18,-18 -40,-33 -65,-43 -22,-10 -49,-15 -78,-15 -30,0 -56,5 -79,15 -24,10 -47,25 -65,43 0,1 0,2 -1,2 -18,18 -33,40 -43,64 -10,23 -15,50 -15,79 0,29 5,56 15,79 10,24 25,46 43,64 1,0 1,1 1,2 18,18 41,33 65,43 23,9 50,15 79,15 29,0 56,-6 78,-15 25,-10 47,-25 65,-43l1 -2c19,-19 34,-41 44,-64 9,-23 14,-50 14,-79zm-3764 -3473c19,-18 34,-41 44,-65 9,-23 15,-50 15,-79 0,-29 -6,-55 -15,-78 -10,-24 -25,-46 -45,-65 -19,-19 -41,-35 -65,-45 -23,-9 -50,-15 -78,-15 -28,0 -54,5 -76,14 -22,8 -42,21 -60,37l-8 8c-19,20 -34,42 -44,66 -10,23 -15,49 -15,78 0,29 5,56 15,79 10,24 25,47 43,65l1 1c18,18 41,33 65,43 23,10 50,15 79,15 29,0 55,-5 78,-15 25,-10 47,-25 66,-44zm-3480 3395c0,-28 -6,-55 -15,-78 -10,-24 -25,-46 -45,-65 -19,-20 -41,-35 -65,-45 -23,-9 -50,-15 -78,-15 -29,0 -55,6 -79,15 -23,10 -46,25 -65,45 -19,19 -35,41 -44,65 -10,23 -15,50 -15,78 0,29 5,55 15,78 9,24 25,46 44,66 19,19 42,34 65,44 24,10 50,15 79,15 28,0 55,-5 78,-15 24,-10 46,-25 65,-44l13 -12c14,-16 25,-35 33,-56 9,-22 14,-48 14,-76zm-3569 -3568c0,-29 -5,-55 -15,-78 -10,-24 -25,-46 -44,-66 -20,-19 -42,-34 -66,-44 -23,-10 -49,-15 -78,-15 -29,0 -55,5 -78,15 -24,10 -46,25 -66,44 -19,20 -34,42 -44,66 -10,23 -15,49 -15,78 0,28 5,55 15,78 10,24 25,46 44,65 20,20 42,35 66,45 23,9 49,15 78,15 29,0 55,-6 78,-15 24,-10 46,-25 66,-45 19,-19 34,-41 44,-65 10,-23 15,-50 15,-78zm74684 8304c0,-29 -5,-56 -15,-79 -10,-24 -25,-47 -44,-65 -20,-19 -42,-35 -66,-45 -23,-9 -49,-14 -78,-14 -28,0 -55,5 -78,14 -24,10 -47,26 -65,44l-1 1c-19,19 -34,41 -44,65 -9,23 -15,50 -15,79 0,28 6,55 15,78 10,23 25,46 45,65 18,19 41,34 65,45 23,9 50,14 78,14 29,0 55,-5 78,-14 24,-10 46,-26 66,-45 19,-19 34,-42 44,-65 10,-23 15,-50 15,-78zm3140 -6420c0,-29 -6,-55 -15,-79 -10,-23 -25,-46 -45,-65 -19,-19 -41,-35 -65,-44 -23,-10 -50,-15 -78,-15 -29,0 -55,5 -78,15 -24,9 -46,25 -66,44 -19,19 -34,42 -44,65 -10,24 -15,50 -15,79 0,28 5,55 15,78 10,24 25,46 44,65 20,20 42,35 66,45 23,9 49,15 78,15 28,0 55,-6 78,-15 24,-10 46,-25 65,-45 20,-19 35,-41 45,-65 9,-23 15,-50 15,-78zm554 -758c62,62 117,132 163,209 22,37 42,75 59,114l1388 0c18,-39 38,-77 60,-114 46,-77 101,-147 162,-209 98,-98 216,-178 348,-232l1 0c126,-53 265,-82 408,-82 145,0 283,29 410,82 132,55 250,134 348,232 98,98 178,216 232,348 53,127 82,265 82,410 0,144 -29,282 -82,409 -54,132 -134,250 -232,348 -61,62 -132,116 -209,163 -37,21 -75,41 -114,59l0 1388c39,18 77,37 114,59 77,47 148,101 209,163 98,98 178,216 232,348 53,126 82,265 82,409 0,139 -27,273 -77,397 -50,126 -124,240 -216,337l-22 24c-98,98 -216,177 -347,232 -127,53 -265,82 -410,82 -144,0 -282,-29 -409,-82 -131,-54 -249,-134 -347,-232l-1 0c-98,-98 -178,-217 -232,-348 -53,-127 -82,-265 -82,-410 0,-144 29,-283 82,-409 54,-132 134,-250 232,-348 61,-62 132,-116 209,-163 37,-22 75,-41 114,-59l0 -1319 -5035 5035c11,34 20,68 28,103 17,77 27,155 27,234 0,144 -30,282 -82,409 -55,132 -135,250 -232,348 -99,98 -217,178 -348,232 -127,53 -266,82 -410,82 -144,0 -283,-29 -409,-82 -132,-54 -250,-134 -348,-232l0 -1c-99,-98 -178,-216 -233,-347 -52,-127 -81,-265 -81,-409 0,-144 29,-283 81,-409l0 -1c55,-131 134,-249 233,-347l0 -1c92,-92 201,-168 323,-222l0 -5900c-39,-18 -77,-38 -114,-60 -76,-45 -146,-100 -209,-163 -98,-98 -178,-216 -232,-347 -53,-127 -82,-265 -82,-409 0,-81 10,-162 28,-240 8,-36 18,-72 30,-107l-1205 -1204c-40,16 -81,29 -124,40 -84,21 -172,33 -262,33 -90,0 -178,-12 -263,-33 -42,-11 -83,-24 -123,-39l-1207 1207c11,34 21,70 29,106 18,77 28,157 28,237 0,144 -29,282 -82,409 -55,132 -134,251 -232,348l-23 22c-65,60 -136,113 -213,156 -36,20 -75,39 -114,55l0 5955c39,18 77,37 114,59 78,47 148,101 210,163 97,98 177,216 231,348 53,126 82,265 82,409 0,144 -29,282 -81,409 -55,131 -134,249 -232,347 -100,99 -218,179 -348,234 -127,53 -265,82 -410,82 -144,0 -282,-29 -409,-82 -131,-54 -249,-134 -348,-234 -99,-99 -178,-216 -232,-347l0 0c-53,-127 -82,-265 -82,-409 0,-144 29,-283 82,-409 54,-131 134,-249 234,-348 62,-62 132,-117 208,-162 36,-22 74,-42 113,-59l0 -5980c-35,-17 -68,-35 -101,-55 -71,-44 -136,-96 -194,-154l0 0c-99,-98 -179,-216 -233,-348 -53,-127 -82,-265 -82,-409 0,-81 9,-162 27,-241 9,-36 19,-72 32,-108l-1203 -1202c-41,16 -82,29 -124,40 -84,21 -172,33 -262,33 -91,0 -179,-12 -264,-33 -42,-11 -83,-24 -124,-40l-1204 1204c12,35 22,70 31,107 18,78 27,159 27,240 0,144 -29,283 -81,409 -55,132 -135,250 -233,348 -92,93 -201,168 -323,222l0 5967c39,17 77,37 113,59 76,45 147,100 209,162 1,0 3,2 3,3 98,99 177,217 231,348 52,126 81,264 81,407 0,144 -29,282 -82,409 -54,131 -134,249 -234,348 -98,98 -216,178 -347,232 -126,53 -265,82 -409,82 -144,0 -282,-29 -408,-82 -131,-54 -248,-133 -347,-232 -1,0 -2,-1 -2,-2 -98,-98 -178,-216 -232,-346 -52,-127 -81,-265 -81,-409 0,-144 29,-282 81,-409 55,-131 134,-249 232,-347 63,-63 133,-118 210,-164 36,-22 75,-42 114,-59l0 -5967c-39,-18 -78,-37 -114,-59 -78,-47 -148,-101 -210,-163 -98,-98 -177,-216 -232,-348 -52,-126 -81,-265 -81,-409 0,-81 9,-162 27,-240 8,-36 18,-72 30,-107l-1204 -1204c-40,16 -81,29 -123,40 -85,21 -173,33 -263,33 -144,0 -283,-29 -409,-82 -131,-54 -248,-134 -347,-232l-2 -1c-98,-98 -177,-216 -232,-347 -52,-127 -81,-265 -81,-409 0,-144 29,-283 81,-409 55,-131 134,-249 232,-347 100,-100 218,-180 348,-234 127,-53 265,-82 410,-82 144,0 282,29 409,81 132,55 250,135 348,233 98,97 177,215 232,348 35,86 60,178 72,274l10 3 0 133c0,90 -11,178 -33,263 -10,42 -24,83 -39,123l1180 1180c45,-20 91,-36 139,-49 92,-26 188,-40 286,-40 98,0 194,14 286,40 47,13 94,29 138,49l1181 -1181c-15,-40 -28,-81 -39,-123 -22,-85 -33,-173 -33,-263 0,-144 29,-282 82,-409 54,-131 134,-249 234,-348 98,-99 216,-178 346,-232l1 0c127,-53 265,-82 409,-82 143,0 281,29 408,82 130,54 248,134 347,232 1,0 2,1 2,2 98,99 177,216 231,347 35,86 60,177 72,272l10 3 0 133c0,90 -11,178 -33,263 -10,42 -24,83 -39,124l1180 1179c45,-19 91,-35 138,-48 92,-26 188,-40 285,-40 98,0 194,14 286,40 48,13 94,30 139,49l1182 -1181c-15,-40 -28,-81 -39,-123 -21,-85 -33,-173 -33,-263 0,-144 29,-283 82,-409 55,-132 134,-250 232,-348 98,-98 216,-178 348,-232 127,-53 265,-82 410,-82 144,0 282,29 409,82 132,54 250,134 348,232 98,98 178,216 232,348 53,126 82,265 82,409 0,90 -12,178 -33,263 -11,42 -24,83 -39,123l1181 1181c45,-19 91,-36 138,-49 93,-25 189,-39 286,-39 144,0 282,29 409,81 132,55 251,135 348,232 98,98 178,217 233,349 52,127 81,265 81,409 0,144 -29,282 -81,409 -55,131 -134,249 -233,347 -62,63 -132,118 -209,164 -36,22 -75,42 -114,59l0 5898 5004 -5004 -1319 0c-17,39 -37,77 -59,114 -46,77 -101,148 -163,209 -98,98 -216,178 -347,232 -127,53 -266,82 -410,82 -144,0 -283,-29 -410,-82 -131,-54 -249,-134 -348,-232 -97,-98 -177,-216 -232,-348 -52,-127 -81,-265 -81,-409 0,-145 29,-283 81,-410 55,-132 134,-250 232,-348 98,-98 216,-177 348,-232 127,-53 266,-82 410,-82 144,0 283,29 410,82 131,55 249,134 347,232zm2792 758c0,-29 -5,-55 -14,-79 -10,-23 -26,-46 -45,-65 -19,-19 -42,-35 -65,-44 -23,-10 -50,-15 -79,-15 -28,0 -55,5 -78,15 -24,9 -46,25 -65,44 -19,19 -35,42 -45,65 -9,24 -14,50 -14,79 0,28 5,55 14,78 10,24 26,46 45,65 19,20 41,35 65,45 23,9 50,15 78,15 29,0 56,-6 79,-15 23,-10 46,-25 65,-45 19,-19 35,-41 45,-65 9,-23 14,-50 14,-78zm0 3346c0,-28 -5,-55 -14,-78 -10,-24 -26,-46 -45,-65 -19,-20 -42,-35 -65,-45 -23,-9 -50,-15 -79,-15 -28,0 -55,6 -78,15 -24,10 -46,25 -65,45 -19,19 -35,41 -45,65 -9,23 -14,50 -14,78 0,29 5,55 14,78 11,25 26,47 45,66 19,19 41,34 65,44 23,10 50,15 78,15 29,0 56,-5 79,-15 24,-10 47,-25 66,-44l11 -11c14,-17 26,-36 34,-57 9,-22 13,-48 13,-76zm-6545 -4640c19,-18 34,-41 44,-66 9,-23 15,-50 15,-79 0,-29 -6,-55 -15,-79 -10,-23 -25,-45 -44,-65 -20,-19 -42,-34 -66,-44 -23,-9 -49,-15 -78,-15 -28,0 -53,5 -75,14 -21,8 -40,19 -57,33l-12 13c-18,18 -33,40 -43,65l0 0c-10,24 -15,50 -15,78 0,29 5,56 15,79 10,25 25,47 44,66 18,19 40,33 65,44 23,9 49,14 78,14 29,0 56,-5 79,-14 24,-10 46,-25 65,-44zm-2546 -2695c0,-28 -5,-55 -14,-78 -10,-24 -26,-46 -45,-65 -19,-20 -42,-35 -65,-45 -23,-9 -50,-15 -78,-15 -29,0 -56,6 -79,15 -23,10 -46,25 -65,45 -19,19 -35,41 -44,65 -10,23 -15,50 -15,78 0,29 5,55 15,79 9,23 25,46 44,65 19,19 42,35 65,44 23,10 50,15 79,15 28,0 55,-5 78,-15 23,-9 46,-25 65,-44 19,-19 35,-42 45,-65 9,-24 14,-50 14,-79zm-2666 2694c19,-20 35,-42 44,-66 10,-23 15,-49 15,-78 0,-29 -5,-56 -15,-79 -10,-25 -25,-48 -44,-67 -18,-18 -40,-33 -64,-43 -23,-9 -50,-14 -79,-14 -29,0 -56,5 -79,15 -24,10 -47,24 -65,43 -19,18 -34,41 -44,66 -10,23 -15,50 -15,79 0,29 5,56 15,79 9,23 25,45 43,64 19,20 41,35 66,45 23,9 50,15 79,15 28,0 53,-5 75,-14 22,-8 43,-21 60,-36l8 -9zm-2601 -2549c19,-19 34,-42 44,-66 10,-23 15,-50 15,-79l0 -21c-2,-20 -7,-39 -14,-56 -10,-25 -25,-48 -44,-66l-1 -1c-19,-19 -41,-34 -65,-44 -23,-9 -49,-14 -78,-14 -29,0 -56,5 -80,15 -25,10 -47,25 -66,44 -18,18 -33,40 -43,65 -9,22 -15,49 -15,78 0,29 6,56 15,79 10,24 25,46 45,65 19,19 41,35 65,44 23,10 50,15 79,15 29,0 55,-5 78,-14 24,-10 46,-25 65,-44zm-2545 2405c0,-29 -6,-55 -15,-79 -10,-23 -25,-45 -45,-65 -19,-19 -41,-34 -65,-44 -23,-10 -50,-15 -78,-15 -29,0 -55,5 -78,15 -24,10 -46,25 -66,44 -19,20 -34,42 -44,65 -10,24 -15,50 -15,79 0,28 5,55 15,78 10,24 25,46 44,65 20,20 42,35 66,45 23,9 49,15 78,15 28,0 55,-6 78,-15 24,-10 46,-25 65,-45 20,-19 35,-41 45,-65 9,-23 15,-50 15,-78zm-2662 -2406c18,-18 33,-40 43,-65 10,-23 15,-49 15,-78l0 -21c-2,-20 -7,-39 -14,-57 -10,-24 -26,-47 -45,-66 -20,-20 -42,-35 -66,-45 -23,-9 -49,-15 -78,-15 -29,0 -56,6 -79,15 -24,10 -47,25 -65,43 -19,19 -34,42 -44,67 -10,23 -15,50 -15,79 0,29 5,55 15,78 10,25 25,47 43,66l1 0c18,19 41,33 65,44 23,9 50,14 79,14 29,0 56,-5 79,-15 25,-10 47,-25 66,-44zm7782 10475c18,-18 34,-41 44,-66 10,-23 15,-50 15,-79 0,-29 -5,-55 -15,-78 -10,-24 -25,-46 -44,-65 -20,-20 -42,-35 -66,-45 -23,-9 -49,-15 -78,-15 -29,0 -56,6 -79,15 -25,10 -47,26 -66,44 -18,19 -33,41 -43,65 -9,23 -15,50 -15,79 0,29 6,56 15,79 10,24 25,47 45,66 19,19 41,34 64,44 23,9 50,14 79,14 29,0 56,-5 79,-14 24,-10 47,-25 65,-44zm-5178 -1c18,-18 33,-40 43,-64 10,-23 15,-50 15,-79 0,-29 -5,-56 -15,-79 -10,-24 -25,-46 -44,-65l-2 -4c-18,-17 -40,-31 -64,-41 -23,-9 -49,-15 -79,-15 -29,0 -55,6 -78,15 -25,10 -47,25 -65,43 -19,19 -34,42 -44,67 -10,23 -15,50 -15,79 0,29 5,55 15,78 10,25 25,47 43,66l1 0c18,19 40,34 65,44 23,9 50,14 78,14 30,0 56,-5 80,-14 25,-11 47,-26 66,-45zm15150 19706c0,-29 -6,-55 -15,-79 -10,-23 -25,-46 -45,-65 -19,-19 -41,-35 -65,-44 -23,-10 -49,-15 -78,-15 -29,0 -55,5 -78,15 -24,9 -46,25 -66,44 -19,19 -34,42 -44,65 -10,24 -15,50 -15,79 0,28 5,55 15,78 10,24 25,46 44,65 20,20 42,35 66,45 23,9 49,15 78,15 29,0 55,-6 78,-15 24,-10 46,-25 65,-45 20,-19 35,-41 45,-65 9,-23 15,-50 15,-78zm554 -758c98,98 178,216 232,348 53,127 82,265 82,410 0,144 -29,282 -81,409 -55,132 -135,250 -233,348 -98,98 -216,178 -347,232 -127,53 -266,82 -410,82 -144,0 -283,-29 -410,-82 -131,-54 -249,-134 -348,-232 -61,-61 -116,-132 -162,-209 -22,-37 -42,-75 -59,-114l-3263 0c-17,39 -37,77 -59,114 -46,77 -101,148 -162,209 -99,98 -217,178 -348,232 -127,53 -266,82 -410,82 -144,0 -283,-29 -410,-82 -131,-54 -249,-134 -347,-232 -99,-98 -178,-216 -233,-348 -52,-127 -81,-265 -81,-409 0,-145 29,-283 81,-410 55,-132 134,-250 233,-348 97,-98 216,-177 348,-232 126,-53 265,-82 409,-82 144,0 283,29 410,82 132,55 250,134 348,232 92,93 168,202 221,323l2603 0c-177,-161 -345,-333 -502,-513 -263,-303 -500,-633 -704,-988 -201,-347 -368,-713 -499,-1093 -116,-337 -203,-688 -261,-1050 -59,-20 -117,-44 -172,-74 -95,-50 -181,-114 -255,-188 -98,-98 -178,-216 -232,-347 -53,-127 -82,-266 -82,-410 0,-144 29,-283 82,-410 54,-131 134,-249 232,-348 76,-75 164,-140 260,-191l1 0c57,-29 116,-54 178,-74 106,-624 306,-1218 583,-1766 302,-597 696,-1140 1164,-1607 70,-70 145,-141 224,-212 43,-39 86,-77 129,-114 -13,-36 -24,-72 -33,-109 -21,-84 -32,-170 -32,-257 0,-144 29,-283 81,-410 55,-132 135,-250 233,-348l23 -21c97,-92 212,-166 338,-216 123,-50 257,-77 396,-77 144,0 283,29 410,82 130,54 248,134 347,233 14,12 26,26 39,40 337,-132 688,-235 1050,-307 397,-78 807,-120 1226,-120 400,0 792,38 1174,110 348,66 686,161 1010,281l4 -4c100,-99 218,-179 349,-233 126,-53 265,-82 409,-82 144,0 283,29 410,81 131,55 249,134 348,233l17 20c94,97 169,213 220,340 49,124 76,258 76,398 0,69 -7,139 -21,210 -5,24 -11,48 -17,72 64,53 126,105 184,157 93,83 183,167 269,253 468,468 863,1012 1166,1611 278,550 477,1148 582,1776 55,19 107,43 158,71 87,48 167,108 238,179l4 3c98,99 177,217 231,347 53,127 82,265 82,409 0,144 -29,283 -82,410 -54,131 -134,249 -232,347 -68,69 -147,129 -234,177 -48,28 -99,51 -153,71 -57,365 -145,719 -261,1059 -132,383 -300,751 -501,1098 -204,355 -440,685 -704,988 -157,180 -325,352 -502,513l2885 0c17,-38 37,-76 58,-112 45,-75 100,-145 162,-207 0,-1 2,-4 3,-4 99,-98 216,-178 347,-232 126,-52 264,-81 408,-81 143,0 281,28 407,81 131,54 249,133 347,231l4 3c98,99 178,217 232,347 52,127 81,265 81,409 0,142 -29,280 -81,407 -54,130 -133,248 -231,347 0,1 -2,3 -3,3 -99,98 -217,178 -347,232 -127,53 -265,82 -409,82 -143,0 -280,-29 -407,-81 -130,-54 -248,-134 -347,-232 -1,0 -3,-2 -3,-3 -62,-62 -116,-132 -162,-208 -22,-36 -42,-74 -59,-113l-3505 0c-17,39 -37,77 -59,114 -46,77 -101,148 -163,209 -98,98 -216,178 -347,232 -127,53 -266,82 -410,82 -144,0 -283,-29 -410,-82 -131,-54 -249,-134 -347,-232 -99,-98 -178,-216 -233,-348 -52,-127 -81,-265 -81,-409 0,-145 29,-283 81,-410 55,-132 134,-250 233,-348 23,-24 49,-47 77,-70l-1946 -3370 -1932 3348c36,28 71,59 105,92l0 0zm-1478 -35c73,-66 155,-122 246,-167 75,-38 156,-67 241,-86l2069 -3583 -4146 0c-17,34 -35,66 -55,98 -43,70 -94,134 -151,190 -49,50 -105,95 -165,135 -19,13 -39,25 -59,37 50,298 124,589 221,870 113,328 256,640 424,933 188,325 411,631 663,911 218,242 456,464 712,662zm6134 793c0,-29 -5,-55 -15,-79 -10,-23 -25,-46 -44,-65 -20,-19 -42,-35 -66,-44 -23,-10 -49,-15 -78,-15 -29,0 -55,5 -78,15 -24,9 -46,25 -66,44 -19,19 -34,42 -44,65 -10,24 -15,50 -15,79 0,28 5,55 15,78 10,24 25,46 44,65 20,20 42,35 66,45 23,9 49,15 78,15 29,0 55,-6 78,-15 24,-10 46,-25 66,-45 19,-19 34,-41 44,-65 10,-23 15,-50 15,-78zm500 -809c252,-198 487,-418 701,-657 247,-276 466,-578 652,-900 169,-293 311,-603 423,-927 95,-275 169,-561 219,-857 -26,-13 -50,-28 -74,-43 -67,-43 -130,-92 -185,-148 -56,-56 -107,-120 -151,-190 -20,-32 -38,-64 -54,-98l-4110 0 2063 3574c93,16 182,45 265,83 91,43 176,98 251,163zm2697 -4289c0,-29 -6,-56 -15,-79 -10,-24 -25,-46 -44,-65l-1 -1c-36,-36 -87,-58 -143,-58 -29,0 -55,5 -79,15 -23,10 -46,25 -65,44 -19,20 -35,42 -44,66 -10,23 -15,49 -15,78 0,29 5,55 15,78 9,24 25,46 44,65 19,20 42,35 65,45 24,9 50,15 79,15 28,0 55,-6 78,-15 24,-10 46,-25 65,-45 20,-19 35,-41 45,-65 9,-23 15,-49 15,-78zm-1197 -399c18,-45 39,-88 62,-130 49,-85 107,-162 174,-229 54,-53 114,-101 179,-143 22,-15 45,-28 68,-41 -95,-519 -265,-1013 -498,-1471 -259,-508 -596,-970 -995,-1369 -81,-81 -160,-156 -235,-222 -48,-43 -99,-87 -152,-130 -55,27 -112,51 -171,69 -100,31 -206,47 -314,47 -34,0 -69,-1 -105,-5l-2092 3624 4079 0zm-2739 -4049c-55,-74 -101,-154 -136,-239 -43,-107 -70,-222 -77,-342 -276,-103 -563,-183 -860,-239 -328,-63 -667,-95 -1016,-95 -372,0 -733,37 -1079,107 -319,65 -629,158 -927,277 -8,78 -25,155 -50,228 -23,71 -54,139 -92,202l2147 3720 2090 -3619zm1002 -497c18,-18 33,-40 43,-65 10,-23 15,-49 15,-78 0,-28 -5,-54 -14,-76 -8,-22 -21,-43 -37,-61l-8 -7c-19,-20 -42,-35 -66,-45 -23,-10 -50,-15 -78,-15 -29,0 -56,5 -79,15 -24,10 -46,25 -65,44 -19,19 -34,41 -44,65 -10,23 -15,50 -15,80 0,29 5,55 15,78 10,25 25,47 43,65l0 0c37,36 88,59 145,59 29,0 56,-5 79,-15 24,-10 46,-25 66,-44l0 0zm-5944 905l-33 6c-61,11 -123,16 -186,16 -89,0 -179,-12 -266,-34 -47,-12 -93,-27 -137,-45 -44,37 -89,76 -133,116 -69,62 -139,129 -209,199 -402,401 -740,865 -999,1375 -234,460 -404,959 -498,1485 18,11 36,22 53,33 56,38 109,82 159,132 67,66 126,143 174,228 24,42 45,85 63,130l4115 0 -2103 -3641zm-73 -905c18,-18 32,-40 42,-65 10,-23 15,-49 15,-78 0,-30 -5,-57 -15,-80 -10,-24 -25,-46 -44,-65 -19,-19 -41,-34 -65,-44 -23,-10 -50,-15 -79,-15 -28,0 -53,5 -76,14 -21,8 -42,21 -59,37l-8 9c-20,19 -35,41 -45,65 -9,23 -15,50 -15,79 0,29 6,55 15,78 10,25 25,47 43,65 19,19 41,34 66,44 23,10 50,15 79,15 29,0 56,-5 79,-15 24,-10 47,-25 66,-44l1 0zm-2730 4945c0,-29 -6,-55 -15,-78 -10,-24 -25,-46 -45,-66 -19,-19 -41,-34 -65,-44 -23,-10 -50,-15 -78,-15 -29,0 -55,5 -79,15 -23,10 -46,25 -65,44 -19,20 -35,42 -44,66 -10,23 -15,49 -15,78 0,29 5,55 15,78 9,24 25,46 44,65 19,20 42,35 65,45 24,9 50,15 79,15 28,0 55,-6 78,-15 24,-10 46,-25 65,-45 20,-19 35,-41 45,-65 9,-23 15,-49 15,-78zm6106 8018c0,-29 -5,-56 -15,-79 -10,-23 -25,-45 -44,-64l-1 -2c-18,-18 -40,-33 -64,-43 -23,-9 -50,-15 -79,-15 -28,0 -54,6 -77,15l-1 0c-24,10 -46,25 -65,45l-11 8c-14,17 -27,37 -35,60 -9,22 -14,47 -14,75 0,29 6,56 15,79 7,17 17,34 28,48l17 16c19,20 41,35 65,45l1 0c23,9 49,15 77,15 29,0 56,-6 79,-15 24,-10 46,-25 64,-44l1 -1c19,-18 34,-41 44,-64 10,-23 15,-50 15,-79zm553 -757c2,1 1,1 2,2 61,62 116,132 161,208 22,36 42,74 59,113l5884 0c17,-39 37,-76 58,-112 45,-76 100,-146 162,-208 0,-1 2,-3 3,-3 99,-99 217,-178 347,-232 126,-53 265,-82 408,-82 143,0 281,29 407,81 131,54 249,133 347,231l4 4c98,99 178,216 232,346 52,127 81,265 81,409 0,143 -29,280 -81,407 -54,130 -133,248 -231,347 0,1 -2,3 -3,3 -99,99 -217,178 -347,233 -127,52 -265,81 -409,81 -143,0 -280,-29 -407,-81 -130,-54 -248,-133 -347,-231 -1,0 -3,-2 -3,-3 -62,-63 -117,-133 -162,-209 -22,-36 -42,-74 -59,-113l-5884 0c-17,39 -36,76 -58,112 -45,76 -99,146 -161,208 0,1 -2,3 -3,3 -99,99 -217,178 -347,233 -127,52 -265,81 -409,81 -144,0 -283,-29 -409,-81 -132,-55 -250,-134 -348,-233l0 0c-62,-63 -117,-133 -162,-209 -22,-37 -42,-75 -59,-114l-6179 0c-17,39 -37,77 -59,114 -47,78 -101,148 -163,209 -98,99 -216,178 -348,233 -126,52 -265,81 -409,81 -144,0 -283,-29 -410,-81 -131,-55 -249,-134 -348,-233 -98,-98 -177,-216 -232,-347 -52,-127 -82,-266 -82,-410 0,-144 30,-283 82,-410 55,-131 134,-249 232,-347 99,-99 217,-178 348,-233 127,-52 266,-81 410,-81 144,0 283,29 409,81 132,55 250,134 348,233l0 0c62,62 117,133 163,209 22,37 42,75 59,114l6179 0c15,-35 33,-69 52,-102 42,-72 92,-139 149,-199l20 -22c98,-98 216,-178 348,-232 126,-53 265,-82 409,-82 143,0 280,29 407,81 131,54 248,133 347,231l2 2zm-8689 757c0,-29 -6,-55 -15,-78 -10,-24 -25,-46 -45,-66 -19,-19 -41,-34 -65,-44 -23,-10 -50,-15 -78,-15 -29,0 -55,5 -78,15 -24,10 -46,25 -66,44 -19,20 -34,42 -44,66 -10,23 -15,49 -15,78 0,29 5,55 15,78 10,24 25,46 44,66 20,19 42,34 66,44 23,10 49,15 78,15 28,0 55,-5 78,-15 24,-10 46,-25 65,-44 20,-20 35,-42 45,-66 9,-23 15,-49 15,-78zm15976 -2920c0,-30 -5,-56 -15,-79 -9,-24 -24,-46 -43,-65l-1 -1c-18,-19 -41,-33 -65,-43 -23,-10 -50,-15 -79,-15 -29,0 -55,5 -78,15 -25,10 -47,24 -65,43 0,1 -1,1 -2,1 -18,18 -33,40 -43,65 -9,23 -14,49 -14,79 0,29 5,55 14,78 10,25 25,47 43,65l2 1c19,19 41,34 65,44 23,9 49,14 78,14 29,0 56,-5 79,-14 24,-10 46,-25 65,-44l1 -1c19,-19 34,-41 43,-65 10,-23 15,-49 15,-78zm-15893 0c0,-29 -5,-55 -15,-79 -10,-23 -25,-46 -44,-65 -20,-19 -42,-35 -66,-44 -23,-10 -49,-15 -78,-15 -29,0 -55,5 -78,15 -24,9 -46,25 -65,44 -20,19 -35,42 -45,65 -10,24 -15,50 -15,79 0,28 6,55 15,78 10,24 25,46 45,65 19,20 41,35 65,45 23,9 49,15 78,15 29,0 55,-6 78,-15 24,-10 46,-25 66,-45 19,-19 34,-41 44,-65 10,-23 15,-50 15,-78z"/>
 </g>
</svg>
