<?xml version="1.0" encoding="UTF-8"?>
<!DOCTYPE svg PUBLIC "-//W3C//DTD SVG 1.1//EN" "http://www.w3.org/Graphics/SVG/1.1/DTD/svg11.dtd">
<!-- Creator: CorelDRAW X8 -->
<svg xmlns="http://www.w3.org/2000/svg" xml:space="preserve" version="1.1" style="shape-rendering:geometricPrecision; text-rendering:geometricPrecision; image-rendering:optimizeQuality; fill-rule:evenodd; clip-rule:evenodd"
viewBox="0 0 44489 5511"
 xmlns:xlink="http://www.w3.org/1999/xlink">
  <defs>
    <style type="text/css">
    <![CDATA[
      .fil2 {fill:black}
      .fil3 {fill:#00D2FF}
      .fil4 {fill:#00F076}
      .fil7 {fill:#535353}
      .fil5 {fill:#FE3A44}
      .fil8 {fill:#FEFEFE}
      .fil6 {fill:#FFCB00}
      .fil1 {fill:white}
      .fil0 {fill:url(#id2)}
      .fnt1 {font-weight:bold;font-size:1175.6px;font-family:'Arial'}
      .fnt0 {font-weight:bold;font-size:1634.77px;font-family:'Arial'}
    ]]>
    </style>
    <mask id="id0">
      <linearGradient id="id1" gradientUnits="userSpaceOnUse" x1="31636.7" y1="1245.53" x2="31636.7" y2="2732.59">
      <stop offset="0" style="stop-opacity:1; stop-color:white"/>
      <stop offset="1" style="stop-opacity:0; stop-color:white"/>
      </linearGradient>
      <rect style="fill:url(#id1)" x="30357" y="1243" width="2656" height="1442"/>
    </mask>
    <radialGradient id="id2" gradientUnits="userSpaceOnUse" gradientTransform="matrix(-1.98347 0.260706 -0.0391272 -0.593009 145974 -14075)" cx="105%" cy="80%" r="80%">
      <stop offset="0" style="stop-opacity:1; stop-color:#1FA178"/>
      <stop offset="0.560784" style="stop-opacity:1; stop-color:#29ABE0"/>
      <stop offset="1" style="stop-opacity:1; stop-color:#110732"/>
    </radialGradient>
 </defs>
 <g>
  <rect class="fil0" width="44489" height="5511"/>
   <text x="11546" y="2520"  class="fil1 fnt0">iOS &#38; Android</text>
   <text x="11581" y="3930"  class="fil1 fnt1">are comming soon</text>
  <path class="fil2" d="M33005 2559c9,-11 5,-103 5,-123l-2 -866c0,-59 7,-189 -12,-237 -12,-30 -34,-50 -57,-66 -32,-21 -62,-21 -104,-21 -1470,0 -2940,-3 -4410,-1 -163,0 -288,0 -300,2 -77,9 -125,71 -125,155l0 1117c0,50 5,78 31,110 57,70 131,54 224,54l4599 1c85,-1 150,-59 151,-125zm-4869 267c-58,8 -97,42 -118,83 -25,50 -17,123 -17,184l0 804c0,66 -2,135 0,200 2,61 39,108 76,128 56,31 108,22 179,22l4417 0c125,0 262,29 318,-86 24,-51 15,-124 15,-185l0 -804c0,-65 3,-135 0,-200 -2,-62 -38,-103 -76,-127 -47,-29 -114,-22 -178,-22 -1472,0 -2945,0 -4417,0 -58,0 -146,-5 -199,3z"/>
   <path class="fil3" d="M28452 3979l418 -413c10,-10 17,-21 27,-31l-112 -110c-20,-19 -36,-39 -55,-58l-168 -163c-19,-19 -37,-36 -57,-55l-54 -57c-22,19 -17,62 -17,98l0 577c0,38 0,77 0,115 0,36 -6,77 18,97z"/>
   <path class="fil4" d="M28451 3092l54 57c20,19 38,36 57,55l168 163c19,19 35,39 55,58l112 110 4 0c6,-12 24,-25 35,-36l105 -102c2,-2 3,-2 4,-5 5,-6 3,-2 5,-7 -18,-13 -51,-30 -72,-41 -144,-78 -298,-171 -443,-249 -19,-11 -41,-22 -66,-15 -5,2 -5,2 -10,5l-8 7z"/>
   <path class="fil5" d="M28452 3979c23,29 59,10 84,-3 67,-35 154,-89 222,-125 70,-37 155,-90 221,-124 17,-8 63,-33 73,-42 -13,-6 -45,-43 -58,-57l-93 -93 -4 0c-10,10 -17,21 -27,31l-418 413z"/>
   <path class="fil6" d="M28901 3535l93 93c13,14 45,51 58,57 17,-6 93,-52 118,-65 39,-21 97,-45 95,-87 -1,-24 -23,-41 -40,-51l-175 -97c-2,5 0,1 -5,7 -1,3 -2,3 -4,5l-105 102c-11,11 -29,24 -35,36z"/>
  <path class="fil7" style="mask:url(#id0)" d="M30359 1245l948 1438 1547 1c85,-1 150,-59 151,-125 9,-11 5,-103 5,-123l-2 -866c0,-59 7,-189 -12,-237 -12,-30 -34,-50 -57,-66 -32,-21 -62,-21 -104,-21 -825,0 -1651,-1 -2476,-1z"/>
  <path class="fil8" d="M30221 2061c125,-28 139,207 36,233 -61,15 -106,-24 -106,-98 0,-51 -4,-120 70,-135zm-209 1585l-217 -2 -2 65 155 0c-11,50 -16,64 -48,92 -75,63 -224,44 -268,-79 -38,-110 43,-236 177,-226 45,3 74,22 100,44l47 -45 -26 -22c-87,-60 -194,-56 -277,2 -211,146 -66,477 197,421 55,-12 102,-46 127,-82 25,-36 53,-114 35,-168zm219 -359l29 0 1 -214 -29 -1 -1 215zm62 -187l60 1 1 186 29 0 1 -186 60 -1 0 -28 -150 0 -1 28zm-318 0l60 1 1 186 29 0 0 -187 60 0 1 -28 -150 0 -1 28zm-155 187l128 0 0 -27 -98 0 1 -66 88 0 0 -27 -89 -1 0 -66 97 0 1 -28 -127 0 -1 215zm-39 -114l-107 -1 0 27 78 0c-8,86 -135,86 -156,7 -18,-66 33,-119 94,-109 32,5 30,17 47,23l17 -17c-17,-33 -93,-51 -144,-15 -37,26 -65,83 -37,141 46,99 222,81 208,-56zm943 29c-27,105 -188,68 -158,-47 26,-100 186,-66 158,47zm-107 -131c-139,34 -95,251 53,219 140,-30 99,-256 -53,-219zm176 215l29 1 0 -169c20,17 101,166 113,169l27 0 0 -214 -29 -1 -1 161c0,0 -1,-2 -1,-1l-102 -160 -35 1 -1 213zm255 605l68 0 0 -444 -68 -1 0 445zm874 0l68 1 0 -445 -67 -1 -1 445zm374 -284l116 262c7,21 -58,126 -64,158l70 -1c25,-50 67,-154 93,-210 16,-36 31,-69 46,-106 13,-30 36,-74 45,-104l-70 0c-10,3 -39,85 -42,94 -13,32 -29,67 -39,98 -12,-11 -77,-179 -82,-192l-73 1zm-1082 136c10,-108 119,-99 136,-55 -22,10 -45,19 -68,28 -21,9 -47,22 -68,27zm212 91l-51 -35c-18,21 -35,41 -76,41 -18,1 -33,-4 -45,-12 -16,-11 -15,-16 -28,-30 6,-6 14,-9 23,-12 9,-4 17,-7 25,-11l156 -63c-46,-163 -257,-145 -281,11 -20,132 108,206 203,169 28,-10 64,-35 74,-58zm-1247 -174c51,-10 91,29 97,74 8,55 -25,98 -70,105 -111,19 -143,-157 -27,-179zm-6 -61c-208,36 -161,322 39,301 78,-8 145,-80 132,-171 -6,-47 -29,-78 -54,-97 -27,-22 -72,-41 -117,-33zm340 61c53,-11 93,31 99,75 15,125 -155,144 -170,27 -8,-57 24,-92 71,-102zm-6 -61c-209,36 -157,325 42,301 79,-10 141,-80 131,-172 -9,-76 -85,-144 -173,-129zm1719 171c-2,15 -8,30 -16,39 -7,9 -19,19 -29,23 -26,12 -64,10 -80,-11 -22,-27 8,-54 32,-61 41,-11 60,1 93,10zm-191 -106c6,5 50,23 60,26 30,-52 126,-43 131,27 -51,-17 -80,-24 -133,-3 -94,36 -87,158 14,183 76,18 101,-26 119,-39l0 32 65 1c1,-51 0,-103 1,-154 0,-57 -13,-86 -44,-112 -52,-41 -169,-46 -213,39zm-390 -155c31,0 96,-4 121,4 78,24 68,148 -30,148l-91 0 0 -149 0 -3zm-69 382l69 1 0 -169c67,1 134,7 182,-27 105,-76 62,-219 -51,-245 -30,-7 -164,-8 -199,-4l-1 444zm-727 -232c51,-9 88,32 92,78 6,52 -23,97 -70,103 -109,13 -133,-160 -22,-181zm89 -28c-11,-5 -16,-14 -33,-22 -13,-7 -26,-10 -40,-11 -31,-2 -61,7 -82,20 -38,23 -75,68 -75,131 -1,116 122,182 200,140 14,-8 20,-17 30,-22 -3,35 2,90 -55,106 -55,15 -86,-16 -104,-51l-58 25c48,113 198,116 254,33 33,-47 27,-107 27,-174 0,-65 3,-135 0,-200l-65 1 1 24zm-214 -2074c61,-18 72,96 25,113 -33,11 -55,-12 -57,-42 -2,-36 2,-62 32,-71zm-458 -99c-33,15 -12,53 18,41 24,-11 10,-54 -18,-41zm-12 241l36 1 2 -171 -38 0 0 170zm657 -248l-39 0 1 248 37 0 1 -248zm-553 4l1 245 37 -1 1 -248 -39 -1 0 5zm1415 102l24 1c16,41 -33,168 78,141l0 -29 -31 0c-13,-30 -8,-77 -8,-113l42 0 0 -28 -43 1 0 -43 -35 10 0 32 -25 1c0,10 2,20 -2,27zm-1853 142l36 0 64 -170c-43,-1 -38,-7 -49,27 -4,12 -6,22 -10,33 -7,21 -14,46 -21,67l-42 -128 -41 1c3,19 22,62 30,85 10,25 21,64 33,85zm2238 -103c4,-25 14,-43 40,-44 26,-1 36,19 38,44l-78 0zm-35 35c1,19 5,26 14,40 9,14 14,16 31,24 39,17 60,3 95,-2l-6 -27c-50,13 -94,14 -100,-43l113 0c12,-33 -10,-67 -22,-83 -8,-3 -65,-36 -103,10l-7 9c-14,20 -21,49 -15,72zm-1120 -36c3,-22 16,-42 39,-43 29,-1 34,18 39,44l-78 -1zm-36 -2c-1,49 2,73 32,95 28,20 78,17 108,3l-6 -25c-17,6 -45,11 -65,5 -24,-8 -31,-25 -34,-47l113 -1 3 -34 -2 -4c-1,-1 -1,-2 -1,-3l-8 -20c-15,-32 -67,-52 -107,-21 -3,3 -6,5 -9,9 -18,15 -19,36 -24,43zm518 108l35 -2c14,-43 -22,-135 35,-142 33,-4 38,19 38,50 1,27 3,67 -1,92l40 0c0,-42 7,-115 -13,-148 -9,-15 -24,-27 -52,-25 -13,1 -19,4 -29,10 -4,1 -7,3 -11,7 -4,4 -2,2 -5,5l-3 4c-1,-1 -2,2 -3,2l0 -25 -33 0 2 172zm-934 -86c0,23 3,40 -11,51 -11,8 -34,13 -45,1 -11,-13 -17,-51 56,-52zm40 -36c-9,-10 -5,-18 -16,-31 -2,-3 -8,-9 -12,-12 -3,-2 -8,-4 -13,-8 -30,-4 -66,-4 -87,13l7 23c16,-4 78,-34 80,25 -129,1 -115,101 -59,113 29,6 48,-9 62,-19l5 17 32 -1c2,-32 -6,-89 1,-120zm-439 36c-1,22 3,36 -12,50 -11,9 -33,15 -44,4 -11,-12 -22,-54 56,-54zm-88 -75l6 25c31,-13 77,-28 80,24 -48,0 -108,15 -99,72 9,51 77,53 103,20l3 18 33 1c2,-17 -2,-55 -2,-75 0,-25 3,-50 -8,-70 -19,-35 -78,-39 -116,-15zm1266 17c44,-21 72,41 53,88 -3,9 -12,22 -22,26 -57,29 -86,-88 -31,-114zm-67 74c8,27 13,43 32,56 40,29 100,17 122,-26 13,-25 12,-48 9,-79 -7,-8 -5,-17 -25,-37 -38,-37 -146,-27 -138,86zm668 70c42,-15 37,27 38,-55 0,-31 -6,-73 17,-85 25,-12 51,-5 54,37 2,23 3,80 -1,101l39 0c0,-40 7,-114 -11,-147 -13,-25 -45,-32 -68,-23 -11,4 -24,14 -30,22l0 -100 -39 0 1 250zm-2232 -100c4,-18 11,-33 16,-51 5,-17 9,-33 14,-52l32 102 -62 1zm-67 98l39 0c8,-20 15,-66 26,-69l66 0c15,9 18,52 28,69l38 1c1,-18 -65,-195 -74,-237 -57,0 -44,-15 -66,57 -7,21 -12,38 -20,59l-37 120zm1022 -109c-3,34 4,78 -3,109 38,1 31,3 35,-10 0,-2 1,-11 2,-14 10,9 18,22 37,26 19,5 41,0 55,-10 30,-23 36,-53 36,-101 -9,-15 -6,-36 -38,-56 -47,-28 -81,15 -86,18l-2 -101 -36 0 0 139zm-1747 44l1 17c111,5 193,-106 184,-212 -100,6 -190,107 -185,195zm376 479c-68,-35 -115,-85 -121,-166 -4,-49 6,-86 26,-121 10,-18 18,-26 32,-40 28,-28 19,-17 39,-34 -5,-14 -27,-34 -38,-43 -55,-41 -124,-61 -195,-41 -35,9 -93,41 -127,33 -63,-16 -140,-78 -253,0 -32,22 -57,48 -78,88 -42,81 -37,195 -13,285 25,89 67,159 114,217 100,123 151,43 230,32 64,-9 84,10 134,27 100,33 152,-54 198,-123 17,-27 45,-79 52,-114zm2741 236c4,-85 -19,-221 30,-261 22,-19 42,-18 76,-17l0 -72c-27,-8 -56,3 -74,15 -25,18 -27,34 -36,47 -4,5 -2,2 -5,6l-3 -63 -68 0c1,58 3,115 3,173 0,56 -2,118 1,173l76 -1zm-736 -288l51 1c0,55 -6,177 5,223 8,34 23,53 50,65 27,11 77,11 101,-2 4,-15 -1,-40 -1,-58 -53,5 -76,2 -79,-55l0 -161c2,-18 -3,-8 7,-12l77 0 0 -59 -84 0 -1 -85 -75 22 0 63 -50 1 -1 57zm953 79c1,-91 104,-114 139,-66 11,16 23,42 18,66l-157 0zm229 55c17,-89 -26,-174 -96,-193 -137,-38 -228,89 -205,218 5,33 25,78 50,97 26,21 64,38 110,39 79,1 76,-10 126,-20l-14 -54c-77,20 -195,38 -201,-87l230 0zm-770 -141c127,-17 132,227 24,245 -125,21 -143,-228 -24,-245zm-152 184c19,47 35,76 73,98 18,10 39,18 64,21 35,3 58,-6 83,-5 11,-12 31,-16 42,-25 75,-57 88,-170 52,-242 -67,-134 -271,-114 -312,33 -13,44 -8,76 -2,120zm-434 49c-19,9 -58,6 -80,1 -30,-5 -46,-14 -69,-25l-18 65c97,52 268,42 295,-80 5,-19 0,-43 4,-60l-8 -16c-29,-85 -133,-95 -178,-131 -40,-32 -34,-87 12,-106 46,-20 97,-2 136,13l18 -62c-50,-34 -216,-43 -259,59 -30,71 1,127 61,164 51,32 133,38 139,105 4,37 -18,66 -53,73zm-1311 -350c16,75 46,142 63,213l-126 0c18,-66 36,-110 54,-184 1,-5 2,-10 4,-15 0,-1 2,-7 2,-7 2,-6 1,-4 3,-7zm-200 413l75 0c9,-2 8,-12 14,-31 5,-14 8,-24 12,-37 4,-14 7,-24 11,-38 15,-47 -13,-34 155,-34 11,0 9,1 13,6l38 120c7,21 5,14 86,14l-150 -467c-3,-11 0,-8 -9,-14l-92 0 -153 481zm1118 -157c-7,60 -35,112 -104,103 -75,-11 -69,-90 -69,-137 1,-144 192,-134 173,34zm-181 -136l-4 -52 -68 -2c0,80 3,161 3,241 0,82 0,164 0,246l77 0 0 -178c18,20 37,39 75,44 40,6 76,-4 103,-21 101,-64 105,-273 -13,-327 -51,-24 -127,-9 -157,30l-16 19zm-397 0l-4 -52 -69 -2c4,162 4,325 3,487l78 0 0 -176c19,13 24,37 80,43 194,22 230,-280 84,-349 -28,-13 -68,-16 -101,-5 -16,5 -28,12 -39,21 -23,17 -14,14 -27,28 -5,5 -2,2 -5,5z"/>
 </g>
</svg>
