<?xml version="1.0" encoding="UTF-8"?>
<!DOCTYPE svg PUBLIC "-//W3C//DTD SVG 1.1//EN" "http://www.w3.org/Graphics/SVG/1.1/DTD/svg11.dtd">
<!-- Creator: CorelDRAW X8 -->
<svg xmlns="http://www.w3.org/2000/svg" id="chat_hvbtn" xml:space="preserve" version="1.1" style="shape-rendering:geometricPrecision; text-rendering:geometricPrecision; image-rendering:optimizeQuality; fill-rule:evenodd; clip-rule:evenodd"
viewBox="0 0 31275 6301"
 xmlns:xlink="http://www.w3.org/1999/xlink">
 <defs>
  <style type="text/css">
   <![CDATA[
    .fil0 {
        fill:url(#id0);
    }
   ]]>
  </style>
  <radialGradient id="id0" gradientUnits="userSpaceOnUse" gradientTransform="matrix(1.39529 0.255497 -1.04464 0.341267 -3728 -2437)" cx="13761.2" cy="1638.3" r="1178.37" fx="13761.2" fy="1638.3">
   <stop offset="0" style="stop-opacity:1; stop-color:#9E009E"/>
   <stop offset="1" style="stop-opacity:1; stop-color:#06068F"/>
  </radialGradient>
 </defs>
 <g>
  <path class="fil0" d="M11899 2192l354 0 0 1533 524 0 0 339 -878 0 0 -1872zm-8748 -2192l24974 0c866,0 1654,354 2225,925 571,571 925,1359 925,2226 0,866 -354,1654 -925,2225 -571,571 -1359,925 -2225,925l-24974 0c-867,0 -1655,-354 -2226,-925 -571,-571 -925,-1359 -925,-2225 0,-867 354,-1655 925,-2226 571,-571 1359,-925 2226,-925zm24974 441l-24974 0c-745,0 -1423,305 -1914,796 -491,491 -796,1169 -796,1914 0,745 305,1422 796,1914 491,491 1169,796 1914,796l24974 0c745,0 1422,-305 1914,-796 491,-492 796,-1169 796,-1914 0,-745 -305,-1423 -796,-1914 -492,-491 -1169,-796 -1914,-796zm-18953 1469c718,0 1300,412 1300,919 0,508 -582,919 -1300,919 -161,0 -316,-21 -459,-59l0 0c-149,208 -157,486 -18,702 -274,-185 -405,-520 -329,-842 -301,-168 -493,-428 -493,-720 0,-507 582,-919 1299,-919zm13678 259l347 0 0 511 205 0 0 299 -205 0 0 1085 -347 0 0 -1085 -177 0 0 -299 177 0 0 -511zm-738 511l347 0 0 1384 -347 0 0 -148c-68,65 -136,111 -204,139 -68,28 -143,43 -222,43 -180,0 -334,-70 -465,-208 -131,-138 -196,-310 -196,-516 0,-213 64,-388 190,-524 126,-136 280,-204 460,-204 84,0 162,15 235,46 73,31 140,78 202,140l0 -152zm-365 284c-108,0 -198,38 -268,114 -72,75 -107,173 -107,291 0,120 36,218 108,295 73,77 162,116 268,116 109,0 200,-38 271,-114 73,-76 109,-175 109,-298 0,-121 -36,-218 -109,-293 -71,-74 -162,-111 -272,-111zm-2221 -819l347 0 0 676c67,-58 135,-102 204,-131 68,-29 138,-44 207,-44 137,0 253,47 347,142 80,82 120,203 120,362l0 914 -341 0 0 -606c0,-160 -8,-269 -23,-325 -15,-57 -41,-99 -78,-127 -37,-28 -82,-42 -136,-42 -70,0 -130,23 -181,70 -50,46 -85,110 -104,190 -10,42 -15,136 -15,285l0 555 -347 0 0 -1919zm-276 376l-250 237c-169,-179 -360,-269 -573,-269 -179,0 -330,62 -452,184 -123,122 -184,272 -184,451 0,125 27,236 81,332 55,97 131,173 230,228 100,55 210,83 332,83 103,0 198,-20 284,-58 86,-39 180,-109 282,-211l242 253c-138,135 -269,229 -391,281 -123,53 -264,79 -422,79 -291,0 -529,-92 -715,-277 -185,-184 -278,-421 -278,-709 0,-187 42,-352 127,-497 84,-145 205,-262 363,-350 157,-88 326,-133 508,-133 155,0 303,33 446,98 143,65 267,158 370,278zm-2772 948l-1114 0c16,99 59,178 129,236 69,59 158,88 266,88 129,0 240,-46 333,-137l291 138c-72,103 -160,179 -261,229 -102,50 -222,75 -361,75 -217,0 -393,-69 -529,-205 -136,-137 -204,-308 -204,-513 0,-211 68,-386 204,-525 136,-140 306,-209 512,-209 217,0 395,69 531,208 136,139 205,322 205,550l-2 65zm-345 -271c-23,-75 -68,-137 -136,-184 -67,-48 -146,-71 -235,-71 -97,0 -182,26 -255,80 -46,33 -88,92 -127,175l753 0zm-2647 -518l356 0 348 816 351 -816 353 0 -596 1384 -221 0 -591 -1384zm-339 -568c60,0 113,22 156,66 44,43 66,96 66,159 0,62 -22,114 -65,158 -43,43 -95,65 -155,65 -62,0 -115,-22 -158,-67 -44,-44 -66,-98 -66,-161 0,-61 22,-113 65,-156 43,-43 95,-64 157,-64zm-175 568l347 0 0 1384 -347 0 0 -1384z"/>
 </g>
</svg>
