<?xml version="1.0" encoding="UTF-8"?>
<!DOCTYPE svg PUBLIC "-//W3C//DTD SVG 1.1//EN" "http://www.w3.org/Graphics/SVG/1.1/DTD/svg11.dtd">
<!-- Creator: CorelDRAW X8 -->
<svg xmlns="http://www.w3.org/2000/svg" id="love" xml:space="preserve" version="1.1" style="shape-rendering:geometricPrecision; text-rendering:geometricPrecision; image-rendering:optimizeQuality; fill-rule:evenodd; clip-rule:evenodd"
viewBox="0 0 1306066 1239582"
 xmlns:xlink="http://www.w3.org/1999/xlink">
 <defs>
  <style type="text/css">
   <![CDATA[
    .fil0 {
        fill:white;
        transform-origin: center 30%;
        transform: scale(0.5);
    }
    #love:hover .fil0{
        animation: love_anime 1s infinite ;
    }
    @keyframes love_anime{
        0%,100%{transform: scale(0.45);}
        10%{transform: scale(0.5);}
        20%{transform: scale(0.45);}
        30%{transform: scale(0.5);}
    }
   ]]>
  </style>
 </defs>
 <g>
  <path class="fil0" d="M638554 1233581c8000,8001 20958,8001 28958,0 60215,-60215 126044,-115210 191193,-169973 32049,-26940 64100,-53883 95710,-81340 120532,-104694 248490,-227571 311256,-377279 42430,-101200 50646,-204749 28351,-312035 -16791,-80800 -55483,-156847 -117034,-212662 -45669,-41414 -101701,-69327 -163002,-77680 -64251,-8754 -127277,4836 -183969,35772 -67700,36944 -121286,95678 -162032,160371l-14952 23739 -14951 -23739c-40748,-64695 -94334,-123427 -162034,-160373 -56693,-30940 -119718,-44525 -183970,-35770 -61264,8349 -117315,36253 -163000,77682 -61550,55817 -100242,131859 -117034,212660 -22295,107286 -14079,210835 28351,312035 62766,149708 190724,272585 311256,377279 31610,27457 63661,54400 95710,81340 65149,54763 130978,109758 191193,169973zm-165051 -201043c-28332,-23814 -56662,-47631 -84668,-71827 -126263,-109089 -264030,-239870 -320558,-400968 -29703,-84651 -34564,-170708 -16323,-258482 15020,-72273 49236,-140832 104352,-190813 39533,-35849 88073,-60213 141133,-67443 55541,-7568 110193,4387 159175,31118 80073,43698 138160,121652 178245,201827 5021,10042 17220,14106 27262,9086 3996,-1997 7139,-5192 9134,-9182 40067,-80159 98147,-158045 178197,-201728 48981,-26729 103632,-38687 159172,-31121 53061,7229 101603,31590 141136,67441 55117,49982 89332,118541 104352,190815 18241,87774 13380,173831 -16324,258483 -56528,161098 -194294,291879 -320557,400967 -28006,24197 -56337,48013 -84668,71827 -56607,47582 -113712,95253 -167368,146161l-12162 11540 -12162 -11540c-53656,-50908 -110761,-98579 -167368,-146161z"/>
 </g>
</svg>
