<?xml version="1.0" encoding="UTF-8"?>
<!DOCTYPE svg PUBLIC "-//W3C//DTD SVG 1.1//EN" "http://www.w3.org/Graphics/SVG/1.1/DTD/svg11.dtd">
<!-- Creator: CorelDRAW X8 -->
<svg xmlns="http://www.w3.org/2000/svg" xml:space="preserve" version="1.1" style="shape-rendering:geometricPrecision; text-rendering:geometricPrecision; image-rendering:optimizeQuality; fill-rule:evenodd; clip-rule:evenodd"
viewBox="0 0 1018 1265"
 xmlns:xlink="http://www.w3.org/1999/xlink">
 <defs>
  <style type="text/css">
   <![CDATA[
    .fil0 {fill:white}
   ]]>
  </style>
 </defs>
 <g>
   <path class="fil0" d="M242 1c-33,4 -78,33 -99,55l-39 39c-11,10 -26,31 -34,43 -157,216 -16,498 94,693 19,33 39,65 59,96 21,32 42,60 64,90l70 84c22,26 51,51 80,75 53,42 129,83 220,88 80,5 200,-22 248,-63 61,-50 20,-90 -20,-149 -26,-38 -53,-75 -83,-109l-27 -30c-30,-29 -48,-67 -109,-17l-51 47c-3,4 -5,7 -9,10 -42,39 -76,6 -99,-20 -14,-14 -21,-19 -37,-40 -39,-51 -57,-70 -96,-135 -38,-65 -74,-130 -104,-206 -10,-25 -35,-94 -29,-122 4,-20 19,-32 39,-38 36,-12 85,-21 114,-41 18,-12 21,-31 15,-57 -12,-59 -59,-166 -87,-221 -16,-33 -32,-78 -80,-72z"/>
   <path class="fil0" d="M576 109c-17,6 -31,27 -20,49 8,16 27,19 47,28 42,18 85,43 120,70l41 34c27,22 68,74 87,103 68,101 105,227 96,356 -1,16 -9,58 -7,70 3,19 23,34 45,27 21,-7 24,-24 27,-48 36,-262 -97,-528 -326,-649 -20,-11 -86,-49 -110,-40z"/>
   <path class="fil0" d="M547 242c-37,6 -41,52 -9,67 29,13 51,23 76,40 19,13 51,35 65,52 5,6 9,8 14,13l39 50c55,81 83,171 77,273 -1,16 -7,41 -1,54 5,12 20,24 39,20 33,-6 32,-53 33,-85 1,-37 -2,-74 -9,-109 -12,-63 -36,-122 -65,-169 -8,-12 -16,-23 -23,-34l-27 -33c-37,-43 -78,-77 -128,-106 -14,-8 -63,-36 -81,-33z"/>
   <path class="fil0" d="M504 379c-29,11 -28,40 -17,54 8,10 37,22 51,31 68,44 116,118 129,200 5,30 2,49 3,77 1,23 23,41 47,32 23,-8 24,-29 24,-57 1,-95 -31,-172 -88,-242 -3,-4 -4,-7 -8,-11 -5,-4 -8,-6 -12,-10 -24,-24 -35,-35 -69,-55 -15,-9 -40,-26 -60,-19z"/>
 </g>
</svg>
