<?xml version="1.0" encoding="UTF-8"?>
<!DOCTYPE svg PUBLIC "-//W3C//DTD SVG 1.1//EN" "http://www.w3.org/Graphics/SVG/1.1/DTD/svg11.dtd">
<!-- Creator: CorelDRAW X8 -->
<svg xmlns="http://www.w3.org/2000/svg" xml:space="preserve" version="1.1" style="shape-rendering:geometricPrecision; text-rendering:geometricPrecision; image-rendering:optimizeQuality; fill-rule:evenodd; clip-rule:evenodd"
viewBox="0 0 4705 3372"
 xmlns:xlink="http://www.w3.org/1999/xlink">
 <defs>
  <style type="text/css">
   <![CDATA[
    .fil0 {fill:white;}
   ]]>
  </style>
 </defs>
 <g>
  <path class="fil0" d="M284 1952c-157,0 -284,-127 -284,-284 0,-157 127,-284 284,-284l3451 0 -899 -899c-111,-111 -111,-291 0,-402 111,-111 291,-111 401,0l1380 1379 9 10 1 0 4 5 1 1 4 5 4 4 1 2 3 4 1 1 3 4 2 2 2 4 2 2 2 3 2 3 2 3 2 3 2 3 1 3 2 3 2 3 1 3 2 3 3 6 2 3 1 3 6 13 1 3 1 4c10,25 16,51 18,80l0 5 0 1 1 14 -1 14 0 1 0 5c-2,28 -8,55 -18,80l-1 4 -1 3 -6 13 -1 3 -2 3 -3 6 -2 3 -1 3 -2 3 -2 3 -1 3 -2 3 -2 3 -2 3 -2 3 -2 3 -2 2 -2 4 -2 2 -3 4 -1 1 -3 4 -1 2 -4 4 -4 5 -1 1 -4 5 -1 0 -4 5 0 0 -5 5 -1416 1415c-111,111 -290,111 -401,0 -111,-111 -111,-291 0,-402l935 -935 -3451 0z"/>
 </g>
</svg>
